<svg width="70" height="70" viewBox="0 0 70 70" fill="none" xmlns="http://www.w3.org/2000/svg">
<path d="M35 70C54.33 70 70 54.33 70 35C70 15.67 54.33 0 35 0C15.67 0 0 15.67 0 35C0 54.33 15.67 70 35 70Z" fill="#FFAD4F" fill-opacity="0.1"/>
<path d="M15.5585 46.7282L28.9656 23.4719L31.3553 27.4544L24.1861 39.988L38.6405 36.2975L30.1058 21.5835L34.619 13.75L48.8198 38.039L15.5585 46.7282Z" fill="#FFAD4F"/>
<path d="M14.1272 51.0354L49.2637 39.0305L56.2502 51.0328L14.1272 51.0354Z" fill="black"/>
<path opacity="0.5" d="M14.1272 51.0354L49.2637 39.0305L56.2502 51.0328L14.1272 51.0354Z" fill="#FFAD4F"/>
</svg>
