<svg width="113" height="86" viewBox="0 0 113 86" fill="none" xmlns="http://www.w3.org/2000/svg">
<g clip-path="url(#clip0_544_1675)">
<path d="M6 15.5C12.3 15.5 18.6 15.5 25 15.5C25 15.9 25 16.3 25 16.7C25 18.4 24.9 20.1 25 21.8C25.3 24.9 26.1 27.9 27.4 30.8C28.6 33.4 30.1 35.7 32.1 37.7C34.5 40.2 37.4 42.1 40.8 43.1C41.1 43.2 41.2 43.3 41.2 43.6C41.1 45.2 41.4 46.7 41 48.3C40.4 50.9 38.9 52.7 36.6 53.7C35.5 54.2 34.4 54.4 33.2 54.4C29.4 54.4 25.5 54.4 21.7 54.4C19.9 54.4 18.2 54.1 16.7 53C14.5 51.4 13.5 49.1 13.5 46.3C13.5 38.8 13.5 31.2 13.5 23.7C13.5 23.5 13.5 23.3 13.5 23.1C13.5 22 12.8 21.4 11.8 21.1C9.2 20.3 7.3 18.5 6.1 16.1C6.1 16 6 15.8 6 15.7C6 15.7 6 15.6 6 15.5ZM17.1 32.4C17.1 33.8 18.1 34.9 19.5 34.9C20.8 34.9 22 33.8 22 32.4C22 31 20.9 29.9 19.5 29.8C18.3 29.9 17 30.9 17.1 32.4Z" fill="white"/>
<path d="M38.1 32.4C38.1 33.6 37 34.7 35.8 34.7C34.6 34.7 33.5 33.6 33.5 32.3C33.5 31.1 34.6 30 35.8 30C37.1 30.1 38.3 31.3 38.1 32.4Z" fill="white"/>
<path d="M17.1 32.4C17 30.9 18.3 29.9 19.5 29.9C20.9 29.9 22 31.1 22 32.5C22 33.9 20.8 35 19.5 35C18.1 34.9 17.1 33.8 17.1 32.4Z" fill="black"/>
<path d="M109.8 58.3C109.9 58.3 109.9 58.3 109.8 58.3C110 58.3 110 58.3 110.1 58.3C110.2 58.3 110.4 58.2 110.5 58.2C110.6 58.1 110.6 58.1 110.7 58C111.8 57.3 111.7 56.2 111.7 55.1C111.7 50.1 111.7 45 111.7 40C111.7 38.4 111.5 36.8 111 35.2C109.2 29.7 104.1 25.7 98.1 25.7C91.7 25.6 85.3 25.6 78.9 25.6C67.9 25.6 56.9 25.6 46 25.5C45.9 25.5 45.7 25.5 45.6 25.5C45.4 25.5 45.3 25.4 45.1 25.4C44.9 24.9 45.1 24.6 45.6 24.4C45.8 24.3 45.9 24.3 46.1 24.2C49.1 22.7 51.2 20.2 52.5 17.1C53 16 53.4 14.8 53.5 13.6C53.5 12.2 52.8 11.4 51.4 11.4C48.7 11.4 46 11.4 43.3 11.3C43 11.3 42.8 11.3 42.5 11.3C42.5 11 42.5 10.8 42.5 10.5C42.5 9.19997 42.5 7.89997 42.5 6.69997C42.5 6.09997 42.4 5.49997 42.3 4.99997C41.6 2.49997 39.1 0.799974 36.2 1.39997C34.2 1.79997 32.4 3.69997 32.3 5.69997C32.2 7.29997 32.2 8.89997 32.2 10.5C32.2 10.8 32.2 11.1 32.2 11.3H22.7C22.7 11 22.7 10.7 22.7 10.4C22.7 8.99997 22.7 7.59997 22.7 6.19997C22.6 2.79997 19.3 0.299974 15.8 1.49997C13.7 2.19997 12.3 4.29997 12.3 6.59997C12.3 7.89997 12.3 9.19997 12.3 10.5C12.3 10.8 12.3 11 12.3 11.3C12 11.3 11.7 11.3 11.4 11.3C8.70003 11.3 6.00003 11.3 3.30003 11.4C2.00003 11.4 1.20003 12.2 1.30003 13.5C1.40003 14.3 1.60003 15.1 1.80003 15.8C3.00003 19.5 5.30003 22.4 8.80003 24.2C9.50003 24.6 9.70003 24.9 9.70003 25.7C9.70003 32.8 9.70003 39.8 9.70003 46.9C9.70003 47.9 9.80003 48.9 10.1 49.8C11.5 54.4 14.5 57.3 19.1 58.2C19.2 58.2 19.3 58.3 19.4 58.3H19.5C19.5 58.3 19.6 58.3 19.7 58.3C19.8 58.3 19.9 58.3 19.9 58.4C20 58.4 20.1 58.4 20.2 58.4C20.6 58.4 20.9 58.4 21.3 58.4C21.4 58.4 21.5 58.4 21.6 58.4C22.2 58.4 22.8 58.4 23.4 58.4C23.6 58.4 23.7 58.4 23.9 58.4H31.2C31.3 58.4 31.4 58.4 31.5 58.4C32.5 58.4 33.1 58.9 33.6 59.7C33.8 60.2 34.1 60.8 34.1 61.4C34.1 61.5 34.1 61.5 34.1 61.6C34.1 62 34.1 62.5 34.1 62.9C34.1 63 34.1 63 34.1 63.1C34.2 64.7 34.2 66.4 34.3 68C34.4 70.5 34.5 73 34.6 75.5C34.7 77.4 34.7 79.3 34.7 81.2C34.8 83.1 36.1 84.5 37.8 84.6C41.8 84.6 45.7 84.6 49.7 84.6C51.1 84.6 52.3 83.6 52.6 82.2C53 80.5 53.4 78.7 53.7 77C54.1 75.2 54.5 73.5 54.9 71.7C55.1 71.7 55.1 71.6 55.2 71.6C63.4 71.6 71.5 71.6 79.7 71.6C80.2 71.6 80.3 71.8 80.4 72.2C80.6 73.3 80.9 74.4 81.1 75.6C81.6 77.7 82 79.9 82.5 82C82.8 83.4 84.1 84.6 85.5 84.7C89.5 84.7 93.4 84.7 97.4 84.7C99 84.7 100.4 83.3 100.5 81.6C100.6 79.6 100.7 77.6 100.8 75.5C100.9 73 101.1 70.5 101.2 67.9C101.3 66.4 101.3 65 101.4 63.5C101.5 60.9 101.7 58.4 101.8 55.8C102 53 102.1 50.1 102.2 47.3C102.3 44.9 102.5 42.5 102.5 40.1C102.5 36.6 101.3 33.5 99.2 30.9C99.1 30.8 99 30.6 98.9 30.4C99.1 30.4 99.2 30.4 99.3 30.4C103.6 31 107 35 107 39.4C107 44.7 107 49.9 107 55.2C107 56.2 107.1 57.2 107.9 57.9C108.7 58.2 109.2 58.3 109.8 58.3ZM36.1 6.49997C36.1 5.89997 36.7 5.29997 37.3 5.29997C37.8 5.29997 38.5 5.69997 38.5 6.29997C38.5 7.99997 38.5 9.59997 38.5 11.3H36.1C36.1 9.59997 36.1 7.99997 36.1 6.49997ZM35.9 30.1C37.1 30.1 38.3 31.3 38.2 32.5C38.2 33.7 37.1 34.8 35.9 34.8C34.7 34.8 33.6 33.7 33.6 32.4C33.6 31.2 34.7 30.1 35.9 30.1ZM16.2 6.79997C16.2 6.49997 16.2 6.19997 16.4 5.99997C16.6 5.49997 17.2 5.19997 17.6 5.29997C18.2 5.39997 18.6 5.89997 18.6 6.49997C18.6 7.99997 18.6 9.49997 18.6 11C18.6 11.1 18.6 11.1 18.5 11.3H16.3C16.3 11.1 16.2 11 16.2 10.8C16.2 9.49997 16.2 8.09997 16.2 6.79997ZM36.6 53.8C35.5 54.3 34.4 54.5 33.2 54.5C29.4 54.5 25.5 54.5 21.7 54.5C19.9 54.5 18.2 54.2 16.7 53.1C14.5 51.5 13.5 49.2 13.5 46.4C13.5 38.9 13.5 31.3 13.5 23.8C13.5 23.6 13.5 23.4 13.5 23.2C13.5 22.1 12.8 21.5 11.8 21.2C9.20003 20.4 7.30003 18.6 6.10003 16.2C6.10003 16 6.00003 15.8 6.00003 15.7C6.00003 15.7 6.00003 15.6 6.00003 15.5H25C25 15.9 25 16.3 25 16.7C25 18.4 24.9 20.1 25 21.8C25.3 24.9 26.1 27.9 27.4 30.8C28.6 33.4 30.1 35.7 32.1 37.7C34.5 40.2 37.4 42.1 40.8 43.1C41.1 43.2 41.2 43.3 41.2 43.6C41.1 45.2 41.4 46.7 41 48.3C40.5 50.9 39 52.7 36.6 53.8ZM98.2 41.4C98 43.9 97.9 46.4 97.8 48.9C97.6 52.1 97.5 55.3 97.3 58.5C97.1 62.1 96.9 65.8 96.7 69.4C96.6 71.6 96.4 73.8 96.3 76C96.2 77.4 96.1 78.7 96 80.2H86.8C85.7 75.9 84.9 71.6 83.8 67.2C83.5 67.2 83.3 67.1 83.1 67.1C72.7 67.1 62.3 67.1 52 67.1C51.2 67.1 51.2 67.2 51 67.9C50.6 69.8 50.1 71.8 49.7 73.7C49.3 75.5 48.9 77.4 48.5 79.2C48.3 80.1 48.3 80.1 47.5 80.1C44.9 80.1 42.4 80.1 39.9 80.1C39.1 80.1 39.1 80.1 39.1 79.2C39.1 74.2 39 69.2 39 64.3C39 62.1 39 59.9 38.9 57.7C38.9 57.2 39 56.9 39.5 56.7C42 55.2 43.8 53 44.7 50.1C45 49.2 45.1 48.3 45.1 47.4C45.1 42 45.1 36.6 45.1 31.2C45.1 31 45.1 30.8 45.1 30.6C45.1 30.2 45.3 30.1 45.6 30.1C45.8 30.1 46 30.1 46.2 30.1C49.5 30.1 52.7 30.1 56 30.1H87.2V30.2C88.8 30.2 90.3 30.2 91.9 30.2C92.4 30.2 92.8 30.4 93.1 30.8C93.8 31.6 94.4 32.3 95.1 33C97.3 35.3 98.5 38.1 98.2 41.4Z" fill="black"/>
<path d="M109.9 59.6H109.8C109.2 59.6 108.4 59.5 107.6 59.1L107.1 58.9L107 58.6C106.1 57.6 106 56.3 106 55.2C106 50.5 106 45.8 106 41.1V39.4C106 36.6 104.4 34 102 32.6C103.3 35 104 37.5 103.9 40.2C103.9 41.9 103.8 43.6 103.7 45.2C103.7 46 103.6 46.7 103.6 47.5L103.5 50.5C103.4 52.4 103.3 54.2 103.2 56.1C103.1 57.6 103 59 102.9 60.5C102.8 61.6 102.8 62.7 102.7 63.8C102.7 64.6 102.6 65.4 102.6 66.2C102.6 66.9 102.5 67.5 102.5 68.2C102.4 69.7 102.3 71.1 102.3 72.6L102 77.2C101.9 78.7 101.8 80.3 101.8 81.8C101.7 84.1 99.7 86 97.5 86C93.5 86 89.6 86 85.6 86C83.6 86 81.8 84.4 81.4 82.4C81.1 81 80.8 79.5 80.5 78.1L79.9 75.4C79.7 74.6 79.6 73.9 79.4 73.1C73.3 73.1 67.3 73.1 61.3 73.1H56L55.8 73.8C55.5 75 55.2 76.2 55 77.5C54.9 78.2 54.7 78.8 54.6 79.5C54.4 80.6 54.1 81.6 53.9 82.7C53.4 84.7 51.7 86.1 49.8 86.1C47.7 86.1 45.7 86.1 43.7 86.1C41.7 86.1 39.8 86.1 37.9 86.1C35.5 86.1 33.6 84.1 33.6 81.5C33.6 80.6 33.6 79.6 33.5 78.7C33.5 77.7 33.5 76.8 33.4 75.8C33.4 74.1 33.3 72.4 33.2 70.7L32.9 63.2V63.1C32.9 62.7 32.9 62.3 32.9 61.9V61.8V61.6C32.9 61.4 32.8 61.1 32.5 60.4C32.3 60 32 59.8 31.5 59.8H31.4C31.3 59.8 31.2 59.8 31.2 59.8H30.1H23.9C23.8 59.8 23.6 59.8 23.5 59.8H23.4H23C22.5 59.8 22 59.8 21.5 59.8C21.4 59.8 21.4 59.8 21.3 59.8C20.9 59.8 20.5 59.8 20.2 59.8L19.4 59.7L18.9 59.5C13.9 58.5 10.5 55.4 8.99998 50.3C8.69998 49.4 8.59998 48.3 8.59998 47C8.59998 40.2 8.59998 33.1 8.59998 25.8C8.59998 25.6 8.59998 25.5 8.59998 25.5C8.59998 25.5 8.49998 25.5 8.39998 25.4C4.69998 23.5 2.19998 20.5 0.79998 16.3C0.49998 15.5 0.29998 14.6 0.19998 13.7C0.0999803 12.8 0.39998 11.9 0.99998 11.3C1.59998 10.7 2.49998 10.3 3.39998 10.3C5.39998 10.3 7.39998 10.3 9.39998 10.3H11.2V9.89999C11.2 8.79999 11.2 7.69999 11.2 6.69999C11.2 3.79999 12.9 1.29999 15.5 0.399988C17.5 -0.300012 19.6 -1.23978e-05 21.3 1.19999C22.9 2.39999 23.9 4.19999 24 6.19999C24 7.19999 24 8.19999 24 9.09999C24 9.39999 24 9.69999 24 10.1H31.1C31.1 9.69999 31.1 9.29999 31.1 8.89999C31.1 7.79999 31.1 6.69999 31.2 5.59999C31.3 2.99999 33.4 0.699988 36 0.0999876C39.3 -0.600012 42.6 1.39999 43.5 4.59999C43.7 5.19999 43.7 5.79999 43.8 6.59999C43.8 7.49999 43.8 8.29999 43.8 9.19999C43.8 9.49999 43.8 9.79999 43.8 9.99999H46.7C48.3 9.99999 49.9 9.99999 51.5 9.99999C52.5 9.99999 53.4 10.3 54 10.9C54.6 11.5 54.9 12.4 54.8 13.4C54.8 14.9 54.2 16.2 53.7 17.4C52.5 20.2 50.7 22.4 48.4 24H56C63.7 24 71.3 24 79 24C86.1 24 92.1 24 98.2 24.1C104.6 24.2 110.2 28.3 112.2 34.5C112.7 36 112.9 37.7 113 39.7C113 42.8 113 45.9 113 49C113 50.9 113 52.9 113 54.8C113 55.6 113 56.6 112.5 57.5L109.9 59.6ZM35.3 63.3L35.6 70.5C35.7 72.2 35.7 73.9 35.8 75.6C35.8 76.6 35.8 77.5 35.9 78.5C35.9 79.4 35.9 80.4 36 81.3C36 82.5 36.9 83.4 37.9 83.5C41.6 83.5 45.5 83.5 49.8 83.5C50.6 83.5 51.4 82.9 51.6 82C51.8 80.9 52.1 79.9 52.3 78.8C52.4 78.1 52.6 77.4 52.7 76.8C53 75.6 53.3 74.4 53.5 73.1L54 70.8L54.8 70.6C54.9 70.6 55.1 70.5 55.3 70.5H61.3C67.5 70.5 73.6 70.5 79.8 70.5C80.8 70.5 81.5 71.1 81.7 72.1C81.9 73 82.1 73.9 82.3 74.7L82.9 77.4C83.2 78.9 83.5 80.3 83.8 81.8C84 82.7 84.8 83.5 85.7 83.5C89.7 83.5 93.6 83.5 97.6 83.5C98.5 83.5 99.4 82.6 99.5 81.6C99.6 80.1 99.7 78.5 99.7 77L100 72.4C100.1 70.9 100.2 69.5 100.2 68C100.2 67.3 100.3 66.7 100.3 66C100.3 65.2 100.4 64.4 100.4 63.6C100.5 62.5 100.5 61.4 100.6 60.3C100.7 58.8 100.8 57.4 100.9 55.9C101 54 101.1 52.2 101.2 50.3L101.3 47.3C101.3 46.5 101.4 45.8 101.4 45C101.5 43.4 101.6 41.7 101.6 40.1C101.6 37.1 100.6 34.2 98.6 31.7C98.5 31.6 98.4 31.4 98.3 31.3L97 29.4L99.2 29.2C99.3 29.2 99.5 29.2 99.7 29.2C104.5 29.9 108.5 34.4 108.5 39.4V41.1C108.5 45.8 108.5 50.5 108.5 55.2C108.5 56 108.6 56.5 108.9 56.9C109.1 57 109.3 57 109.5 57H109.9H110C110 57 110 57 110.1 57H110.2C110.7 56.7 110.7 56.3 110.7 55.2C110.7 53.2 110.7 51.3 110.7 49.3C110.7 46.2 110.7 43.1 110.7 40C110.7 38.3 110.5 36.9 110.1 35.6C108.4 30.5 103.7 27 98.4 26.9C92.3 26.8 86.3 26.8 79.2 26.8C71.5 26.8 63.9 26.8 56.2 26.8H46.3H46C45.8 26.8 45.7 26.8 45.5 26.8C45.3 26.8 45.2 26.7 45 26.7L44.2 26.5L44 25.8C43.6 24.7 44.1 23.7 45.2 23.3C45.3 23.2 45.5 23.2 45.6 23.1C48.2 21.7 50.2 19.6 51.5 16.6C51.9 15.6 52.3 14.6 52.4 13.6C52.4 13.2 52.4 13 52.2 12.9C52.1 12.8 51.8 12.7 51.5 12.7C49.9 12.7 48.3 12.7 46.7 12.7H43.4C43.2 12.7 43 12.7 42.8 12.7L41.4 12.6L41.3 11.2C41.3 11 41.3 10.8 41.3 10.6C41.3 10.2 41.3 9.69999 41.3 9.29999C41.3 8.49999 41.3 7.59999 41.3 6.79999C41.3 6.39999 41.3 5.79999 41.1 5.39999C40.6 3.69999 38.8 2.19999 36.4 2.59999C34.9 2.89999 33.5 4.39999 33.4 5.79999C33.3 6.79999 33.3 7.89999 33.3 8.99999C33.3 9.49999 33.3 9.99999 33.3 10.5C33.3 10.7 33.3 10.9 33.2 11.1L33.1 12.5H21.4V10.4C21.4 9.99999 21.4 9.49999 21.4 9.09999C21.4 8.19999 21.4 7.19999 21.4 6.29999C21.4 4.99999 20.8 3.89999 19.7 3.19999C18.7 2.49999 17.3 2.29999 16.1 2.69999C14.5 3.19999 13.5 4.79999 13.5 6.59999C13.5 7.69999 13.5 8.79999 13.5 9.89999V10.6C13.5 10.8 13.5 11 13.5 11.2L13.4 12.6H9.29998C7.29998 12.6 5.29998 12.6 3.29998 12.6C2.99998 12.6 2.79998 12.7 2.59998 12.8C2.49998 12.9 2.49998 13.2 2.49998 13.4C2.49998 14.1 2.79998 14.8 2.99998 15.4C4.09998 18.9 6.29998 21.5 9.29998 23C10.4 23.6 10.9 24.4 10.9 25.6C10.9 32.9 10.9 40 10.9 46.8C10.9 47.8 11 48.7 11.2 49.4C12.5 53.6 15.1 56.1 19.3 56.9C19.5 56.9 19.7 57 19.8 57.1C19.8 57.1 19.8 57.1 19.9 57.1H20C20.1 57.1 20.1 57.1 20.2 57.1C20.5 57.1 20.8 57.1 21.2 57.1C21.2 57.1 21.3 57.1 21.4 57.1C21.9 57.1 22.4 57.1 23 57.1H23.2C23.4 57.1 23.6 57.1 23.8 57.1H32.3V57.2C33.3 57.4 34.1 58.1 34.6 59.1C34.8 59.6 35.2 60.4 35.2 61.2C35.2 61.3 35.2 61.4 35.2 61.6C35.2 62 35.2 62.4 35.2 62.8C35.3 63.1 35.3 63.2 35.3 63.3ZM19.3 59.6C19.3 59.6 19.4 59.6 19.3 59.6V59.6ZM39.9 81.5C38.4 81.5 37.9 80.9 37.9 79.4L37.8 63.6C37.8 61.7 37.8 59.7 37.7 57.8C37.7 56.9 38.1 56.2 38.9 55.7C41.2 54.3 42.8 52.3 43.6 49.8C43.8 49.1 43.9 48.3 43.9 47.4C43.9 43.3 43.9 39.3 43.9 35.2V31.1V31C43.9 30.9 43.9 30.8 43.9 30.6C43.9 29.9 44.1 29.5 44.4 29.3C44.6 29.1 45 28.8 45.7 28.8H48.2C50.5 28.8 52.8 28.8 55.2 28.8H56H88.4V29C89.5 29 90.7 29 91.8 29C92.7 29 93.4 29.3 93.9 30C94.5 30.7 95.2 31.4 95.9 32.2C98.5 34.8 99.7 38 99.4 41.6C99.3 43.3 99.2 45.1 99.1 46.8L98.5 58.6C98.3 62.2 98.1 65.9 97.9 69.5C97.8 71.3 97.7 73.1 97.6 75L97.2 81.5H86L85.8 80.6C85.2 78.3 84.7 75.9 84.2 73.6C83.8 71.9 83.4 70.2 83 68.5C72.8 68.5 62.6 68.5 52.3 68.5C52 69.7 51.8 70.9 51.5 72.1L50.9 74.6C50.5 76.3 50.1 78 49.7 79.8C49.4 81.2 48.9 81.6 47.5 81.6L39.9 81.5ZM40.2 57.8C40.2 59.8 40.2 61.7 40.3 63.6V79H47.4C47.8 77.3 48.2 75.6 48.5 73.9L49.1 71.4C49.4 70.2 49.7 69 49.9 67.7C50.2 66.5 50.6 65.9 52 65.9C62.4 65.9 72.8 65.9 83.1 65.9C83.3 65.9 83.5 65.9 83.7 65.9L84.8 66L85 66.9C85.5 68.9 85.9 70.9 86.4 72.9C86.8 74.9 87.3 76.9 87.8 78.9H95L95.3 74.7C95.4 72.9 95.5 71.1 95.6 69.3C95.8 65.7 96 62 96.2 58.4L96.8 46.6C96.9 44.8 97 43.1 97.1 41.3C97.3 38.4 96.4 36 94.3 33.8C93.6 33 92.8 32.3 92.2 31.5C92.1 31.4 92.1 31.4 91.9 31.4C90.3 31.4 88.8 31.4 87.2 31.4H86V31.3H56.1C53.5 31.3 50.9 31.3 48.3 31.3H46.5V35.3C46.5 39.4 46.5 43.4 46.5 47.5C46.5 48.6 46.3 49.7 46 50.6C44.9 53.7 43 56.1 40.2 57.8ZM21.7 55.7C19.4 55.7 17.6 55.2 16 54C13.5 52.2 12.3 49.6 12.2 46.3C12.2 41 12.2 35.7 12.2 30.5V23.5C12.2 23.4 12.2 23.2 12.2 23.1C12.2 22.8 12.1 22.5 11.4 22.3C8.59998 21.4 6.49998 19.5 4.99998 16.7C4.89998 16.5 4.79998 16.3 4.79998 16.1C4.69998 15.8 4.69998 15.5 4.79998 15.4L4.99998 14.4L5.99998 14.3H26.2V16.7C26.2 17.2 26.2 17.8 26.2 18.3C26.2 19.5 26.2 20.6 26.3 21.7C26.5 24.5 27.3 27.4 28.6 30.2C29.7 32.7 31.2 35 33 36.8C35.5 39.4 38.1 41 41.1 41.9C42.4 42.3 42.4 43.3 42.4 43.6C42.4 44.1 42.4 44.6 42.4 45.1C42.4 46.2 42.5 47.3 42.2 48.5C41.6 51.4 39.8 53.5 37.1 54.8C36 55.3 34.8 55.6 33.2 55.6H29C26.6 55.6 24.2 55.6 21.7 55.7ZM7.89998 16.7C8.99998 18.3 10.4 19.4 12.2 19.9C14.3 20.6 14.7 22.1 14.7 23C14.7 23.2 14.7 23.4 14.7 23.5V30.4C14.7 35.7 14.7 40.9 14.7 46.2C14.7 48.6 15.6 50.5 17.4 51.9C18.5 52.7 19.9 53.1 21.7 53.1C24.1 53.1 26.6 53.1 29 53.1H33.2C34.4 53.1 35.3 52.9 36.1 52.6C38.1 51.7 39.4 50.2 39.8 48C40 47.1 40 46.2 39.9 45.2C39.9 44.9 39.9 44.5 39.9 44.2C36.7 43.2 33.8 41.3 31.2 38.6C29.2 36.6 27.6 34.1 26.3 31.3C24.9 28.2 24.1 25.1 23.8 21.9C23.7 20.7 23.7 19.4 23.7 18.3C23.7 17.8 23.7 17.3 23.7 16.8H7.89998V16.7ZM35.9 36C35 36 34.1 35.6 33.4 34.9C32.7 34.2 32.4 33.3 32.4 32.4C32.4 30.5 34 28.9 35.9 28.9C36.9 28.9 37.9 29.4 38.5 30.2C39.1 30.9 39.4 31.8 39.3 32.6C39.3 34.4 37.7 36 35.9 36ZM35.8 31.3C35.3 31.3 34.8 31.8 34.8 32.4C34.8 32.6 34.9 32.9 35.1 33.1C35.3 33.3 35.6 33.5 35.9 33.5C36.4 33.5 36.9 33 36.9 32.4V32.3C36.9 32.1 36.8 31.9 36.7 31.7C36.5 31.5 36.1 31.3 35.8 31.3ZM19.5 12.6H15.3L15.1 11.5C15.1 11.4 15 11.2 15 10.9C15 9.49999 15 8.19999 15 6.79999C15 6.29999 15.1 5.79999 15.3 5.49999C15.7 4.49999 16.9 3.89999 17.9 4.09999C19.1 4.29999 19.9 5.29999 19.9 6.49999C19.9 7.69999 19.9 8.89999 19.9 9.99999V11C19.9 11.3 19.8 11.5 19.8 11.6L19.5 12.6ZM39.7 12.5H34.9V9.89999C34.9 8.69999 34.9 7.59999 34.9 6.49999C34.9 5.19999 35.9 4.19999 37.2 4.09999C37.8 4.09999 38.5 4.29999 39 4.69999C39.5 5.09999 39.7 5.69999 39.8 6.29999C39.8 7.49999 39.8 8.69999 39.8 9.89999L39.7 12.5Z" fill="black"/>
<path d="M95.0999 33C94.3999 32.3 93.6999 31.5 93.0999 30.8C92.7999 30.4 92.3999 30.2 91.8999 30.2C90.7999 30.2 89.6999 30.2 88.6999 30.2V30.1H58.5999C58.2999 30.1 58.0999 30.1 57.7999 30.1C53.8999 30.1 49.9999 30.1 46.0999 30.1C45.8999 30.1 45.6999 30.1 45.4999 30.1C45.0999 30.1 44.9999 30.3 44.9999 30.6C44.9999 30.8 44.9999 31 44.9999 31.2C44.9999 36.6 44.9999 42 44.9999 47.4C44.9999 48.3 44.8999 49.3 44.5999 50.1C43.6999 52.9 41.9999 55.1 39.3999 56.7C38.9999 57 38.7999 57.2 38.7999 57.7C38.7999 59.9 38.7999 62.1 38.8999 64.3C38.8999 69.3 38.9999 74.3 38.9999 79.2C38.9999 80 38.9999 80.1 39.7999 80.1C42.3999 80.1 44.8999 80.1 47.3999 80.1C48.1999 80.1 48.1999 80.1 48.3999 79.2C48.7999 77.4 49.1999 75.5 49.5999 73.7C49.9999 71.8 50.4999 69.8 50.8999 67.9C51.0999 67.1 51.0999 67.1 51.8999 67.1C62.2999 67.1 72.6999 67.1 82.9999 67.1C83.1999 67.1 83.4999 67.1 83.6999 67.2C84.6999 71.6 85.5999 75.9 86.6999 80.2C89.7999 80.2 92.7999 80.2 95.8999 80.2C95.9999 78.7 96.0999 77.4 96.1999 76C96.2999 73.8 96.4999 71.6 96.5999 69.4C96.7999 65.8 96.9999 62.1 97.1999 58.5C97.3999 55.3 97.4999 52.1 97.6999 48.9C97.7999 46.4 97.8999 43.9 98.0999 41.4C98.4999 38.1 97.2999 35.3 95.0999 33Z" fill="white"/>
<path d="M61.4 43.7C65.9 43.7 69.5999 40 69.5999 35.4C69.5999 30.8 66 27 61.4 27C56.9 27 53.2 30.7 53.2 35.3C53.2 39.9 56.9 43.7 61.4 43.7Z" fill="black"/>
<path d="M84.9 60.2C88.7 60.2 91.8 57.1 91.8 53.2C91.8 49.3 88.7 46.2 84.9 46.2C81.1 46.2 78 49.3 78 53.2C78 57.1 81.1 60.2 84.9 60.2Z" fill="black"/>
<path d="M61.5999 69.8C65.3999 69.7 69.1999 70.2 72.8999 70.7C72.9999 70.7 73.0999 70.7 73.1999 70.7C73.2999 70.1 73.2999 69.6 73.2999 69C73.2999 62.8 68.3999 57.8 62.2999 57.8C56.1999 57.8 51.2999 62.8 51.2999 69C51.2999 70.1 51.4999 71.1 51.6999 72.1C54.2999 69.6 58.2999 69.9 61.5999 69.8Z" fill="black"/>
<path d="M66.8 26.5C66.5 26.5 66.3 26.5 66.1 26.4C65.1 27.5 64.6 28.7 64.6 30.1C64.6 33.8 68.7 36.8 73.8 36.8C78.9 36.8 83 33.8 83 30.1C83 28.8 82.5 27.5 81.6 26.5H66.8Z" fill="black"/>
<path d="M33.6 32.4C33.5 30.9 34.8 29.9 36 29.9C37.4 29.9 38.5 31.1 38.5 32.5C38.5 33.9 37.3 35 36 35C34.6 34.9 33.6 33.8 33.6 32.4Z" fill="white"/>
<path d="M18.8 10.2C17.7 10.2 16.6 10.2 15.5 10.2C15.5 10 15.4 9.8 15.4 9.6C15.4 7.9 15.4 8.4 15.4 6.6C15.4 6.2 15.5 5.8 15.6 5.5C15.9 4.9 16.8 4.5 17.4 4.6C18.3 4.8 19 5.4 19 6.3C19 8.2 19 7.9 19 9.9C19 9.9 18.9 10 18.8 10.2Z" fill="white"/>
<path d="M39 10.2C37.9 10.2 36.8 10.2 35.7 10.2C35.7 10 35.6 9.8 35.6 9.6C35.6 7.9 35.6 8.4 35.6 6.6C35.6 6.2 35.7 5.8 35.8 5.5C36.1 4.9 37 4.5 37.6 4.6C38.5 4.7 39.1 5.4 39.1 6.2C39.1 8.1 39.1 7.8 39.1 9.8C39.1 9.9 39 10 39 10.2Z" fill="white"/>
</g>
<defs>
<clipPath id="clip0_544_1675">
<rect width="113" height="86" fill="white"/>
</clipPath>
</defs>
</svg>
