<svg width="241" height="129" viewBox="0 0 241 129" fill="none" xmlns="http://www.w3.org/2000/svg">
<path d="M167.734 5H21.2656C11.7301 5 4 12.7193 4 22.2415V49.7585C4 59.2807 11.7301 67 21.2656 67H167.734C177.27 67 185 59.2807 185 49.7585V22.2415C185 12.7193 177.27 5 167.734 5Z" fill="#E99E05"/>
<path d="M167.734 4H21.2656C11.7301 4 4 11.8438 4 21.5196V49.4804C4 59.1562 11.7301 67 21.2656 67H167.734C177.27 67 185 59.1562 185 49.4804V21.5196C185 11.8438 177.27 4 167.734 4Z" fill="#E99E05"/>
<path d="M167.734 4H21.2656C11.7301 4 4 11.7193 4 21.2415V48.7585C4 58.2807 11.7301 66 21.2656 66H167.734C177.27 66 185 58.2807 185 48.7585V21.2415C185 11.7193 177.27 4 167.734 4Z" fill="#E99E05"/>
<path d="M167.639 4H20.361C10.7728 4 3 11.7193 3 21.2415V48.7585C3 58.2807 10.7728 66 20.361 66H167.639C177.227 66 185 58.2807 185 48.7585V21.2415C185 11.7193 177.227 4 167.639 4Z" fill="#E99E05"/>
<path d="M167.639 4H20.361C10.7728 4 3 11.7193 3 21.2415V48.7585C3 58.2807 10.7728 66 20.361 66H167.639C177.227 66 185 58.2807 185 48.7585V21.2415C185 11.7193 177.227 4 167.639 4Z" fill="#E99E05"/>
<path d="M167.639 4H20.361C10.7728 4 3 11.7193 3 21.2415V48.7585C3 58.2807 10.7728 66 20.361 66H167.639C177.227 66 185 58.2807 185 48.7585V21.2415C185 11.7193 177.227 4 167.639 4Z" fill="#E99E05"/>
<path d="M167.639 4H20.361C10.7728 4 3 11.7193 3 21.2415V48.7585C3 58.2807 10.7728 66 20.361 66H167.639C177.227 66 185 58.2807 185 48.7585V21.2415C185 11.7193 177.227 4 167.639 4Z" fill="#E99E05"/>
<path d="M167.639 4H20.361C10.7728 4 3 11.7193 3 21.2415V48.7585C3 58.2807 10.7728 66 20.361 66H167.639C177.227 66 185 58.2807 185 48.7585V21.2415C185 11.7193 177.227 4 167.639 4Z" fill="#E99E05"/>
<path d="M167.639 4H20.361C10.7728 4 3 11.7193 3 21.2415V48.7585C3 58.2807 10.7728 66 20.361 66H167.639C177.227 66 185 58.2807 185 48.7585V21.2415C185 11.7193 177.227 4 167.639 4Z" fill="#E99E05"/>
<path d="M166.734 3H20.2656C10.7301 3 3 10.8438 3 20.5196V48.4804C3 58.1562 10.7301 66 20.2656 66H166.734C176.27 66 184 58.1562 184 48.4804V20.5196C184 10.8438 176.27 3 166.734 3Z" fill="#E99E05"/>
<path d="M166.734 3H20.2656C10.7301 3 3 10.8438 3 20.5196V48.4804C3 58.1562 10.7301 66 20.2656 66H166.734C176.27 66 184 58.1562 184 48.4804V20.5196C184 10.8438 176.27 3 166.734 3Z" fill="#E99E05"/>
<path d="M166.734 3H20.2656C10.7301 3 3 10.8438 3 20.5196V48.4804C3 58.1562 10.7301 66 20.2656 66H166.734C176.27 66 184 58.1562 184 48.4804V20.5196C184 10.8438 176.27 3 166.734 3Z" fill="#E99E05"/>
<path d="M166.639 3H19.361C9.7728 3 2 10.8438 2 20.5196V48.4804C2 58.1562 9.7728 66 19.361 66H166.639C176.227 66 184 58.1562 184 48.4804V20.5196C184 10.8438 176.227 3 166.639 3Z" fill="#E99E05"/>
<path d="M166.639 3H19.361C9.7728 3 2 10.7193 2 20.2415V47.7585C2 57.2807 9.7728 65 19.361 65H166.639C176.227 65 184 57.2807 184 47.7585V20.2415C184 10.7193 176.227 3 166.639 3Z" fill="#E99E05"/>
<path d="M166.639 3H19.361C9.7728 3 2 10.7193 2 20.2415V47.7585C2 57.2807 9.7728 65 19.361 65H166.639C176.227 65 184 57.2807 184 47.7585V20.2415C184 10.7193 176.227 3 166.639 3Z" fill="#E99E05"/>
<path d="M166.639 3H19.361C9.7728 3 2 10.7193 2 20.2415V47.7585C2 57.2807 9.7728 65 19.361 65H166.639C176.227 65 184 57.2807 184 47.7585V20.2415C184 10.7193 176.227 3 166.639 3Z" fill="#E99E05"/>
<path d="M166.639 2H19.361C9.7728 2 2 9.84378 2 19.5196V47.4804C2 57.1562 9.7728 65 19.361 65H166.639C176.227 65 184 57.1562 184 47.4804V19.5196C184 9.84378 176.227 2 166.639 2Z" fill="#E99E05"/>
<path d="M165.734 2H19.2656C9.73009 2 2 9.84378 2 19.5196V47.4804C2 57.1562 9.73009 65 19.2656 65H165.734C175.27 65 183 57.1562 183 47.4804V19.5196C183 9.84378 175.27 2 165.734 2Z" fill="#E99E05"/>
<path d="M165.734 2H19.2656C9.73009 2 2 9.84378 2 19.5196V47.4804C2 57.1562 9.73009 65 19.2656 65H165.734C175.27 65 183 57.1562 183 47.4804V19.5196C183 9.84378 175.27 2 165.734 2Z" fill="#E99E05"/>
<path d="M165.734 2H19.2656C9.73009 2 2 9.84378 2 19.5196V47.4804C2 57.1562 9.73009 65 19.2656 65H165.734C175.27 65 183 57.1562 183 47.4804V19.5196C183 9.84378 175.27 2 165.734 2Z" fill="#E99E05"/>
<path d="M165.639 2H18.361C8.7728 2 1 9.71927 1 19.2415V46.7585C1 56.2807 8.7728 64 18.361 64H165.639C175.227 64 183 56.2807 183 46.7585V19.2415C183 9.71927 175.227 2 165.639 2Z" fill="#E99E05"/>
<path d="M165.639 2H18.361C8.7728 2 1 9.71927 1 19.2415V46.7585C1 56.2807 8.7728 64 18.361 64H165.639C175.227 64 183 56.2807 183 46.7585V19.2415C183 9.71927 175.227 2 165.639 2Z" fill="#E99E05"/>
<path d="M165.639 2H18.361C8.7728 2 1 9.71927 1 19.2415V46.7585C1 56.2807 8.7728 64 18.361 64H165.639C175.227 64 183 56.2807 183 46.7585V19.2415C183 9.71927 175.227 2 165.639 2Z" fill="#E99E05"/>
<path d="M165.639 1H18.361C8.7728 1 1 8.84378 1 18.5196V46.4804C1 56.1562 8.7728 64 18.361 64H165.639C175.227 64 183 56.1562 183 46.4804V18.5196C183 8.84378 175.227 1 165.639 1Z" fill="#E99E05"/>
<path d="M165.639 1H18.361C8.7728 1 1 8.84378 1 18.5196V46.4804C1 56.1562 8.7728 64 18.361 64H165.639C175.227 64 183 56.1562 183 46.4804V18.5196C183 8.84378 175.227 1 165.639 1Z" fill="#E99E05"/>
<path d="M165.639 1H18.361C8.7728 1 1 8.84378 1 18.5196V46.4804C1 56.1562 8.7728 64 18.361 64H165.639C175.227 64 183 56.1562 183 46.4804V18.5196C183 8.84378 175.227 1 165.639 1Z" fill="#E99E05"/>
<path d="M165.639 1H18.361C8.7728 1 1 8.84378 1 18.5196V46.4804C1 56.1562 8.7728 64 18.361 64H165.639C175.227 64 183 56.1562 183 46.4804V18.5196C183 8.84378 175.227 1 165.639 1Z" fill="#E99E05"/>
<path d="M165.639 1H18.361C8.7728 1 1 8.71927 1 18.2415V45.7585C1 55.2807 8.7728 63 18.361 63H165.639C175.227 63 183 55.2807 183 45.7585V18.2415C183 8.71927 175.227 1 165.639 1Z" fill="#E99E05"/>
<path d="M165.639 1H18.361C8.7728 1 1 8.71927 1 18.2415V45.7585C1 55.2807 8.7728 63 18.361 63H165.639C175.227 63 183 55.2807 183 45.7585V18.2415C183 8.71927 175.227 1 165.639 1Z" fill="#E99E05"/>
<path d="M165.544 1H17.4564C7.81551 1 0 8.71927 0 18.2415V45.7585C0 55.2807 7.81551 63 17.4564 63H165.544C175.184 63 183 55.2807 183 45.7585V18.2415C183 8.71927 175.184 1 165.544 1Z" fill="#E99E05"/>
<path d="M164.639 0H17.361C7.7728 0 0 7.84378 0 17.5196V45.4804C0 55.1562 7.7728 63 17.361 63H164.639C174.227 63 182 55.1562 182 45.4804V17.5196C182 7.84378 174.227 0 164.639 0Z" fill="#E99E05"/>
<path d="M164.639 0H17.361C7.7728 0 0 7.84378 0 17.5196V45.4804C0 55.1562 7.7728 63 17.361 63H164.639C174.227 63 182 55.1562 182 45.4804V17.5196C182 7.84378 174.227 0 164.639 0Z" fill="#E99E05"/>
<path d="M164.639 0H17.361C7.7728 0 0 7.84378 0 17.5196V45.4804C0 55.1562 7.7728 63 17.361 63H164.639C174.227 63 182 55.1562 182 45.4804V17.5196C182 7.84378 174.227 0 164.639 0Z" fill="#E99E05"/>
<path d="M164.639 0H17.361C7.7728 0 0 7.84378 0 17.5196V45.4804C0 55.1562 7.7728 63 17.361 63H164.639C174.227 63 182 55.1562 182 45.4804V17.5196C182 7.84378 174.227 0 164.639 0Z" fill="#E99E05"/>
<path d="M164.639 0H17.361C7.7728 0 0 7.71927 0 17.2415V44.7585C0 54.2807 7.7728 62 17.361 62H164.639C174.227 62 182 54.2807 182 44.7585V17.2415C182 7.71927 174.227 0 164.639 0Z" fill="#E99E05"/>
<path d="M164.639 0H17.361C7.7728 0 0 7.71927 0 17.2415V44.7585C0 54.2807 7.7728 62 17.361 62H164.639C174.227 62 182 54.2807 182 44.7585V17.2415C182 7.71927 174.227 0 164.639 0Z" fill="#E99E05"/>
<path d="M223.639 67H76.361C66.7728 67 59 74.7193 59 84.2415V111.759C59 121.281 66.7728 129 76.361 129H223.639C233.227 129 241 121.281 241 111.759V84.2415C241 74.7193 233.227 67 223.639 67Z" fill="#333333"/>
<path d="M223.639 66H76.361C66.7728 66 59 73.8438 59 83.5196V111.48C59 121.156 66.7728 129 76.361 129H223.639C233.227 129 241 121.156 241 111.48V83.5196C241 73.8438 233.227 66 223.639 66Z" fill="#303030"/>
<path d="M223.639 66H76.361C66.7728 66 59 73.8438 59 83.5196V111.48C59 121.156 66.7728 129 76.361 129H223.639C233.227 129 241 121.156 241 111.48V83.5196C241 73.8438 233.227 66 223.639 66Z" fill="#2E2E2E"/>
<path d="M223.544 66H75.4564C65.8155 66 58 73.8438 58 83.5196V111.48C58 121.156 65.8155 129 75.4564 129H223.544C233.184 129 241 121.156 241 111.48V83.5196C241 73.8438 233.184 66 223.544 66Z" fill="#2B2B2B"/>
<path d="M222.639 66H75.361C65.7728 66 58 73.7193 58 83.2415V110.759C58 120.281 65.7728 128 75.361 128H222.639C232.227 128 240 120.281 240 110.759V83.2415C240 73.7193 232.227 66 222.639 66Z" fill="#292929"/>
<path d="M222.639 66H75.361C65.7728 66 58 73.7193 58 83.2415V110.759C58 120.281 65.7728 128 75.361 128H222.639C232.227 128 240 120.281 240 110.759V83.2415C240 73.7193 232.227 66 222.639 66Z" fill="#262626"/>
<path d="M222.639 66H75.361C65.7728 66 58 73.7193 58 83.2415V110.759C58 120.281 65.7728 128 75.361 128H222.639C232.227 128 240 120.281 240 110.759V83.2415C240 73.7193 232.227 66 222.639 66Z" fill="#242424"/>
<path d="M222.639 66H75.361C65.7728 66 58 73.7193 58 83.2415V110.759C58 120.281 65.7728 128 75.361 128H222.639C232.227 128 240 120.281 240 110.759V83.2415C240 73.7193 232.227 66 222.639 66Z" fill="#212121"/>
<path d="M222.639 65H75.361C65.7728 65 58 72.7193 58 82.2415V109.759C58 119.281 65.7728 127 75.361 127H222.639C232.227 127 240 119.281 240 109.759V82.2415C240 72.7193 232.227 65 222.639 65Z" fill="#1F1F1F"/>
<path d="M221.734 65H75.2656C65.7301 65 58 72.7193 58 82.2415V109.759C58 119.281 65.7301 127 75.2656 127H221.734C231.27 127 239 119.281 239 109.759V82.2415C239 72.7193 231.27 65 221.734 65Z" fill="#1C1C1C"/>
<path d="M221.734 65H75.2656C65.7301 65 58 72.7193 58 82.2415V109.759C58 119.281 65.7301 127 75.2656 127H221.734C231.27 127 239 119.281 239 109.759V82.2415C239 72.7193 231.27 65 221.734 65Z" fill="#1A1A1A"/>
<path d="M221.639 65H74.361C64.7728 65 57 72.7193 57 82.2415V109.759C57 119.281 64.7728 127 74.361 127H221.639C231.227 127 239 119.281 239 109.759V82.2415C239 72.7193 231.227 65 221.639 65Z" fill="#171717"/>
<path d="M221.639 64H74.361C64.7728 64 57 71.7193 57 81.2415V108.759C57 118.281 64.7728 126 74.361 126H221.639C231.227 126 239 118.281 239 108.759V81.2415C239 71.7193 231.227 64 221.639 64Z" fill="#141414"/>
<path d="M221.639 64H74.361C64.7728 64 57 71.7193 57 81.2415V108.759C57 118.281 64.7728 126 74.361 126H221.639C231.227 126 239 118.281 239 108.759V81.2415C239 71.7193 231.227 64 221.639 64Z" fill="#121212"/>
<path d="M220.734 64H74.2656C64.7301 64 57 71.7193 57 81.2415V108.759C57 118.281 64.7301 126 74.2656 126H220.734C230.27 126 238 118.281 238 108.759V81.2415C238 71.7193 230.27 64 220.734 64Z" fill="#0F0F0F"/>
<path d="M220.734 64H74.2656C64.7301 64 57 71.7193 57 81.2415V108.759C57 118.281 64.7301 126 74.2656 126H220.734C230.27 126 238 118.281 238 108.759V81.2415C238 71.7193 230.27 64 220.734 64Z" fill="#0D0D0D"/>
<path d="M220.639 63H73.361C63.7728 63 56 70.7193 56 80.2415V107.759C56 117.281 63.7728 125 73.361 125H220.639C230.227 125 238 117.281 238 107.759V80.2415C238 70.7193 230.227 63 220.639 63Z" fill="#0A0A0A"/>
<path d="M220.639 63H73.361C63.7728 63 56 70.7193 56 80.2415V107.759C56 117.281 63.7728 125 73.361 125H220.639C230.227 125 238 117.281 238 107.759V80.2415C238 70.7193 230.227 63 220.639 63Z" fill="#080808"/>
<path d="M220.639 63H73.361C63.7728 63 56 70.7193 56 80.2415V107.759C56 117.281 63.7728 125 73.361 125H220.639C230.227 125 238 117.281 238 107.759V80.2415C238 70.7193 230.227 63 220.639 63Z" fill="#050505"/>
<path d="M219.734 63H73.2656C63.7301 63 56 70.7193 56 80.2415V107.759C56 117.281 63.7301 125 73.2656 125H219.734C229.27 125 237 117.281 237 107.759V80.2415C237 70.7193 229.27 63 219.734 63Z" fill="#030303"/>
<path d="M219.734 62H73.2656C63.7301 62 56 69.8438 56 79.5196V107.48C56 117.156 63.7301 125 73.2656 125H219.734C229.27 125 237 117.156 237 107.48V79.5196C237 69.8438 229.27 62 219.734 62Z" fill="black"/>
<path d="M219.734 62H73.2656C63.7301 62 56 69.8438 56 79.5196V107.48C56 117.156 63.7301 125 73.2656 125H219.734C229.27 125 237 117.156 237 107.48V79.5196C237 69.8438 229.27 62 219.734 62Z" fill="#231F20"/>
<path d="M164.639 0H17.361C7.7728 0 0 7.71927 0 17.2415V44.7585C0 54.2807 7.7728 62 17.361 62H164.639C174.227 62 182 54.2807 182 44.7585V17.2415C182 7.71927 174.227 0 164.639 0Z" fill="#FFCB0A"/>
<path d="M66 112V73H73.6703L89.6688 99.0429V73H97V112H89.0855L73.3312 86.5661V112H66Z" fill="#FFCB0A"/>
<path d="M105 112V73H134.247V79.597H112.96V88.2441H132.769V94.814H112.96V105.43H135V112H105Z" fill="#FFCB0A"/>
<path d="M195 99.3793L202.726 98.6239C203.181 101.233 204.125 103.152 205.559 104.379C207.192 105.672 209.237 106.324 211.312 106.212C213.874 106.212 215.803 105.667 217.1 104.578C217.693 104.134 218.177 103.559 218.514 102.897C218.852 102.235 219.033 101.503 219.045 100.76C219.067 99.8898 218.776 99.0412 218.226 98.3698C217.436 97.5593 216.451 96.9679 215.366 96.653C214.456 96.3326 212.336 95.758 209.005 94.9294C204.746 93.8672 201.759 92.5625 200.044 91.015C198.128 89.3701 196.875 87.0772 196.522 84.568C196.169 82.0587 196.739 79.5061 198.126 77.3905C199.325 75.5861 201.038 74.1883 203.04 73.38C205.502 72.4052 208.134 71.9381 210.78 72.0066C215.712 72.0066 219.427 73.0962 221.925 75.2754C223.164 76.3589 224.156 77.698 224.834 79.2017C225.513 80.7054 225.861 82.3385 225.857 83.9899L217.919 84.347C217.578 82.3097 216.847 80.847 215.728 79.9588C214.609 79.0661 212.937 78.5854 210.698 78.5854C208.459 78.5854 206.603 79.0661 205.279 80.0206C204.881 80.2904 204.557 80.6562 204.337 81.0845C204.116 81.5128 204.006 81.9899 204.016 82.4722C204.017 82.937 204.124 83.3953 204.329 83.8119C204.534 84.2286 204.831 84.5925 205.197 84.8757C206.198 85.7227 208.63 86.604 212.493 87.5196C215.452 88.1272 218.329 89.0838 221.065 90.3695C222.852 91.2868 224.356 92.6784 225.413 94.3937C226.504 96.3491 227.051 98.5645 226.996 100.806C226.941 103.048 226.286 105.234 225.099 107.132C223.829 109.125 221.973 110.668 219.789 111.548C217.057 112.587 214.149 113.077 211.23 112.99C206.257 112.99 202.437 111.834 199.771 109.522C197.104 107.21 195.514 103.829 195 99.3793Z" fill="#FFCB0A"/>
<path fill-rule="evenodd" clip-rule="evenodd" d="M170.847 88.2468C171.048 88.064 171.054 87.9421 170.847 87.7593C169.147 86.2155 167.452 84.6718 165.762 83.128C165.581 82.9635 165.447 82.9513 165.26 83.128L160.148 87.7898C160.081 87.8507 159.994 87.9116 160 88.0152C160.007 88.1188 160.114 88.192 160.201 88.2651C161.874 89.7946 163.547 91.312 165.22 92.8537C165.434 93.0426 165.574 93.0548 165.788 92.8537C167.468 91.3059 169.161 89.7763 170.847 88.2468Z" fill="#FFCB0A"/>
<path fill-rule="evenodd" clip-rule="evenodd" d="M156.776 102.697L161.704 97.9165C162.099 97.5265 162.099 97.5265 161.704 97.1298L152.707 88.3883C152.278 87.9647 152.278 87.9647 152.707 87.5478C155.72 84.625 158.735 81.7112 161.753 78.8063C162.036 78.5307 162.036 78.3693 161.753 78.0936C160.105 76.4999 158.479 74.8929 156.839 73.2925C156.437 72.9025 156.437 72.9025 156.043 73.2925L141.301 87.615C140.9 87.9983 140.9 88.005 141.301 88.395L152.105 98.8915L156.077 102.744C156.16 102.862 156.278 102.952 156.416 103C156.576 102.946 156.666 102.805 156.776 102.697Z" fill="#FFCB0A"/>
<path fill-rule="evenodd" clip-rule="evenodd" d="M170.341 77.9749C169.918 78.3858 169.918 78.3858 170.341 78.7899L179.393 87.5807C179.767 87.9445 179.774 87.9512 179.393 88.3082L175.779 91.8178C173.929 93.6142 172.08 95.4105 170.23 97.2068C170.029 97.4022 169.87 97.5638 170.154 97.8333C171.881 99.4971 173.622 101.168 175.314 102.838C175.377 102.923 175.472 102.981 175.578 103C175.73 103 175.821 102.852 175.918 102.757C180.87 97.9478 185.825 93.1404 190.781 88.3352C191.059 88.0657 191.087 87.9041 190.781 87.6211C185.825 82.816 180.875 78.0063 175.932 73.1921C175.654 72.9227 175.495 72.9496 175.238 73.1921C173.636 74.7886 171.985 76.4053 170.341 77.9749Z" fill="#FFCB0A"/>
<path fill-rule="evenodd" clip-rule="evenodd" d="M165.783 112.854L170.86 107.753C171.029 107.583 171.063 107.453 170.86 107.269L165.756 102.141C165.566 101.943 165.423 101.963 165.239 102.141C163.554 103.848 161.864 105.55 160.17 107.248C160.123 107.279 160.083 107.321 160.054 107.369C160.024 107.417 160.006 107.472 160 107.528C160.045 107.596 160.095 107.659 160.15 107.719L165.253 112.854C165.43 113.059 165.6 113.038 165.783 112.854Z" fill="#FFCB0A"/>
<path d="M31 8.01021H47.7107C50.1775 7.95876 52.6445 8.10175 55.09 8.43791C56.6514 8.69618 58.1394 9.30116 59.4505 10.2108C60.7691 11.1471 61.867 12.3751 62.6638 13.8047C63.5245 15.3313 63.9673 17.0691 63.9451 18.8335C63.9471 20.8059 63.393 22.7365 62.3501 24.3917C61.3071 26.0469 59.8199 27.3558 58.0685 28.16C60.3879 28.7664 62.4513 30.1349 63.9451 32.0574C65.3208 33.9164 66.0443 36.1994 65.9979 38.5349C65.988 40.5179 65.5286 42.4712 64.6562 44.2397C63.8399 46.0122 62.5921 47.5378 61.0337 48.6684C59.3483 49.8318 57.4015 50.5324 55.3785 50.7034C53.9697 50.8643 50.5752 50.9632 45.195 51H31V8.01021ZM39.4593 15.143V25.0833H44.9938C48.2809 25.0833 50.3248 25.0328 51.1253 24.9316C52.3991 24.8354 53.6021 24.2923 54.5332 23.3933C54.9515 22.9497 55.2774 22.4229 55.4908 21.8452C55.7042 21.2676 55.8007 20.6512 55.7742 20.0338C55.8256 18.8549 55.4423 17.6994 54.7009 16.7986C53.867 15.9045 52.7369 15.3653 51.5345 15.2879C50.7027 15.1913 48.2943 15.143 44.323 15.143H39.4593ZM39.4593 32.2368V43.7293H47.2545C49.188 43.7904 51.1232 43.7027 53.0439 43.4671C54.2269 43.2724 55.3091 42.666 56.1097 41.7495C56.9338 40.7281 57.3552 39.4258 57.2904 38.1003C57.3269 36.9347 57.0079 35.7865 56.378 34.8167C55.7315 33.883 54.8056 33.1925 53.7416 32.8507C52.5922 32.4368 50.0967 32.2322 46.255 32.2368H39.4593Z" fill="#231F20"/>
<path d="M71 37.3644L79.4556 36.5539C79.9668 39.3511 80.9984 41.4082 82.5504 42.725C84.1025 44.0419 86.2025 44.6981 88.8507 44.6936C91.6139 44.6936 93.7624 44.1078 95.1785 42.943C95.8267 42.4678 96.3556 41.8521 96.7245 41.1436C97.0934 40.4351 97.2924 39.6525 97.3062 38.8561C97.3317 37.9245 97.0153 37.015 96.4151 36.295C95.5472 35.4299 94.4703 34.797 93.2857 34.4559C92.2679 34.1063 89.9491 33.4887 86.3292 32.6032C81.6685 31.4634 78.3986 30.0648 76.5196 28.4074C75.2624 27.3587 74.2552 26.0495 73.5698 24.5731C72.8844 23.0967 72.5377 21.4894 72.5543 19.8658C72.5522 17.7052 73.2014 15.5927 74.4195 13.7968C75.7303 11.8623 77.6039 10.3641 79.7941 9.49873C82.4879 8.44079 85.3717 7.9333 88.2704 8.00702C93.6726 8.00702 97.7392 9.17632 100.47 11.5149C103.201 13.8535 104.636 16.9686 104.774 20.8603L96.0835 21.2417C95.7105 19.062 94.916 17.4886 93.6864 16.535C92.4567 15.5814 90.633 15.1046 88.1598 15.1046C85.6867 15.1046 83.6626 15.6154 82.2326 16.6371C81.7967 16.9271 81.4417 17.3205 81.2002 17.7811C80.9588 18.2417 80.8387 18.7548 80.851 19.2732C80.8523 19.7712 80.9694 20.2622 81.1934 20.7086C81.4173 21.155 81.7422 21.5447 82.1429 21.8479C83.2389 22.7561 85.9009 23.7029 90.1287 24.6883C94.3565 25.6737 97.4836 26.6909 99.5099 27.7398C101.464 28.7245 103.109 30.215 104.27 32.0515C105.459 34.1429 106.056 36.5116 105.996 38.9087C105.936 41.3059 105.223 43.6429 103.931 45.6744C102.548 47.8263 100.513 49.4944 98.1145 50.4424C95.1255 51.5603 91.9423 52.0857 88.747 51.9886C83.308 51.9886 79.1286 50.7489 76.2087 48.2696C73.2889 45.7902 71.5527 42.1551 71 37.3644Z" fill="#231F20"/>
<path d="M140.685 35.599L149 38.2415C147.723 42.8845 145.604 46.3327 142.641 48.586C139.679 50.8392 135.917 51.9772 131.355 52C125.721 52 121.087 50.0699 117.452 46.2098C113.817 42.3497 112 37.0716 112 30.3755C112 23.2971 113.817 17.7983 117.452 13.879C121.087 9.95965 125.887 8 131.853 8C137.046 8 141.265 9.53859 144.509 12.6158C146.444 14.4366 147.894 17.0495 148.857 20.4544L140.372 22.5028C139.977 20.4371 138.857 18.5815 137.214 17.2725C135.571 15.9634 133.514 15.2875 131.417 15.3675C129.966 15.3222 128.523 15.6057 127.197 16.1968C125.87 16.788 124.694 17.6715 123.756 18.7815C121.794 21.0575 120.812 24.7242 120.812 29.7815C120.812 35.162 121.778 38.9925 123.709 41.2731C124.622 42.3801 125.776 43.2633 127.083 43.855C128.389 44.4467 129.813 44.7313 131.246 44.6871C133.435 44.7252 135.556 43.9241 137.176 42.4475C138.802 40.9954 139.972 38.7126 140.685 35.599Z" fill="#231F20"/>
</svg>
