<svg width="276" height="118" viewBox="0 0 276 118" fill="none" xmlns="http://www.w3.org/2000/svg">
<path d="M152.33 58C151.359 52.6307 147.063 49.4602 141.796 49.4602C135.097 49.4602 130.24 54.625 130.24 62.9091C130.24 71.1932 135.097 76.358 141.796 76.358C147.063 76.358 151.359 73.1875 152.33 67.8182H149.16C148.393 71.4489 145.274 73.392 141.796 73.392C137.041 73.392 133.308 69.7102 133.308 62.9091C133.308 56.108 137.041 52.4261 141.796 52.4261C145.274 52.4261 148.393 54.3693 149.16 58H152.33ZM157.045 76H160.062V63.5739C160.062 60.9148 162.158 58.9716 165.022 58.9716C165.827 58.9716 166.658 59.125 166.863 59.1761V56.108C166.518 56.0824 165.725 56.0568 165.278 56.0568C162.925 56.0568 160.88 57.3864 160.164 59.3295H159.959V56.3636H157.045V76ZM177.819 76.4091C183.137 76.4091 186.716 72.3693 186.716 66.2841C186.716 60.1477 183.137 56.108 177.819 56.108C172.501 56.108 168.921 60.1477 168.921 66.2841C168.921 72.3693 172.501 76.4091 177.819 76.4091ZM177.819 73.6989C173.779 73.6989 171.938 70.2216 171.938 66.2841C171.938 62.3466 173.779 58.8182 177.819 58.8182C181.858 58.8182 183.699 62.3466 183.699 66.2841C183.699 70.2216 181.858 73.6989 177.819 73.6989ZM194.339 64.1875C194.339 60.7614 196.461 58.8182 199.35 58.8182C202.15 58.8182 203.85 60.6463 203.85 63.7273V76H206.867V63.5227C206.867 58.5114 204.195 56.108 200.22 56.108C197.254 56.108 195.413 57.4375 194.492 59.4318H194.237V56.3636H191.322V76H194.339V64.1875ZM220.358 76.4091C225.676 76.4091 229.256 72.3693 229.256 66.2841C229.256 60.1477 225.676 56.108 220.358 56.108C215.04 56.108 211.46 60.1477 211.46 66.2841C211.46 72.3693 215.04 76.4091 220.358 76.4091ZM220.358 73.6989C216.318 73.6989 214.477 70.2216 214.477 66.2841C214.477 62.3466 216.318 58.8182 220.358 58.8182C224.398 58.8182 226.238 62.3466 226.238 66.2841C226.238 70.2216 224.398 73.6989 220.358 73.6989ZM247.77 60.7614C246.824 57.9744 244.702 56.108 240.816 56.108C236.673 56.108 233.605 58.4602 233.605 61.7841C233.605 64.4943 235.216 66.3097 238.821 67.1534L242.094 67.9205C244.075 68.3807 245.009 69.3267 245.009 70.6818C245.009 72.3693 243.219 73.75 240.406 73.75C237.939 73.75 236.392 72.6889 235.855 70.5795L232.992 71.2955C233.695 74.6321 236.443 76.4091 240.458 76.4091C245.021 76.4091 248.128 73.9162 248.128 70.5284C248.128 67.7926 246.415 66.0668 242.912 65.2102L239.997 64.4943C237.671 63.919 236.622 63.1392 236.622 61.6307C236.622 59.9432 238.412 58.7159 240.816 58.7159C243.449 58.7159 244.536 60.1733 245.06 61.5284L247.77 60.7614Z" fill="white"/>
<path d="M51 0L0 29.4349V88.3046L51 117.739L102 88.3046V29.4349L51 0ZM51 0L0 29.4349V88.3046L51 117.739L102 88.3046V29.4349L51 0Z" fill="white"/>
<path d="M71.1343 94.7435H63.8778L55.1904 86.7716V82.6834L64.1844 74.0982V60.505L75.9379 52.8397L89.3266 62.9579L71.1343 94.7435ZM41.0862 73.2806L42.4148 60.505L38.02 49.0581H63.98L59.6874 60.505L60.9138 73.2806H50.8978H41.0862ZM47.014 86.7716L38.3267 94.8457H30.9679L12.6733 62.9579L26.1643 52.9419L38.02 60.505V74.0982L47.014 82.6834V86.7716ZM30.8657 25.4489H71.0321L75.8357 45.8898H26.1643L30.8657 25.4489ZM51 0L0 29.4349V88.3046L51 117.739L102 88.3046V29.4349L51 0Z" fill="#03316C"/>
</svg>
