<svg width="70" height="70" viewBox="0 0 70 70" fill="none" xmlns="http://www.w3.org/2000/svg">
<path opacity="0.2" d="M35 70C54.33 70 70 54.33 70 35C70 15.67 54.33 0 35 0C15.67 0 0 15.67 0 35C0 54.33 15.67 70 35 70Z" fill="#2573C2"/>
<path d="M51.8996 27.3348C51.8656 26.7683 51.6994 26.2177 51.4142 25.7271C51.1614 25.2216 50.7115 24.8272 50.1857 24.625C49.6495 24.3578 49.0555 24.2275 48.4567 24.2458H26.0202L24.4125 29.0638H44.7409L41.5306 38.912H21.2073L19.5996 43.73H42.1423C42.814 43.7105 43.4782 43.5825 44.1089 43.3508C44.7409 42.9918 45.4638 42.6278 46.0756 42.1223C46.6728 41.6515 47.2124 41.1118 47.6832 40.5146C48.0724 39.9295 48.4043 39.3081 48.6741 38.6592L51.6518 29.2963C51.9227 28.6803 52.0088 27.9988 51.8996 27.3348Z" fill="#2573C2"/>
<path d="M32.4256 31.7534H20.4641L18.8564 36.2074H30.9392L32.4256 31.7534Z" fill="#2573C2"/>
</svg>
