<svg width="70" height="70" viewBox="0 0 70 70" fill="none" xmlns="http://www.w3.org/2000/svg">
<path opacity="0.2" d="M68.9484 43.4674C64.2737 62.2175 45.2818 73.6275 26.5295 68.9528C7.78589 64.2781 -3.6252 45.2863 1.05058 26.5372C5.72308 7.78487 24.7139 -3.62732 43.4607 1.04737C62.212 5.72206 73.622 24.7161 68.9473 43.4674H68.9484Z" fill="#F7931A"/>
<path fill-rule="evenodd" clip-rule="evenodd" d="M45.5411 30.9339C46.013 27.7745 43.6075 26.0761 40.3183 24.9431L41.3853 20.6633L38.7794 20.0141L37.7407 24.1811C37.0565 24.0104 36.3531 23.8494 35.6542 23.6899L36.7004 19.4954L34.0968 18.8462L33.0291 23.1245C32.4622 22.9954 31.9057 22.8677 31.3655 22.7334L31.3685 22.7201L27.7758 21.823L27.0828 24.6055C27.0828 24.6055 29.0157 25.0484 28.9748 25.0759C30.03 25.3393 30.2214 26.0375 30.1887 26.591L28.9734 31.4666C29.0461 31.4851 29.1403 31.5119 29.2442 31.5534L28.9697 31.4851L27.2653 38.3151C27.1362 38.6357 26.809 39.1165 26.0715 38.9339C26.0974 38.9718 24.1779 38.4613 24.1779 38.4613L22.8846 41.4441L26.2755 42.2892C26.6583 42.3851 27.0364 42.4838 27.4104 42.5813L27.4105 42.5813C27.6527 42.6445 27.8931 42.7073 28.132 42.7685L27.0539 47.098L29.656 47.7472L30.7244 43.4645C31.4345 43.6574 32.1246 43.8355 32.7998 44.0032L31.7358 48.2659L34.3409 48.9151L35.419 44.5945C39.8612 45.4352 43.2024 45.0961 44.607 41.079C45.74 37.844 44.5513 35.9779 42.2141 34.7603C43.9162 34.3663 45.1983 33.2466 45.5404 30.9339H45.5411ZM39.5882 39.2804C38.8486 42.2496 34.2001 41.0211 32.0751 40.4595C31.8848 40.4092 31.7148 40.3642 31.5696 40.3281L33.0001 34.5933C33.1776 34.6376 33.3944 34.6863 33.64 34.7414C35.8384 35.2347 40.3438 36.2457 39.5889 39.2804H39.5882ZM34.082 32.0802C35.8551 32.5533 39.72 33.5844 40.3933 30.8871C41.0816 28.1277 37.3234 27.296 35.4879 26.8899C35.2816 26.8442 35.0995 26.8039 34.9508 26.7669L33.6538 31.9682C33.7766 31.9988 33.9206 32.0372 34.082 32.0802Z" fill="#F7931A"/>
</svg>
