<svg width="70" height="70" viewBox="0 0 70 70" fill="none" xmlns="http://www.w3.org/2000/svg">
<path d="M35 0C15.67 0 0 15.67 0 35.0001C0 54.3301 15.67 70 35 70C54.33 70 70 54.33 70 35.0001C70 15.6702 54.3301 0 35 0ZM52.8601 41.2693H42.5384L36.4568 57.3291C36.1176 58.2251 35.2369 58.7649 34.326 58.7202C33.415 58.7648 32.5345 58.2249 32.195 57.3291L26.1134 41.2693H17.1398C15.9515 41.2693 14.9792 40.2971 14.9792 39.1086C14.9792 37.9203 15.9513 36.9481 17.1398 36.9481H24.4772H29.0976H39.554H44.1744H52.8598C54.0481 36.9481 55.0204 37.9203 55.0204 39.1086C55.0204 40.2971 54.0484 41.2693 52.8601 41.2693ZM52.8601 32.9153H45.7019H41.0816H27.5706H22.9503H17.14C15.9518 32.9153 14.9795 31.9431 14.9795 30.7548C14.9795 29.5666 15.9516 28.5942 17.14 28.5942H21.3139L16.8605 16.8337C16.4397 15.7224 17.0045 14.4689 18.1158 14.0482C19.2271 13.6273 20.4805 14.1923 20.9013 15.3034L25.9343 28.5942H42.7177L47.7507 15.3034C48.1715 14.1922 49.425 13.6273 50.5362 14.0482C51.6475 14.469 52.2124 15.7224 51.7916 16.8337L47.338 28.5942H52.86C54.0482 28.5942 55.0205 29.5663 55.0205 30.7548C55.0207 31.943 54.0484 32.9153 52.8601 32.9153Z" fill="#2BC155" fill-opacity="0.2"/>
<path d="M42.9829 41.5978H53.3046C54.493 41.5978 55.4649 40.6256 55.4649 39.4371C55.4649 38.2488 54.4926 37.2766 53.3044 37.2766H44.6189H39.9986H29.5421H24.9218H17.5843C16.3959 37.2766 15.4237 38.2488 15.4237 39.4371C15.4237 40.6256 16.396 41.5978 17.5843 41.5978H26.558L32.6396 57.6576C32.979 58.5534 33.8596 59.0933 34.7705 59.0486C35.6815 59.0934 36.5622 58.5536 36.9014 57.6576L42.9829 41.5978Z" fill="#2BC155"/>
<path d="M46.1465 33.2438H53.3046C54.493 33.2438 55.4652 32.2715 55.465 31.0833C55.465 29.8948 54.4927 28.9227 53.3045 28.9227H47.7826L52.2361 17.1622C52.6569 16.0509 52.0921 14.7975 50.9807 14.3767C49.8695 13.9558 48.616 14.5207 48.1952 15.6319L43.1622 28.9227H26.3788L21.3458 15.6319C20.925 14.5208 19.6716 13.9558 18.5603 14.3767C17.4491 14.7974 16.8842 16.0509 17.305 17.1622L21.7585 28.9227H17.5846C16.3961 28.9227 15.4241 29.8951 15.4241 31.0833C15.4241 32.2716 16.3963 33.2438 17.5846 33.2438H23.3948H28.0152H41.5261H46.1465Z" fill="#2BC155"/>
</svg>
