<svg width="70" height="70" viewBox="0 0 70 70" fill="none" xmlns="http://www.w3.org/2000/svg">
<path opacity="0.4" d="M70 35C70 54.3302 54.3302 70.0004 35.0002 70.0004C15.67 70.0004 0 54.3302 0 35C0 15.67 15.67 0 35.0002 0C54.33 0 70 15.67 70 35Z" fill="#505050"/>
<g opacity="0.8">
<path d="M34.8883 18.76L34.6721 19.4948V40.8167L34.8883 41.0325L44.7857 35.1822L34.8883 18.76Z" fill="white"/>
<path d="M34.8884 18.76L24.991 35.1822L34.8884 41.0326V30.6836V18.76Z" fill="white"/>
<path d="M34.8882 44.2527L34.7664 44.4012V51.9965L34.8882 52.3523L44.7915 38.4053L34.8882 44.2527Z" fill="white"/>
<path d="M34.8884 52.3524V44.2527L24.991 38.4053L34.8884 52.3524Z" fill="white"/>
<path d="M34.8882 41.0325L44.7854 35.1822L34.8882 30.6836V41.0325Z" fill="white"/>
<path d="M24.991 35.1822L34.8882 41.0325V30.6836L24.991 35.1822Z" fill="white"/>
</g>
</svg>
