<svg width="133" height="32" viewBox="0 0 133 32" fill="none" xmlns="http://www.w3.org/2000/svg">
<path d="M1.22766 28.2827L12.6313 8.38859L14.6639 11.7954L8.56608 22.5168L20.8604 19.3599L13.6011 6.7733L17.4399 0.0722656L29.5186 20.8496L1.22766 28.2827Z" fill="#FFAD4F"/>
<path d="M0.0102539 31.9669L29.896 21.6978L35.8385 31.9648L0.0102539 31.9669Z" fill="black"/>
<path opacity="0.5" d="M0.0102539 31.9669L29.896 21.6978L35.8385 31.9648L0.0102539 31.9669Z" fill="#FFAD4F"/>
<path d="M50.9233 5.75051C51.8172 5.74759 52.6758 6.10217 53.3101 6.73627C53.9444 7.37032 54.3024 8.23195 54.3054 9.13166V23.257H51.0924V17.372H40.1011V23.2555H36.9128V9.13166C36.9119 8.68757 36.9981 8.2477 37.1665 7.83714C37.3349 7.4267 37.5823 7.05371 37.8943 6.73973C38.2063 6.42568 38.5769 6.17678 38.9847 6.00727C39.3926 5.83776 39.8297 5.751 40.271 5.75197L50.9233 5.75051ZM51.0924 14.1626V9.13166C51.0929 9.1092 51.0889 9.0868 51.0806 9.06594C51.0723 9.04514 51.0598 9.02613 51.044 9.01019C51.0282 8.99426 51.0094 8.98178 50.9886 8.97339C50.9679 8.96507 50.9457 8.96098 50.9233 8.96149H40.2702C40.2479 8.96098 40.2257 8.96507 40.2049 8.97339C40.1843 8.98178 40.1654 8.99426 40.1495 9.01019C40.1338 9.02613 40.1213 9.04514 40.1129 9.06594C40.1047 9.0868 40.1006 9.1092 40.1011 9.13166V14.1648L51.0924 14.1626Z" fill="#FFAD4F"/>
<path d="M71.2396 5.75098H74.4533V23.256H70.9749L60.2492 10.4187V23.256H57.0602V5.75098H60.5389L71.2396 18.5882V5.75098Z" fill="#FFAD4F"/>
<path d="M91.3392 5.75098H94.5522V23.256H91.0738L80.3479 10.4187V23.256H77.1591V5.75098H80.6374L91.3392 18.5882V5.75098Z" fill="#FFAD4F"/>
<path d="M113.299 8.96049H100.52V12.8983H110.811V16.1079H100.52V20.0465H113.299V23.256H97.307V5.75098H113.299V8.96049Z" fill="#FFAD4F"/>
<path d="M132.918 5.75049V6.60164L126.299 14.503L132.918 22.4051V23.2562H129.412L124.218 17.0564C122.503 19.1021 120.715 21.2135 119.024 23.2562H115.521V22.4051L122.116 14.5037L115.521 6.60235V5.75049H119.024L124.218 11.9503C125.933 9.90462 127.72 7.7932 129.412 5.75049H132.918Z" fill="#FFAD4F"/>
</svg>
