<svg width="20" height="20" viewBox="0 0 20 20" fill="none" xmlns="http://www.w3.org/2000/svg">
<path d="M9.999 0C4.477 0 0 4.59 0 10.253C0 14.783 2.865 18.625 6.84 19.983C7.34 20.077 7.523 19.76 7.523 19.488C7.523 19.244 7.513 18.6 7.509 17.744C4.727 18.364 4.14 16.369 4.14 16.369C3.686 15.185 3.03 14.869 3.03 14.869C2.121 14.234 3.098 14.247 3.098 14.247C4.101 14.319 4.628 15.304 4.628 15.304C5.521 16.87 6.97 16.418 7.54 16.155C7.63 15.492 7.889 15.041 8.175 14.784C5.955 14.524 3.62 13.645 3.62 9.717C3.62 8.597 4.01 7.682 4.65 6.965C4.546 6.705 4.204 5.663 4.747 4.252C4.747 4.252 5.587 3.977 7.497 5.302C8.31226 5.07459 9.15462 4.95887 10.001 4.958C10.8475 4.95977 11.6898 5.07617 12.505 5.304C14.414 3.978 15.252 4.254 15.252 4.254C15.797 5.665 15.455 6.707 15.352 6.966C15.994 7.684 16.38 8.599 16.38 9.719C16.38 13.657 14.043 14.524 11.815 14.778C12.174 15.094 12.494 15.72 12.494 16.676C12.494 18.046 12.481 19.152 12.481 19.488C12.481 19.763 12.661 20.082 13.169 19.981C17.137 18.623 20 14.78 20 10.253C20 4.591 15.523 0 9.999 0Z" fill="white" fill-opacity="0.8"/>
</svg>
