<svg width="22" height="20" viewBox="0 0 22 20" fill="none" xmlns="http://www.w3.org/2000/svg">
<path d="M10.486 19.4937C5.26962 19.4937 1.06457 16.3723 1.06457 12.5443C1.06457 12.2498 1.06457 12.0142 1.1178 11.7786C0.425828 11.3075 0 10.4241 0 9.5407C0 8.06837 1.06457 6.89051 2.39528 6.89051C2.9808 6.89051 3.56631 7.12608 3.99214 7.53833C5.64222 6.36047 7.82459 5.65375 10.2731 5.59485L11.87 0.235573L12.2426 0.353359L15.9686 1.29565C16.2879 0.471146 16.9799 0 17.7783 0C18.8429 0 19.7478 1.00119 19.7478 2.17905C19.7478 3.35691 18.8429 4.3581 17.7783 4.3581C16.7138 4.3581 15.8089 3.35691 15.8089 2.17905L12.349 1.17786L11.0715 5.53596C13.4136 5.65375 15.5427 6.36047 17.0864 7.47944C17.5122 7.00829 18.0977 6.77272 18.6832 6.77272C20.0139 6.77272 21.0785 7.95058 21.0785 9.42291C21.0785 10.3652 20.5994 11.2486 19.8542 11.7197C19.9075 11.9553 19.9075 12.1909 19.9075 12.4265C19.9075 16.3723 15.7024 19.4937 10.486 19.4937ZM1.91623 11.6609C1.863 11.9553 1.863 12.1909 1.863 12.4854C1.863 15.8423 5.74868 18.5514 10.486 18.5514C15.2234 18.5514 19.109 15.8423 19.109 12.4854C19.109 12.1909 19.109 11.9553 19.0558 11.7197C19.0558 11.6609 19.0026 11.602 19.0026 11.5431C18.7364 10.4241 18.0445 9.36402 16.9799 8.53952C16.9267 8.53952 16.8734 8.48062 16.8202 8.42173C15.2234 7.24387 12.9878 6.47825 10.486 6.47825C7.98428 6.47825 5.74868 7.24387 4.20505 8.42173C4.15182 8.48062 4.0986 8.53952 4.04537 8.53952C2.9808 9.36402 2.2356 10.4241 1.96945 11.602C1.96945 11.5431 1.96945 11.602 1.91623 11.6609ZM17.7251 8.06837C18.63 8.89287 19.3219 9.83517 19.6413 10.8952C20.0671 10.5419 20.2801 10.0118 20.2801 9.48181C20.2801 8.48062 19.5881 7.71501 18.6832 7.71501C18.3638 7.71501 18.0445 7.8328 17.7251 8.06837ZM2.39528 7.71501C1.4904 7.71501 0.798428 8.48062 0.798428 9.48181C0.798428 10.0118 1.01134 10.483 1.38394 10.8364C1.70331 9.77627 2.39528 8.83398 3.30017 8.00948C3.03402 7.8328 2.71465 7.71501 2.39528 7.71501ZM17.7251 0.765612C17.0864 0.765612 16.5541 1.35454 16.5541 2.06126C16.5541 2.76798 17.0864 3.35691 17.7251 3.35691C18.3638 3.35691 18.8961 2.76798 18.8961 2.06126C18.8961 1.35454 18.3638 0.765612 17.7251 0.765612ZM10.5392 17.0201C8.94239 17.0201 7.82459 16.6668 7.13262 15.8423C6.97294 15.6656 6.97294 15.3711 7.13262 15.2533C7.29231 15.0767 7.55845 15.0767 7.66491 15.2533C8.19719 15.8423 9.1553 16.1367 10.486 16.1367C11.87 16.1367 12.7748 15.8423 13.3071 15.2533C13.4668 15.0767 13.733 15.0767 13.8394 15.2533C13.9991 15.43 13.9991 15.7245 13.8394 15.8423C13.2539 16.6079 12.1361 17.0201 10.5392 17.0201Z" fill="white"/>
<path d="M1.81093 11.9353L1.85864 11.7241L1.87473 11.6707L1.9137 11.675C1.87541 11.8925 1.86603 12.0784 1.86374 12.2812C1.83558 12.277 1.80684 12.2709 1.77762 12.2626C1.78125 12.1237 1.79005 12.0276 1.81093 11.9353Z" stroke="white" stroke-opacity="0.8" stroke-width="1.4212"/>
</svg>
