<svg width="20" height="20" viewBox="0 0 20 20" fill="none" xmlns="http://www.w3.org/2000/svg">
<path d="M10 0C7.34784 0 4.8043 1.05357 2.92893 2.92893C1.05357 4.8043 0 7.34784 0 10C0 12.6522 1.05357 15.1957 2.92893 17.0711C4.8043 18.9464 7.34784 20 10 20C12.6522 20 15.1957 18.9464 17.0711 17.0711C18.9464 15.1957 20 12.6522 20 10C20 7.34784 18.9464 4.8043 17.0711 2.92893C15.1957 1.05357 12.6522 0 10 0ZM13.18 15.152C13.1427 15.2454 13.0858 15.3298 13.0132 15.3994C12.9406 15.469 12.8539 15.5223 12.759 15.5556C12.6641 15.589 12.5631 15.6016 12.4629 15.5927C12.3627 15.5838 12.2655 15.5536 12.178 15.504L9.463 13.394L7.721 15.002C7.68057 15.0319 7.63328 15.0511 7.58348 15.0579C7.53368 15.0647 7.48297 15.0589 7.436 15.041L7.77 12.052L7.78 12.061L7.787 12.002C7.787 12.002 12.672 7.554 12.871 7.365C13.073 7.176 13.006 7.135 13.006 7.135C13.018 6.905 12.645 7.135 12.645 7.135L6.172 11.299L3.477 10.381C3.477 10.381 3.063 10.232 3.024 9.906C2.983 9.582 3.49 9.406 3.49 9.406L14.207 5.148C14.207 5.148 15.088 4.756 15.088 5.406L13.18 15.153V15.152Z" fill="white" fill-opacity="0.8"/>
</svg>
