<svg width="419" height="144" viewBox="0 0 419 144" fill="none" xmlns="http://www.w3.org/2000/svg">
<g clip-path="url(#clip0_544_1699)">
<g opacity="0.5">
<path opacity="0.5" d="M0 76.9057L100.816 76.7899L126.016 76.7568L138.624 76.7403H144.927H148.072H149.644H150.43L151.216 76.7237C155.404 76.6741 159.591 76.2274 163.733 75.5324C167.875 74.854 171.987 73.9275 176.099 72.9512C178.155 72.4714 180.211 71.9916 182.267 71.5283C182.781 71.4125 183.295 71.3132 183.824 71.2139C184.338 71.1146 184.852 70.9988 185.381 70.9161L186.938 70.6348C187.467 70.5521 187.981 70.4859 188.51 70.4197C189.039 70.337 189.553 70.3039 190.082 70.2542L190.868 70.1881C191.004 70.1715 191.125 70.1715 191.261 70.1715H191.654C192.183 70.1384 192.713 70.2046 193.242 70.2211C193.499 70.2377 193.771 70.2873 194.028 70.3204L194.421 70.3701C194.557 70.3866 194.678 70.4197 194.814 70.4362C196.915 70.8003 198.941 71.4621 200.921 72.2563C204.882 73.8282 208.676 75.8633 212.501 77.7496C214.421 78.6927 216.34 79.6027 218.306 80.3804C220.271 81.1581 222.266 81.8364 224.322 82.2336C226.363 82.6141 228.464 82.7299 230.505 82.2997C232.561 81.9192 234.572 81.2904 236.552 80.579C238.532 79.8675 240.498 79.0402 242.448 78.1963C244.398 77.3525 246.333 76.459 248.283 75.5986C252.183 73.8613 256.114 72.1901 260.165 70.9326C262.191 70.3039 264.262 69.7744 266.348 69.4435C266.877 69.3608 267.391 69.278 267.92 69.2118L268.706 69.1291C268.963 69.096 269.235 69.096 269.492 69.0629C269.749 69.0464 270.021 69.0133 270.278 69.0133L271.079 68.9967C271.609 68.9802 272.138 68.9967 272.667 68.9967C276.884 69.0464 281.102 69.46 285.244 70.3701C287.315 70.8168 289.371 71.3794 291.382 72.0578C293.407 72.7196 295.388 73.4807 297.368 74.2749C299.348 75.0691 301.298 75.8964 303.279 76.6906C305.244 77.4848 307.224 78.2129 309.235 78.8747C311.246 79.5366 313.256 80.0991 315.312 80.5624C315.826 80.6948 316.34 80.794 316.854 80.8933C317.368 80.9926 317.882 81.1084 318.396 81.1912L319.938 81.4559L321.495 81.671C321.752 81.7041 322.009 81.7372 322.266 81.7703L323.052 81.853C323.566 81.9026 324.095 81.9688 324.609 82.0185L326.181 82.1343L326.967 82.1839L327.753 82.217L329.326 82.2832C329.855 82.2997 330.369 82.2997 330.898 82.3163C331.427 82.3163 331.941 82.3328 332.47 82.3328L334.042 82.2997C334.571 82.2997 335.085 82.2501 335.599 82.217L336.385 82.1674C336.642 82.1508 336.899 82.1343 337.171 82.1012L338.728 81.9357L339.121 81.8861L339.514 81.8199L340.285 81.7041C341.328 81.5717 342.341 81.3401 343.369 81.1581C344.397 80.9264 345.41 80.7113 346.423 80.43C347.436 80.1818 348.449 79.8675 349.461 79.5696C350.459 79.2387 351.472 78.9243 352.455 78.5603C353.452 78.2129 354.435 77.8158 355.418 77.4352C356.4 77.0381 357.383 76.641 358.35 76.2108C362.251 74.5397 366.09 72.67 369.945 70.8499C373.815 69.0464 377.73 67.3091 381.782 65.9688C385.818 64.6121 390.021 63.7186 394.253 63.4704C394.495 63.4538 394.722 63.6689 394.722 63.9337C394.737 64.1984 394.541 64.4466 394.299 64.4466C390.142 64.6782 386.03 65.5386 382.039 66.8623C378.033 68.1694 374.148 69.8902 370.293 71.6772C366.423 73.4642 362.583 75.3339 358.653 77.005C357.67 77.4352 356.687 77.8323 355.69 78.2294C354.692 78.61 353.709 79.0071 352.697 79.3545C351.699 79.7186 350.686 80.0329 349.673 80.3639C348.66 80.6617 347.632 80.9761 346.604 81.2408C345.576 81.5221 344.533 81.7372 343.505 81.9688C342.462 82.1508 341.419 82.3825 340.376 82.5148L339.59 82.6307L339.197 82.6803L338.804 82.7299L337.232 82.8954C336.975 82.9285 336.703 82.945 336.446 82.9616L335.66 83.0112C335.13 83.0443 334.601 83.0939 334.072 83.0939L332.485 83.127C331.956 83.127 331.427 83.1105 330.898 83.1105C330.369 83.0939 329.84 83.0939 329.31 83.0774L327.723 83.0112L326.937 82.9781L326.151 82.9119L324.579 82.7961C324.05 82.7465 323.536 82.6803 323.007 82.6307L322.221 82.5479C321.964 82.5148 321.691 82.4817 321.434 82.4486L319.862 82.2336L318.305 81.9688C317.776 81.8861 317.262 81.7703 316.748 81.671C316.234 81.5717 315.705 81.4724 315.191 81.3401C313.12 80.8768 311.079 80.2977 309.054 79.6193C307.028 78.9574 305.048 78.1963 303.067 77.4021C301.087 76.6079 299.137 75.7806 297.172 74.9864C295.206 74.1922 293.226 73.4311 291.23 72.7692C289.235 72.1074 287.209 71.5448 285.153 71.0981C281.057 70.1881 276.869 69.7744 272.697 69.7082C268.525 69.5593 264.367 70.337 260.346 71.5945C256.325 72.8354 252.41 74.49 248.51 76.2108C246.56 77.0712 244.625 77.9481 242.659 78.792C240.709 79.6358 238.729 80.4631 236.733 81.1746C234.723 81.8861 232.697 82.5314 230.596 82.9119C230.082 83.0278 229.538 83.0774 229.009 83.1436C228.873 83.1601 228.737 83.1601 228.616 83.1601L228.223 83.1767C227.95 83.1932 227.693 83.1932 227.421 83.1767L226.62 83.1436C226.348 83.127 226.091 83.0939 225.819 83.0609L225.426 83.0112C225.29 82.9947 225.169 82.9616 225.033 82.945L224.247 82.8127C222.161 82.399 220.135 81.7041 218.155 80.9099C216.174 80.1157 214.239 79.1891 212.319 78.246C208.48 76.3597 204.715 74.3246 200.785 72.7527C198.82 71.9585 196.809 71.3132 194.753 70.9492C194.632 70.9326 194.496 70.8995 194.375 70.883L193.982 70.8334C193.725 70.8003 193.468 70.7672 193.211 70.7341C192.697 70.7175 192.168 70.6513 191.654 70.6844H191.261C191.125 70.6844 191.004 70.6844 190.868 70.701L190.082 70.7672C189.568 70.8168 189.039 70.8499 188.525 70.9326C188.011 70.9988 187.482 71.065 186.968 71.1477L185.411 71.4125C184.897 71.4952 184.383 71.611 183.869 71.7103C183.355 71.8096 182.841 71.9088 182.327 72.0247C180.271 72.4714 178.215 72.9512 176.159 73.4311C172.047 74.3907 167.921 75.3008 163.763 75.9792C159.606 76.6575 155.404 77.1043 151.186 77.1374L150.4 77.1539H149.614H148.042H144.897H138.593L125.986 77.1374L100.786 77.1043L0 76.9057Z" fill="url(#paint0_radial_544_1699)"/>
<g opacity="0.5">
<path opacity="0.5" d="M394.253 66.1179C395.387 66.0848 396.279 65.0589 396.249 63.818C396.219 62.577 395.281 61.6008 394.148 61.6339C393.014 61.667 392.122 62.6928 392.152 63.9338C392.182 65.1747 393.12 66.1509 394.253 66.1179Z" fill="url(#paint1_radial_544_1699)"/>
</g>
</g>
<g opacity="0.4">
<path opacity="0.4" d="M0 77.7662L104.897 77.6504L157.339 77.5842C157.883 77.5842 158.427 77.5676 158.971 77.5676C159.515 77.5511 160.06 77.518 160.604 77.4849C161.692 77.4022 162.781 77.2863 163.854 77.1043C164.927 76.9389 166.001 76.7072 167.059 76.459C168.117 76.1778 169.175 75.8965 170.218 75.5325C172.304 74.8375 174.33 73.9771 176.31 72.9844C178.291 71.9916 180.211 70.8499 182.085 69.6421C185.834 67.1933 189.372 64.397 192.864 61.518C196.356 58.6555 199.818 55.7103 203.446 53.0133C207.074 50.3329 210.883 47.8841 214.995 46.1798C215.509 45.9647 216.023 45.7662 216.552 45.5676C217.081 45.3856 217.595 45.2036 218.139 45.0547C218.669 44.8892 219.198 44.7569 219.742 44.608C220.014 44.5418 220.286 44.4921 220.543 44.426L220.951 44.3432L221.359 44.2605C222.448 44.0454 223.536 43.913 224.64 43.8137C225.184 43.7807 225.743 43.731 226.288 43.731C226.832 43.7145 227.391 43.731 227.935 43.731C229.039 43.7641 230.142 43.8468 231.231 44.0123C231.775 44.0785 232.319 44.1943 232.863 44.277L233.68 44.459C233.952 44.5087 234.224 44.5914 234.481 44.6576C234.753 44.7238 235.025 44.79 235.282 44.8727L236.083 45.1209C236.34 45.2036 236.613 45.3029 236.869 45.4022C237.126 45.4849 237.399 45.6007 237.656 45.7C238.17 45.8986 238.684 46.1302 239.198 46.3618C239.696 46.61 240.21 46.8417 240.694 47.1064C242.674 48.1488 244.549 49.4394 246.333 50.8458C248.117 52.2688 249.795 53.8075 251.412 55.4291C254.662 58.6555 257.671 62.1302 260.86 65.3898C262.463 67.0113 264.095 68.5831 265.834 70.0061C267.557 71.4456 269.386 72.7362 271.306 73.8282C272.274 74.3743 273.256 74.8541 274.269 75.2843C275.282 75.7145 276.31 76.0619 277.353 76.3763C278.396 76.6907 279.454 76.8892 280.528 77.0713L281.329 77.1871C281.601 77.2202 281.873 77.2367 282.13 77.2698C282.674 77.336 283.203 77.3525 283.748 77.3856C284.02 77.4022 284.292 77.4022 284.564 77.4022H284.972C285.108 77.4022 285.244 77.3856 285.365 77.3856L286.166 77.3525L286.967 77.2367C287.104 77.2202 287.24 77.2036 287.361 77.1705L287.754 77.0878L288.147 77.0051C288.283 76.972 288.404 76.9554 288.54 76.9058L289.311 76.6576L289.507 76.5914L289.704 76.5087L290.082 76.3598C292.107 75.5656 293.982 74.3577 295.751 73.0009C297.519 71.6276 299.167 70.0723 300.739 68.4508C302.311 66.8127 303.823 65.0919 305.289 63.3215C308.207 59.7807 310.973 56.0743 313.694 52.3515C319.152 44.8892 324.503 37.2946 330.354 30.1633C331.82 28.3763 333.316 26.6224 334.843 24.9016C336.37 23.1809 337.957 21.5097 339.575 19.8882C341.192 18.2667 342.87 16.7114 344.594 15.2222C346.317 13.7331 348.086 12.3101 349.945 11.003C351.789 9.69586 353.694 8.47145 355.659 7.37942C357.625 6.28738 359.65 5.34426 361.737 4.5335C365.894 2.89544 370.278 1.98541 374.677 1.73722C374.919 1.72068 375.13 1.93578 375.145 2.20051C375.161 2.46525 374.964 2.71344 374.722 2.71344C370.399 2.94508 366.105 3.83857 362.024 5.42699C359.983 6.22119 357.988 7.13123 356.053 8.20672C354.118 9.28221 352.243 10.4735 350.414 11.7641C348.585 13.0547 346.831 14.4611 345.123 15.9172C343.415 17.3898 341.752 18.9285 340.149 20.5335C338.547 22.1385 336.975 23.7931 335.448 25.4973C333.921 27.2015 332.44 28.9389 330.973 30.7093C325.138 37.8075 319.772 45.3691 314.299 52.8148C311.548 56.5376 308.781 60.2439 305.834 63.8013C304.352 65.5718 302.84 67.3091 301.238 68.9637C299.636 70.6183 297.958 72.1736 296.159 73.58C294.36 74.9699 292.425 76.2109 290.323 77.0216L289.93 77.1705L289.734 77.2533L289.537 77.3194L288.736 77.5676C288.6 77.6173 288.464 77.6338 288.328 77.6669L287.92 77.7662L287.512 77.8655C287.376 77.8986 287.24 77.9151 287.104 77.9316L286.272 78.0475L285.441 78.0806C285.305 78.0806 285.153 78.0971 285.017 78.0971L284.609 78.0806C284.337 78.0806 284.065 78.064 283.778 78.064C283.234 78.0309 282.674 78.0144 282.13 77.9482C281.858 77.9151 281.586 77.8986 281.314 77.8655L280.497 77.7496C279.409 77.5676 278.321 77.336 277.247 77.0216C276.174 76.7072 275.131 76.3432 274.103 75.8965C273.075 75.4497 272.062 74.9534 271.079 74.4073C269.129 73.2822 267.27 71.9751 265.516 70.5025C263.763 69.0464 262.115 67.458 260.513 65.82C257.308 62.5438 254.299 59.0692 251.095 55.8427C249.492 54.2377 247.829 52.699 246.076 51.2926C244.322 49.9027 242.478 48.6286 240.528 47.5862C240.044 47.3215 239.545 47.0899 239.046 46.8417C238.547 46.6266 238.049 46.3949 237.535 46.1964C237.278 46.0971 237.021 45.9978 236.764 45.8985C236.507 45.8158 236.25 45.7165 235.993 45.6338L235.207 45.3856C234.95 45.3029 234.678 45.2367 234.421 45.1705C234.164 45.1043 233.891 45.0216 233.634 44.972L232.833 44.79C232.304 44.6907 231.76 44.5914 231.231 44.5252C230.158 44.3598 229.069 44.277 227.996 44.2439C227.452 44.2274 226.907 44.2109 226.363 44.2274C225.819 44.2274 225.275 44.2605 224.746 44.2936C223.672 44.3929 222.584 44.5087 221.526 44.7238L221.117 44.79L220.724 44.8727C220.452 44.9389 220.195 44.9885 219.923 45.0547C219.394 45.1871 218.865 45.3194 218.351 45.4849C217.822 45.6338 217.308 45.8158 216.794 45.9978C216.28 46.1964 215.766 46.3784 215.252 46.5935C211.186 48.2646 207.391 50.6803 203.778 53.3443C200.165 56.0247 196.703 58.9534 193.211 61.7993C189.704 64.6617 186.152 67.4746 182.388 69.9234C180.498 71.1478 178.563 72.2729 176.567 73.2822C174.572 74.275 172.531 75.1519 170.415 75.8468C169.372 76.2109 168.298 76.4921 167.24 76.7734C166.167 77.0216 165.094 77.2533 164.005 77.4187C162.917 77.6007 161.828 77.7 160.74 77.7993C160.196 77.8324 159.651 77.8655 159.092 77.882C158.548 77.882 157.989 77.8986 157.444 77.8986L105.003 77.8324L0 77.7662Z" fill="url(#paint2_radial_544_1699)"/>
<g opacity="0.4">
<path opacity="0.4" d="M374.586 4.48406C375.72 4.45096 376.612 3.42511 376.581 2.18416C376.551 0.943208 375.614 -0.0330074 374.48 8.46271e-05C373.346 0.0331767 372.455 1.05903 372.485 2.29998C372.515 3.54093 373.467 4.5006 374.586 4.48406Z" fill="url(#paint3_radial_544_1699)"/>
</g>
</g>
<g opacity="0.6">
<path opacity="0.6" d="M0 78.6101L98.4273 78.4943L147.633 78.4281L172.244 78.395L184.549 78.3785H190.702H193.771L196.839 78.3288C197.867 78.3123 198.88 78.2958 199.908 78.2792L202.977 78.1303L204.519 78.0641L205.29 78.031L206.061 77.9648L209.13 77.7166C209.644 77.667 210.158 77.6339 210.656 77.5843L212.183 77.4023L215.237 77.0383L218.275 76.5584L219.802 76.3268L221.314 76.0289C222.327 75.8304 223.325 75.6484 224.337 75.4333L227.331 74.7218L228.086 74.5398L228.827 74.3247L230.309 73.9111L231.79 73.4974L233.256 73.0176C237.172 71.7435 241.027 70.1882 244.745 68.335C248.464 66.4819 252.062 64.3309 255.584 62.0476C259.107 59.7642 262.568 57.3485 266.151 55.1479C267.935 54.0227 269.779 53.03 271.654 52.0703C273.543 51.1768 275.463 50.3164 277.429 49.6546C281.374 48.2978 285.471 47.5202 289.583 47.2554L289.976 47.2223L290.172 47.2058H290.369L291.14 47.1892L292.682 47.1396L293.453 47.123L294.224 47.1396L295.766 47.1892L296.159 47.2058C296.295 47.2058 296.416 47.2058 296.552 47.2223L297.323 47.2885L298.865 47.4209C298.986 47.4374 299.122 47.4374 299.243 47.454L299.62 47.5036L300.391 47.6194L301.918 47.8511C306 48.5626 309.991 49.787 313.861 51.3423C317.731 52.8811 321.48 54.7508 325.168 56.7363C328.857 58.7218 332.485 60.8232 336.128 62.8749C339.771 64.9266 343.43 66.9452 347.164 68.7818C350.898 70.6184 354.692 72.273 358.577 73.6463C362.462 75.0196 366.423 76.1117 370.444 76.8562C374.465 77.6174 378.532 78.031 382.613 78.1468C382.855 78.1468 383.067 78.3785 383.052 78.6598C383.052 78.9245 382.84 79.1561 382.583 79.1396C378.456 79.0072 374.344 78.577 370.293 77.7994C366.226 77.0217 362.22 75.9131 358.305 74.5233C354.39 73.1334 350.565 71.4457 346.816 69.5925C343.067 67.7394 339.393 65.7042 335.75 63.636C332.107 61.5677 328.494 59.4664 324.821 57.4643C321.147 55.4788 317.428 53.6256 313.589 52.0869C309.764 50.5481 305.818 49.3237 301.797 48.6122L300.286 48.3805L299.53 48.2647L299.152 48.2151C299.031 48.1985 298.895 48.1985 298.774 48.182L297.247 48.0496L296.491 47.9834C296.37 47.9669 296.234 47.9669 296.113 47.9669L295.735 47.9503L294.209 47.9007L293.438 47.8842L292.667 47.9007L291.14 47.9338L290.369 47.9503H290.172L289.976 47.9669L289.598 48C285.531 48.2647 281.48 49.0093 277.595 50.3495C275.645 50.9948 273.755 51.8387 271.881 52.7156C270.036 53.6587 268.207 54.6515 266.423 55.7601C262.856 57.9276 259.394 60.3433 255.857 62.6267C252.319 64.91 248.706 67.061 244.957 68.9142C241.208 70.7673 237.338 72.3226 233.393 73.5967L231.911 74.0765L230.414 74.4902L228.918 74.9038L228.177 75.1189L227.421 75.3009L224.413 76.0124C223.4 76.2275 222.387 76.4095 221.374 76.6081L219.863 76.9059L218.336 77.1375L215.282 77.6008L212.214 77.9483L210.687 78.1303C210.173 78.1799 209.659 78.213 209.145 78.2627L206.076 78.5109L205.305 78.577L204.534 78.6101L202.992 78.6763L199.908 78.8087C198.88 78.8418 197.852 78.8418 196.824 78.8583L193.74 78.908H190.672H184.519L172.214 78.8914L147.603 78.8583L98.397 78.7921L0 78.6101Z" fill="url(#paint4_radial_544_1699)"/>
<g opacity="0.6">
<path opacity="0.6" d="M382.447 80.7942C383.581 80.8273 384.518 79.8345 384.533 78.6101C384.563 77.3691 383.656 76.3433 382.538 76.3267C381.404 76.2936 380.467 77.2864 380.452 78.5108C380.421 79.7518 381.313 80.7776 382.447 80.7942Z" fill="url(#paint5_radial_544_1699)"/>
</g>
</g>
<g opacity="0.5">
<path opacity="0.5" d="M0 77.7827L106.817 77.6669L133.529 77.6338L140.211 77.6173L143.537 77.5346C143.809 77.518 144.096 77.5346 144.368 77.5015L145.2 77.4518L146.862 77.336C151.292 77.0051 155.706 76.3598 160.075 75.4167L163.325 74.639L166.56 73.7455L166.968 73.6297L167.361 73.4973L168.162 73.2491L169.765 72.7528C170.294 72.5873 170.823 72.4053 171.352 72.2233L172.939 71.6773C177.157 70.1716 181.314 68.4177 185.411 66.5149C193.604 62.7424 201.586 58.3908 209.78 54.5521C213.876 52.6493 218.034 50.8789 222.297 49.4063C226.544 47.9337 230.913 46.8086 235.328 46.1302L236.99 45.9151L237.822 45.7993L238.245 45.7496C238.381 45.7331 238.517 45.7331 238.668 45.7165L240.346 45.5842L241.178 45.518L241.601 45.4849C241.737 45.4684 241.873 45.4684 242.024 45.4684L243.702 45.4187L244.534 45.4022C244.806 45.4022 245.093 45.3856 245.365 45.3856L246.212 45.4022C246.499 45.4022 246.771 45.4353 247.058 45.4518C247.618 45.4684 248.177 45.5511 248.736 45.6007C249.855 45.7496 250.959 45.9317 252.062 46.1964C253.151 46.4611 254.239 46.792 255.312 47.1726C256.37 47.5697 257.414 48.033 258.442 48.5459C259.454 49.0588 260.452 49.638 261.42 50.2667C262.387 50.8789 263.324 51.5573 264.246 52.2688C265.169 52.9803 266.061 53.7083 266.922 54.4694C268.676 55.9916 270.339 57.6131 271.986 59.2512C275.282 62.5273 278.502 65.8862 282.024 68.8313C282.901 69.5594 283.793 70.2874 284.715 70.9658C285.637 71.6442 286.559 72.2895 287.527 72.8851C288.479 73.4808 289.462 74.0599 290.46 74.5728C290.701 74.7052 290.958 74.821 291.215 74.9534C291.472 75.0857 291.714 75.2016 291.971 75.3174L292.742 75.6649L293.513 75.9792C293.77 76.0951 294.027 76.1943 294.299 76.2936C294.556 76.3929 294.813 76.4922 295.085 76.5914C295.614 76.7734 296.144 76.9554 296.673 77.1044C297.731 77.4353 298.819 77.6835 299.893 77.9151C302.069 78.3453 304.261 78.5935 306.468 78.6762C307.028 78.6928 307.572 78.6928 308.131 78.7093L308.963 78.6928L309.371 78.6762C309.507 78.6762 309.643 78.6597 309.779 78.6597C310.883 78.577 311.971 78.4611 313.06 78.2295C315.221 77.7993 317.353 77.1209 319.378 76.1778C323.445 74.3081 327.134 71.5614 330.535 68.4508C333.936 65.3401 337.065 61.882 340.104 58.3412C343.158 54.8003 346.121 51.1602 349.144 47.5863C352.167 44.0123 355.266 40.488 358.562 37.1788C361.842 33.8696 365.334 30.7755 369.083 28.095C370.958 26.7548 372.908 25.5304 374.919 24.4384C376.929 23.3463 379 22.4032 381.132 21.609C385.38 20.0206 389.839 19.1105 394.329 18.8293C394.571 18.8127 394.798 19.0278 394.798 19.2926C394.813 19.5573 394.616 19.8055 394.374 19.822C389.975 20.0868 385.591 20.9802 381.419 22.519C379.333 23.2967 377.292 24.2233 375.312 25.2822C373.331 26.3577 371.411 27.5656 369.552 28.8727C365.833 31.5035 362.387 34.5645 359.121 37.8406C355.856 41.1168 352.757 44.6245 349.734 48.1819C346.695 51.7393 343.732 55.3629 340.663 58.9203C337.595 62.4611 334.45 65.9358 331.004 69.063C327.572 72.1902 323.808 74.9699 319.651 76.8893C317.58 77.8489 315.403 78.5439 313.18 78.9741C312.077 79.2057 310.943 79.3215 309.824 79.4043C309.688 79.4208 309.537 79.4208 309.401 79.4208L308.978 79.4373L308.131 79.4539C307.572 79.4373 307.013 79.4373 306.453 79.4208C304.216 79.3381 301.979 79.0733 299.772 78.6266C298.668 78.395 297.58 78.1302 296.491 77.7827C295.947 77.6338 295.418 77.4353 294.874 77.2533C294.602 77.154 294.345 77.0547 294.072 76.9554C293.8 76.8562 293.543 76.7569 293.286 76.6411L292.5 76.3102L291.729 75.9627C291.472 75.8469 291.215 75.7145 290.958 75.5987C290.701 75.4663 290.444 75.3505 290.187 75.2181C289.175 74.6886 288.192 74.1095 287.209 73.4973C286.242 72.8851 285.289 72.2233 284.367 71.5449C283.445 70.85 282.538 70.1385 281.646 69.3939C278.094 66.3991 274.874 63.0237 271.593 59.7476C269.946 58.1095 268.298 56.488 266.559 54.9823C265.698 54.2212 264.806 53.4932 263.914 52.7982C263.007 52.1033 262.085 51.4415 261.132 50.8293C260.18 50.2171 259.212 49.638 258.215 49.125C257.217 48.6121 256.189 48.1654 255.146 47.7683C254.103 47.3877 253.045 47.0568 251.956 46.792C250.883 46.5273 249.795 46.3453 248.691 46.2129C248.147 46.1633 247.587 46.0971 247.043 46.064C246.771 46.0475 246.499 46.0309 246.212 46.0144L245.38 45.9978C245.108 45.9813 244.821 45.9978 244.549 45.9978L243.717 46.0144L242.055 46.064C241.919 46.064 241.783 46.064 241.646 46.0806L241.238 46.1137L240.407 46.1798L238.744 46.3122C238.608 46.3288 238.472 46.3288 238.336 46.3453L237.928 46.3949L237.096 46.5108L235.448 46.7259C231.049 47.3877 226.726 48.5128 222.478 49.9523C218.23 51.3918 214.088 53.1457 209.991 55.0485C201.798 58.8541 193.816 63.1892 185.607 66.9451C181.496 68.8313 177.338 70.5852 173.091 72.0909L171.503 72.6369C170.974 72.8189 170.445 73.0175 169.901 73.1664L168.298 73.6628L167.497 73.911L167.089 74.0433L166.681 74.1592L163.431 75.0527L160.165 75.8138C155.797 76.7569 151.367 77.3856 146.908 77.7166L145.245 77.8324L144.413 77.882C144.141 77.8986 143.854 77.8986 143.582 77.9151L140.241 77.9813H133.559L106.847 77.9482L0 77.7827Z" fill="url(#paint6_radial_544_1699)"/>
<g opacity="0.5">
<path opacity="0.5" d="M394.268 21.5594C395.402 21.5097 396.279 20.4839 396.234 19.2429C396.188 18.002 395.251 17.0423 394.117 17.0919C392.984 17.1416 392.107 18.1674 392.152 19.4084C392.197 20.6328 393.15 21.5924 394.268 21.5594Z" fill="url(#paint7_radial_544_1699)"/>
</g>
</g>
<g opacity="0.7">
<path opacity="0.7" d="M0 79.057L106.152 78.9411L132.683 78.908C137.097 78.8915 141.526 78.7757 145.91 78.2462C150.309 77.7498 154.663 76.9722 158.971 75.9132C163.279 74.8543 167.527 73.4975 171.7 71.9256C175.872 70.3538 179.984 68.5502 184.05 66.664C188.117 64.7777 192.168 62.8088 196.235 60.9225C200.316 59.0363 204.443 57.2658 208.646 55.7602C212.863 54.2545 217.157 53.0135 221.526 52.1697C225.894 51.3258 230.324 50.8625 234.753 50.7633L236.416 50.7302L238.079 50.7798L238.91 50.7963C239.182 50.7963 239.47 50.8129 239.742 50.8294L241.405 50.9618L242.236 51.028C242.508 51.0445 242.78 51.0942 243.067 51.1273L244.715 51.3424C245.275 51.4086 245.819 51.5078 246.363 51.6071L248.011 51.9049C252.38 52.7819 256.658 54.1221 260.845 55.7436C262.946 56.5378 265.002 57.4479 267.043 58.3579C268.056 58.8377 269.084 59.301 270.097 59.7974C271.11 60.2938 272.122 60.7736 273.12 61.2865C277.141 63.3051 281.117 65.4396 285.123 67.5078C289.114 69.5761 293.135 71.5782 297.247 73.332C301.359 75.0694 305.577 76.542 309.885 77.5182C312.047 77.9484 314.223 78.362 316.415 78.5109C318.607 78.726 320.799 78.7095 323.007 78.6268C327.406 78.4613 331.79 77.8656 336.098 76.906C340.421 75.9463 344.669 74.6392 348.826 73.0508C352.999 71.4789 357.08 69.6423 361.117 67.6733C365.153 65.7043 369.129 63.5864 373.089 61.452C377.065 59.3176 381.026 57.1831 385.062 55.1645C389.098 53.1459 393.21 51.2927 397.443 49.8036C397.972 49.605 398.501 49.4396 399.045 49.2741C399.574 49.1087 400.119 48.9266 400.648 48.7777L402.265 48.3475C402.537 48.2814 402.81 48.1986 403.082 48.1324L403.898 47.967L405.546 47.6195L407.209 47.3713L408.04 47.239L408.871 47.1562L410.549 47.0073C410.791 46.9908 411.018 47.1893 411.033 47.4541C411.048 47.7188 410.867 47.967 410.625 47.9835H410.595L408.962 48.1324L408.146 48.1986L407.33 48.3144L405.697 48.5626L404.079 48.8936L403.278 49.059C403.006 49.1252 402.749 49.1914 402.477 49.2741L400.875 49.6878C400.345 49.8367 399.816 50.0187 399.287 50.1841C398.758 50.3496 398.229 50.4985 397.715 50.6971C393.528 52.1531 389.446 53.9897 385.425 55.9753C381.404 57.9773 377.443 60.1118 373.467 62.2297C369.491 64.3475 365.501 66.4654 361.449 68.4344C357.398 70.4034 353.286 72.24 349.083 73.8119C344.881 75.3837 340.603 76.7074 336.249 77.6671C331.895 78.6268 327.466 79.2059 323.037 79.3713C320.815 79.4375 318.592 79.4706 316.37 79.239C314.148 79.0735 311.956 78.6599 309.764 78.2131C305.41 77.2204 301.162 75.7147 297.035 73.9608C292.908 72.1904 288.872 70.1717 284.881 68.0869C280.89 66.0021 276.915 63.8677 272.909 61.8491C271.911 61.3362 270.898 60.8563 269.885 60.36C268.872 59.8636 267.859 59.4003 266.847 58.9204C264.806 57.9939 262.765 57.1004 260.679 56.3062C256.522 54.6847 252.274 53.3444 247.95 52.4675L246.318 52.1697C245.773 52.0704 245.229 51.9546 244.685 51.9049L243.052 51.6898C242.78 51.6567 242.508 51.6071 242.236 51.5906L241.42 51.5244L239.772 51.392C239.5 51.3589 239.228 51.3589 238.94 51.3589L238.109 51.3424L236.461 51.2927L234.814 51.3258C230.399 51.4086 226 51.8553 221.662 52.6826C217.323 53.5099 213.03 54.7343 208.842 56.2234C204.64 57.7126 200.528 59.483 196.446 61.3527C192.365 63.2224 188.329 65.1914 184.247 67.0611C180.165 68.9473 176.053 70.7343 171.866 72.3062C167.679 73.8781 163.416 75.2348 159.092 76.2772C154.769 77.3362 150.385 78.0973 145.986 78.5937C141.587 79.1066 137.142 79.2059 132.728 79.2224L106.197 79.1893L0 79.057Z" fill="url(#paint8_radial_544_1699)"/>
<g opacity="0.7">
<path opacity="0.7" d="M410.549 49.7373C411.683 49.7042 412.575 48.6784 412.53 47.4374C412.5 46.1965 411.562 45.2202 410.429 45.2699C409.295 45.303 408.403 46.3288 408.448 47.5698C408.478 48.8107 409.416 49.7704 410.549 49.7373Z" fill="url(#paint9_radial_544_1699)"/>
</g>
</g>
<g opacity="0.8">
<path opacity="0.8" d="M0 78.0477L55.5553 77.9816L83.3404 77.9485H86.8174C87.9814 77.9485 89.1303 77.9485 90.2943 77.9154C92.6072 77.8657 94.9201 77.7168 97.2179 77.4521C101.814 76.9392 106.379 76.0291 110.823 74.5896C115.268 73.1832 119.561 71.2639 123.673 68.9474C125.729 67.7892 127.739 66.5317 129.72 65.2246C131.7 63.9009 133.635 62.5276 135.57 61.1377C137.505 59.7478 139.455 58.358 141.451 57.0674C143.446 55.7768 145.502 54.5855 147.679 53.6755C149.856 52.7654 152.153 52.1698 154.497 52.087C156.825 52.0043 159.168 52.3518 161.405 53.0302C163.657 53.7085 165.804 54.7013 167.875 55.8761C169.931 57.0508 171.911 58.3911 173.831 59.814C177.686 62.6434 181.344 65.754 185.139 68.6331C187.044 70.0726 188.979 71.4459 190.989 72.6868C193 73.9278 195.071 75.0364 197.232 75.8968C199.394 76.7571 201.647 77.3694 203.929 77.6341L204.791 77.7168L205.653 77.7665L206.514 77.783C206.802 77.783 207.089 77.7665 207.376 77.7499C208.51 77.6837 209.644 77.4686 210.732 77.1046C212.924 76.3766 214.919 75.086 216.703 73.5141C218.487 71.9423 220.09 70.1057 221.556 68.1698C222.297 67.1936 223.007 66.2008 223.687 65.1915C224.368 64.1822 225.048 63.1398 225.698 62.0974C226.998 60.0126 228.268 57.8947 229.507 55.7603C232.017 51.5079 234.496 47.206 237.353 43.1853C238.789 41.1832 240.316 39.2473 242.024 37.51C242.886 36.6331 243.778 35.8223 244.73 35.0777C245.683 34.3332 246.696 33.6713 247.754 33.1253C249.87 32.0167 252.228 31.388 254.587 31.388C255.766 31.388 256.945 31.5203 258.094 31.8016C259.243 32.0829 260.361 32.5296 261.42 33.1253C263.536 34.3001 265.335 36.0374 266.862 37.9733C268.389 39.9257 269.658 42.0932 270.792 44.2939C273.075 48.7447 274.874 53.4273 276.809 58.0271C277.776 60.327 278.774 62.6103 279.893 64.8109C281.011 67.0115 282.236 69.146 283.702 71.0653C285.153 72.9847 286.877 74.6889 288.872 75.8471C290.868 77.0219 293.12 77.6175 295.388 77.6175C296.521 77.6175 297.64 77.4521 298.729 77.1543C299.832 76.8564 300.875 76.3766 301.903 75.8306L302.281 75.6155L302.478 75.5162L302.659 75.4004L303.4 74.9371C303.642 74.7716 303.884 74.6062 304.125 74.4407L304.488 74.1925L304.836 73.9278C305.788 73.2328 306.68 72.4386 307.572 71.6444C311.079 68.3849 314.148 64.5958 317.096 60.7075C320.044 56.8027 322.84 52.782 325.637 48.7447C328.434 44.7075 331.245 40.6703 334.148 36.7158C337.065 32.7613 340.074 28.8895 343.339 25.2659C344.972 23.4624 346.665 21.7085 348.449 20.0539C350.232 18.4159 352.092 16.8606 354.087 15.5038C356.068 14.147 358.154 12.9557 360.361 12.0457C362.568 11.1522 364.881 10.54 367.224 10.3083C367.466 10.2918 367.693 10.4903 367.708 10.7551C367.723 11.0198 367.542 11.268 367.3 11.2846C365.032 11.4996 362.81 12.0788 360.663 12.9392C358.532 13.8161 356.491 14.9743 354.541 16.298C352.591 17.6217 350.762 19.1439 348.993 20.7489C347.239 22.3704 345.546 24.0912 343.929 25.8781C340.678 29.4686 337.67 33.3073 334.768 37.2453C331.865 41.1832 329.053 45.2039 326.242 49.2411C323.43 53.2618 320.618 57.299 317.655 61.2039C314.692 65.1088 311.578 68.9143 308.01 72.2235C307.103 73.0343 306.196 73.8285 305.214 74.54L304.851 74.8213L304.473 75.086C304.231 75.2515 303.974 75.4335 303.732 75.5989L302.961 76.0788L302.765 76.1946L302.568 76.3104L302.175 76.5255C301.117 77.0881 300.014 77.5844 298.865 77.8988C297.716 78.2132 296.521 78.3952 295.342 78.3787C292.984 78.3621 290.596 77.7334 288.509 76.4924C286.408 75.268 284.639 73.481 283.143 71.5121C281.646 69.5431 280.407 67.359 279.273 65.1253C278.154 62.8916 277.156 60.5917 276.174 58.2918C274.239 53.6754 272.455 49.0095 270.203 44.5917C269.069 42.3911 267.829 40.2732 266.348 38.3704C264.866 36.4676 263.128 34.7964 261.102 33.6713C260.089 33.1088 259.016 32.6786 257.912 32.3973C256.809 32.116 255.675 32.0002 254.541 31.9836C252.274 31.9836 250.006 32.5793 247.95 33.6548C246.922 34.1842 245.94 34.8295 245.002 35.5576C244.065 36.2856 243.188 37.0798 242.342 37.9402C240.649 39.6444 239.137 41.5472 237.716 43.5327C234.874 47.5038 232.395 51.7892 229.885 56.0415C228.631 58.176 227.361 60.2939 226.046 62.3952C225.381 63.4376 224.715 64.48 224.02 65.4893C223.325 66.4986 222.614 67.5079 221.858 68.4841C220.362 70.4366 218.744 72.2897 216.93 73.8947C215.101 75.4831 213.045 76.8068 210.793 77.5514C209.674 77.9154 208.495 78.147 207.331 78.2132C207.043 78.2132 206.741 78.2463 206.454 78.2297L205.577 78.2132L204.7 78.1636L203.824 78.0808C201.496 77.7995 199.228 77.1873 197.036 76.3104C194.844 75.4335 192.743 74.3083 190.732 73.0674C188.706 71.8099 186.771 70.42 184.867 68.9805C181.057 66.085 177.399 62.9743 173.574 60.1284C171.654 58.722 169.704 57.3652 167.648 56.207C165.608 55.0322 163.476 54.0395 161.254 53.3776C159.047 52.6992 156.734 52.3518 154.436 52.4345C152.138 52.5172 149.871 53.0963 147.724 53.9733C145.562 54.8668 143.522 56.0415 141.526 57.3321C139.531 58.6227 137.596 59.996 135.661 61.3859C133.726 62.7592 131.776 64.1491 129.795 65.4562C127.815 66.7799 125.804 68.0209 123.733 69.1791C119.606 71.4955 115.283 73.4149 110.838 74.8213C106.379 76.2442 101.798 77.1543 97.1877 77.6506C94.8748 77.8988 92.5619 78.0477 90.249 78.0974C89.0849 78.1139 87.936 78.1305 86.772 78.1139H83.2951L55.5553 78.0974L0 78.0477Z" fill="url(#paint10_radial_544_1699)"/>
<g opacity="0.8">
<path opacity="0.8" d="M367.269 13.1045C368.403 13.0383 369.265 11.9959 369.204 10.755C369.144 9.51401 368.192 8.57089 367.058 8.63707C365.924 8.70325 365.062 9.74565 365.123 10.9866C365.183 12.211 366.136 13.1707 367.269 13.1045Z" fill="url(#paint11_radial_544_1699)"/>
</g>
</g>
<g opacity="0.9">
<path opacity="0.9" d="M0 78.61C34.3611 78.6927 68.7373 78.7424 103.098 78.6927L128.873 78.61L141.753 78.5273C146.046 78.4942 150.339 78.4611 154.633 78.3949L156.235 78.3453L157.837 78.2294L158.246 78.1964L158.639 78.1467L159.44 78.064L160.241 77.9813L161.042 77.8654C163.159 77.5676 165.275 77.1374 167.346 76.5748C171.503 75.4497 175.539 73.8282 179.394 71.793C183.249 69.7579 186.938 67.3256 190.46 64.6617C193.982 61.9978 197.353 59.0857 200.649 56.0743C203.944 53.063 207.149 49.9358 210.369 46.8251C213.589 43.7145 216.839 40.6203 220.21 37.7082C221.904 36.2522 223.627 34.8458 225.411 33.5221C227.195 32.1984 229.039 30.9575 230.944 29.8489C232.848 28.7403 234.829 27.7806 236.885 27.003C237.006 26.9533 237.142 26.9037 237.263 26.8541L237.656 26.7217L238.427 26.457C238.94 26.2915 239.47 26.1426 239.999 25.9937L240.8 25.8117C241.072 25.7455 241.329 25.6793 241.601 25.6297C242.13 25.5304 242.674 25.4146 243.204 25.3649C245.35 25.0671 247.527 25.0174 249.704 25.2325C251.866 25.4642 253.997 25.9937 256.053 26.7879C258.109 27.5821 260.059 28.6576 261.888 29.8985C263.733 31.156 265.456 32.5955 267.073 34.1509C268.706 35.7062 270.218 37.3939 271.669 39.1312C273.12 40.8685 274.496 42.6886 275.826 44.5418C278.487 48.2481 280.981 52.0867 283.491 55.9089C284.745 57.8117 286 59.7145 287.3 61.5842C288.6 63.4539 289.93 65.2905 291.336 67.0443C292.032 67.9213 292.772 68.7817 293.513 69.609C294.269 70.4363 295.04 71.2305 295.841 71.9916C296.038 72.1901 296.249 72.3556 296.461 72.5542C296.673 72.7362 296.869 72.9182 297.081 73.1002L297.716 73.6297L298.366 74.126C299.243 74.7713 300.15 75.367 301.102 75.8634C302.054 76.3597 303.037 76.7734 304.05 77.0712C305.063 77.3525 306.106 77.5345 307.149 77.6172C308.192 77.6834 309.235 77.6172 310.263 77.4187C311.291 77.2201 312.304 76.8727 313.286 76.459C315.251 75.5986 317.096 74.4239 318.849 73.1167C320.603 71.793 322.281 70.3535 323.929 68.8479C327.209 65.8365 330.338 62.6265 333.543 59.4663C336.733 56.3225 339.983 53.2119 343.445 50.3825C345.183 48.9761 346.952 47.6193 348.811 46.3949C350.656 45.154 352.576 44.0454 354.571 43.1022C356.566 42.1757 358.638 41.3815 360.754 40.8685C362.87 40.3391 365.062 40.0743 367.239 40.0578C367.481 40.0578 367.693 40.2729 367.693 40.5542C367.693 40.8189 367.496 41.0505 367.239 41.0505C365.123 41.0671 363.006 41.3153 360.95 41.8282C358.879 42.3246 356.869 43.0857 354.919 43.9957C351.019 45.8323 347.39 48.3473 343.959 51.1436C340.527 53.9399 337.292 57.0175 334.103 60.1612C330.913 63.2884 327.768 66.5149 324.458 69.5262C322.795 71.0319 321.102 72.488 319.303 73.8282C317.504 75.1519 315.614 76.3597 313.589 77.2367C312.576 77.6669 311.518 78.0309 310.429 78.246C309.341 78.4611 308.222 78.5273 307.134 78.4611C306.03 78.3784 304.942 78.1964 303.883 77.882C302.825 77.5676 301.797 77.1374 300.815 76.6079C299.832 76.095 298.895 75.4663 297.988 74.8044L297.323 74.2915L296.673 73.7455C296.461 73.5635 296.249 73.3815 296.038 73.1829C295.826 72.9844 295.614 72.8023 295.418 72.6038C294.602 71.8261 293.815 71.0154 293.045 70.1715C292.289 69.3277 291.548 68.4507 290.853 67.5573C289.432 65.7868 288.101 63.9171 286.801 62.0474C285.501 60.1612 284.246 58.2584 282.992 56.3556C280.482 52.5335 278.018 48.6948 275.373 45.005C274.057 43.1519 272.682 41.3484 271.246 39.6276C269.81 37.8903 268.313 36.2191 266.711 34.6803C265.108 33.1415 263.415 31.702 261.616 30.4776C259.802 29.2532 257.897 28.1943 255.902 27.4166C253.891 26.639 251.82 26.126 249.704 25.8944C247.587 25.6793 245.456 25.7124 243.34 26.0102C242.81 26.0598 242.281 26.1757 241.767 26.2749C241.51 26.3246 241.238 26.3908 240.981 26.4404L240.195 26.6224C239.681 26.7713 239.167 26.9037 238.653 27.0692L237.882 27.3173L237.504 27.4497C237.383 27.4994 237.247 27.549 237.126 27.5986C235.116 28.3597 233.151 29.3029 231.261 30.3949C229.371 31.4869 227.542 32.7113 225.774 34.0185C224.005 35.3256 222.281 36.732 220.588 38.1715C217.217 41.0671 213.967 44.1446 210.747 47.2553C207.512 50.3494 204.307 53.4766 200.997 56.488C197.686 59.4994 194.3 62.4114 190.762 65.0754C187.21 67.7393 183.506 70.1715 179.621 72.2067C175.736 74.2584 171.67 75.8634 167.482 77.005C165.396 77.5676 163.264 77.9978 161.133 78.2956L160.332 78.4114L159.531 78.4942L158.729 78.5769L158.321 78.6265L157.913 78.6596L156.295 78.7755L154.678 78.8251C150.385 78.8747 146.091 78.9078 141.783 78.9244L128.888 78.974L103.098 78.9575C68.7373 78.9244 34.3611 78.792 0 78.61Z" fill="url(#paint12_radial_544_1699)"/>
<g opacity="0.9">
<path opacity="0.9" d="M367.103 42.8044C368.237 42.8375 369.174 41.8613 369.204 40.6369C369.235 39.3959 368.343 38.3701 367.224 38.337C366.09 38.3039 365.153 39.2801 365.123 40.5045C365.093 41.7289 365.984 42.7548 367.103 42.8044Z" fill="url(#paint13_radial_544_1699)"/>
</g>
</g>
<g opacity="0.9">
<path opacity="0.9" d="M0 78.4777C33.696 78.0144 67.3768 77.5677 101.073 77.2037C117.913 77.0217 134.769 76.8562 151.609 76.8066H153.181C153.71 76.8066 154.224 76.79 154.754 76.7735L155.54 76.7569C155.797 76.7569 156.069 76.7404 156.326 76.7239L157.898 76.608L158.684 76.5584L159.47 76.4757L161.042 76.2937C161.571 76.2275 162.085 76.1447 162.599 76.062L163.385 75.9462C163.642 75.9131 163.899 75.8635 164.156 75.8138C168.298 75.0693 172.395 73.9607 176.431 72.6701C184.504 70.0393 192.35 66.6804 200.316 63.6525C204.292 62.1468 208.313 60.7073 212.38 59.4664C216.446 58.2254 220.558 57.1665 224.73 56.4219C228.903 55.6608 233.105 55.1975 237.323 55.0651L238.91 55.032L239.696 55.0155C239.953 55.0155 240.225 55.0155 240.498 55.032C241.027 55.032 241.556 55.0651 242.085 55.0982C242.357 55.1148 242.614 55.1478 242.871 55.1644C243.128 55.1809 243.4 55.214 243.657 55.2471L244.443 55.3464L245.229 55.4622L245.622 55.5284L246.015 55.6111C246.272 55.6608 246.544 55.7104 246.801 55.76C247.844 55.9917 248.872 56.2564 249.9 56.5708C253.997 57.8283 257.852 59.8304 261.51 62.1303C265.184 64.4302 268.676 67.0279 272.198 69.5429C275.72 72.0744 279.273 74.5232 282.992 76.6577C286.71 78.7756 290.596 80.5625 294.632 81.7869C296.642 82.3991 298.698 82.8955 300.769 83.243C302.84 83.5905 304.927 83.8055 307.013 83.8883C309.099 83.971 311.2 83.9379 313.271 83.7063C315.342 83.4746 317.398 83.0444 319.409 82.4488C323.445 81.2575 327.254 79.305 330.837 76.9224C332.621 75.7311 334.344 74.424 336.037 73.0672C337.715 71.6939 339.363 70.2709 340.981 68.7983C344.216 65.8697 347.36 62.7921 350.58 59.7973C352.183 58.3081 353.815 56.8355 355.493 55.4126C357.156 53.9896 358.879 52.6328 360.648 51.3423C362.417 50.0517 364.231 48.8769 366.12 47.8014C368.01 46.7425 369.945 45.7828 371.956 45.0051C375.962 43.4498 380.194 42.5398 384.442 42.3412C384.684 42.3247 384.896 42.5398 384.911 42.8045C384.926 43.0693 384.73 43.3009 384.488 43.3174C380.315 43.4994 376.188 44.3764 372.258 45.8986C370.293 46.6597 368.373 47.5863 366.529 48.6287C364.669 49.6711 362.87 50.8459 361.117 52.1034C359.363 53.3609 357.67 54.7177 356.007 56.1075C354.344 57.5139 352.727 58.97 351.124 60.4591C347.904 63.4209 344.76 66.4984 341.51 69.4271C339.877 70.8997 338.229 72.3392 336.521 73.7125C334.813 75.0858 333.075 76.3929 331.26 77.6008C329.446 78.8087 327.572 79.9007 325.637 80.8438C323.702 81.8035 321.691 82.5811 319.635 83.1933C317.58 83.8055 315.493 84.2357 313.377 84.4674C311.261 84.699 309.129 84.7321 307.013 84.6494C304.896 84.5667 302.78 84.335 300.694 83.9876C298.592 83.6401 296.521 83.1272 294.481 82.4984C290.399 81.2409 286.469 79.4374 282.735 77.2864C278.986 75.1354 275.418 72.6535 271.896 70.1054C268.373 67.5739 264.897 64.9762 261.253 62.6928C257.625 60.3929 253.816 58.424 249.779 57.1665C248.767 56.8521 247.754 56.5874 246.726 56.3723L245.955 56.2233L245.562 56.1406L245.169 56.0744L244.398 55.9586L243.612 55.8593C243.355 55.8262 243.098 55.8097 242.826 55.7766C242.569 55.76 242.312 55.727 242.04 55.7104C241.51 55.6773 240.996 55.6442 240.467 55.6442C240.21 55.6442 239.938 55.6277 239.681 55.6277L238.895 55.6442L237.323 55.6773C233.12 55.7931 228.933 56.2564 224.791 57.001C220.649 57.7456 216.537 58.788 212.486 60.0124C208.434 61.2368 204.428 62.6597 200.452 64.1489C192.501 67.1437 184.625 70.486 176.537 73.1003C172.486 74.3909 168.389 75.4995 164.217 76.2275C163.96 76.2771 163.703 76.3267 163.431 76.3598L162.645 76.4757C162.116 76.5584 161.602 76.6411 161.072 76.7073L159.5 76.8893L158.714 76.972L157.928 77.0217L156.341 77.121C156.084 77.1375 155.812 77.154 155.555 77.154L154.769 77.1706C154.24 77.1871 153.71 77.2037 153.181 77.2037H151.609C134.769 77.2202 117.913 77.3526 101.073 77.485C67.3768 77.7332 33.696 78.0806 0 78.4777Z" fill="url(#paint14_radial_544_1699)"/>
<g opacity="0.9">
<path opacity="0.9" d="M384.382 45.0051C385.516 44.972 386.408 43.9461 386.377 42.7052C386.347 41.4642 385.41 40.488 384.276 40.5211C383.142 40.5542 382.25 41.58 382.281 42.821C382.311 44.0619 383.248 45.0381 384.382 45.0051Z" fill="url(#paint15_radial_544_1699)"/>
</g>
</g>
<g opacity="0.7">
<path opacity="0.7" d="M356.929 88.2399C355.009 88.0744 353.09 87.7104 351.245 87.1644C349.386 86.6184 347.572 85.9235 345.803 85.1458C342.251 83.5739 338.849 81.6877 335.448 79.8511C332.047 78.0145 328.63 76.2109 325.093 74.7383C323.324 74.0103 321.54 73.3485 319.726 72.7859C317.912 72.2233 316.068 71.7931 314.208 71.4788L312.818 71.2471L311.412 71.0817C310.943 71.0155 310.474 70.9989 310.006 70.9658C309.537 70.9327 309.069 70.8831 308.6 70.8831C306.71 70.8004 304.836 70.8831 302.961 71.0817C299.212 71.4953 295.524 72.4384 291.88 73.6132C288.252 74.788 284.655 76.1613 281.042 77.4353C279.227 78.0641 277.413 78.6928 275.569 79.2389C273.74 79.8014 271.881 80.2978 270.021 80.7445C266.287 81.6215 262.493 82.1841 258.683 82.3992C256.779 82.515 254.874 82.5315 252.954 82.4322C251.049 82.2668 249.145 82.0351 247.27 81.6546C243.506 80.9431 239.802 79.9503 236.129 78.9245C232.44 77.8986 228.767 76.8397 225.063 75.9462L223.672 75.6153L222.281 75.3009C221.813 75.2016 221.359 75.0858 220.891 75.0031L219.485 74.7383L218.789 74.606C218.563 74.5729 218.321 74.5398 218.094 74.5067L216.688 74.2916C216.446 74.2585 216.22 74.2254 215.993 74.2089L215.297 74.1427C215.071 74.1261 214.829 74.1261 214.587 74.1096C214.345 74.1096 214.118 74.0765 213.876 74.093C212.002 74.093 210.127 74.3412 208.283 74.788C206.439 75.2513 204.64 75.88 202.886 76.6246C201.118 77.3692 199.394 78.213 197.656 79.0734C195.917 79.9338 194.194 80.7942 192.425 81.5718C191.533 81.9524 190.641 82.3164 189.719 82.6308L189.372 82.7466L189.024 82.8459C188.797 82.9121 188.57 82.9948 188.329 83.061C187.86 83.1768 187.391 83.3092 186.923 83.4085C186.454 83.5243 185.97 83.5739 185.502 83.6567C185.018 83.7063 184.549 83.7559 184.065 83.7725C183.582 83.8056 183.113 83.7725 182.629 83.7725C182.387 83.7725 182.146 83.7725 181.919 83.7559L181.208 83.7228C177.399 83.5243 173.604 82.7632 169.961 81.5388C166.303 80.3309 162.796 78.6928 159.213 77.3526C155.645 75.9793 151.927 75.0031 148.147 74.7549C144.368 74.4736 140.589 74.9534 136.81 75.4167C133.03 75.8966 129.266 76.4426 125.487 76.8397C121.708 77.2368 117.898 77.5015 114.089 77.485L91.2013 77.2699C75.9935 77.1706 60.8009 77.1044 45.5931 77.0548C30.3853 77.0217 15.1926 77.0051 -0.0151367 77.0051C15.1926 76.9555 30.3853 76.9224 45.5931 76.9224C60.8009 76.9224 75.9935 76.939 91.2013 77.0051L113.998 77.1375C117.792 77.1375 121.587 76.8728 125.366 76.4591C129.145 76.0455 132.909 75.4995 136.689 75.0031C138.578 74.7549 140.468 74.5232 142.373 74.3743C144.277 74.2254 146.182 74.1758 148.087 74.3081C151.911 74.5563 155.661 75.5325 159.258 76.9059C162.871 78.2626 166.363 79.8842 169.992 81.0589C173.62 82.2668 177.369 82.9948 181.133 83.1934L181.843 83.2265C182.085 83.243 182.312 83.243 182.554 83.243C183.022 83.243 183.506 83.2595 183.975 83.243C184.443 83.243 184.912 83.1768 185.381 83.1272C185.849 83.0444 186.318 82.9948 186.771 82.879C187.24 82.7963 187.694 82.6639 188.147 82.5481C188.374 82.4819 188.601 82.4157 188.827 82.333L189.16 82.2337L189.493 82.1179C190.4 81.82 191.276 81.4395 192.153 81.0589C195.66 79.5201 199.047 77.6008 202.614 76.0951C204.398 75.334 206.212 74.6887 208.087 74.2254C209.961 73.7621 211.866 73.5139 213.801 73.4974C214.043 73.4808 214.285 73.5139 214.526 73.5139C214.768 73.5305 215.01 73.5305 215.252 73.547L215.978 73.6132C216.22 73.6298 216.461 73.6628 216.688 73.6959L218.109 73.8945C218.351 73.9276 218.578 73.9607 218.82 73.9938L219.53 74.1261L220.936 74.3909C221.405 74.4736 221.873 74.5894 222.342 74.6887L223.748 74.9865L225.139 75.3174C228.857 76.2109 232.531 77.2699 236.219 78.2792C239.908 79.2885 243.597 80.2647 247.33 80.9596C249.19 81.3237 251.079 81.5553 252.954 81.7208C254.829 81.8035 256.733 81.8035 258.608 81.6711C262.387 81.456 266.136 80.8769 269.84 80C271.684 79.5532 273.528 79.0569 275.342 78.4943C277.172 77.9317 278.97 77.3195 280.785 76.6742C284.398 75.4002 287.98 74.0103 291.639 72.819C295.297 71.6277 299.031 70.6515 302.84 70.2213C304.745 70.0062 306.665 69.9234 308.585 70.0062C309.069 70.0062 309.537 70.0558 310.021 70.0724C310.505 70.1054 310.973 70.122 311.457 70.1882L312.893 70.3536L314.314 70.5853C316.204 70.9162 318.078 71.3464 319.923 71.909C321.767 72.4715 323.581 73.1334 325.365 73.8614C328.948 75.334 332.394 77.1375 335.796 78.9741C339.212 80.8107 342.598 82.6804 346.105 84.2192C347.859 84.9803 349.643 85.6587 351.457 86.1882C353.271 86.7177 355.115 87.0651 356.99 87.214C357.232 87.2306 357.428 87.4622 357.413 87.7435C357.398 88.0579 357.171 88.273 356.929 88.2399Z" fill="url(#paint16_radial_544_1699)"/>
<g opacity="0.7">
<path opacity="0.7" d="M356.944 85.4933C358.078 85.5429 358.955 86.5853 358.894 87.8263C358.849 89.0672 357.897 90.0269 356.763 89.9607C355.629 89.9111 354.752 88.8687 354.813 87.6277C354.858 86.4033 355.81 85.4437 356.944 85.4933Z" fill="url(#paint17_radial_544_1699)"/>
</g>
</g>
<g opacity="0.7">
<path opacity="0.7" d="M394.299 133.94C385.078 133.808 375.826 132.683 366.862 130.168C366.575 130.101 366.303 130.019 366.03 129.919L365.199 129.671L364.368 129.423C364.095 129.34 363.808 129.257 363.536 129.158C362.433 128.778 361.329 128.414 360.241 127.983C358.049 127.173 355.902 126.23 353.786 125.22L352.198 124.443C351.669 124.178 351.155 123.897 350.641 123.615C350.384 123.483 350.127 123.334 349.87 123.202L349.099 122.755L348.328 122.308C348.071 122.159 347.814 122.01 347.573 121.861L346.061 120.935C345.562 120.62 345.063 120.29 344.579 119.959C344.08 119.644 343.597 119.297 343.113 118.949C342.629 118.602 342.13 118.271 341.662 117.907C339.742 116.501 337.882 114.995 336.084 113.406C334.285 111.818 332.531 110.163 330.838 108.443C327.467 104.984 324.322 101.278 321.299 97.4726C318.276 93.6505 315.403 89.7291 312.425 85.8904C310.929 83.971 309.417 82.0848 307.83 80.2813C307.044 79.3712 306.227 78.4943 305.396 77.6339C304.973 77.2203 304.549 76.7901 304.126 76.3764C303.688 75.9793 303.264 75.5657 302.811 75.1851L302.146 74.606L301.45 74.06L301.103 73.7787C300.982 73.696 300.861 73.5967 300.755 73.514L300.044 73.001C299.077 72.3392 298.094 71.7104 297.066 71.1975C296.054 70.6515 294.98 70.2213 293.907 69.8407L293.091 69.5925C292.955 69.5595 292.818 69.5098 292.682 69.4767L292.259 69.3774L291.428 69.1789L290.581 69.0465C290.022 68.9307 289.447 68.9142 288.888 68.848L288.676 68.8314C288.601 68.8314 288.54 68.8314 288.465 68.8314L288.041 68.8149L287.195 68.7818C286.061 68.7983 284.927 68.8976 283.809 69.0962C282.69 69.3113 281.586 69.6091 280.498 69.9897C280.226 70.0889 279.954 70.1882 279.697 70.2875C279.561 70.3371 279.425 70.3868 279.289 70.4364L278.896 70.6019C278.639 70.7177 278.367 70.8335 278.11 70.9493L277.323 71.3299C276.28 71.8428 275.268 72.4054 274.27 73.0176C273.272 73.6132 272.305 74.2916 271.337 74.9535C269.417 76.3268 267.558 77.7994 265.759 79.3382C262.146 82.4323 258.684 85.7415 255.222 89.0672C251.76 92.393 248.314 95.7353 244.761 98.9286C241.209 102.139 237.55 105.216 233.696 107.996C229.841 110.776 225.789 113.241 221.511 115.16C219.38 116.12 217.188 116.931 214.95 117.576C212.713 118.221 210.43 118.685 208.133 118.949L207.271 119.032C206.984 119.065 206.697 119.098 206.409 119.115L205.548 119.164C205.26 119.181 204.973 119.198 204.686 119.198C203.537 119.231 202.373 119.231 201.224 119.164L200.362 119.115L199.501 119.016L199.062 118.966L198.639 118.9L197.777 118.767C196.629 118.569 195.495 118.321 194.376 117.99C192.139 117.361 189.962 116.451 187.876 115.359C186.833 114.796 185.82 114.201 184.822 113.555C183.839 112.893 182.857 112.215 181.92 111.471C178.14 108.542 174.784 105.067 171.564 101.444C168.36 97.8201 165.291 94.0641 162.056 90.5067C161.239 89.6132 160.423 88.7363 159.577 87.8924C158.73 87.0321 157.868 86.2048 156.992 85.4105C155.223 83.8056 153.348 82.3661 151.338 81.1417C149.327 79.9504 147.196 78.9907 144.958 78.4612C143.84 78.1965 142.706 77.9979 141.572 77.9317C140.438 77.849 139.289 77.8821 138.125 77.8656L110.522 77.8325L0.000732422 77.7497L110.431 77.6339L138.035 77.6008C139.184 77.6008 140.333 77.5843 141.497 77.6505C142.645 77.7166 143.809 77.9152 144.928 78.1799C147.196 78.7094 149.357 79.6691 151.398 80.8769C153.424 82.1013 155.329 83.5574 157.113 85.1624C158.004 85.9566 158.881 86.8004 159.728 87.6443C160.574 88.5047 161.406 89.3816 162.222 90.2751C165.487 93.8325 168.556 97.605 171.761 101.195C174.966 104.786 178.322 108.244 182.071 111.14C183.008 111.868 183.976 112.546 184.943 113.191C185.926 113.837 186.938 114.416 187.966 114.978C190.037 116.054 192.184 116.947 194.391 117.559C195.495 117.89 196.629 118.105 197.747 118.321L198.594 118.453L199.017 118.519L199.44 118.569L200.287 118.651L201.149 118.701C202.297 118.784 203.431 118.767 204.58 118.734C204.867 118.734 205.155 118.718 205.442 118.685L206.303 118.635C206.591 118.618 206.878 118.585 207.165 118.552L208.027 118.469C210.309 118.188 212.562 117.725 214.769 117.096C216.976 116.451 219.153 115.64 221.269 114.697C225.502 112.794 229.523 110.329 233.363 107.549C237.188 104.786 240.831 101.708 244.368 98.4984C247.906 95.2885 251.352 91.9462 254.799 88.6205C258.246 85.2947 261.723 81.969 265.351 78.8418C267.165 77.2864 269.039 75.7973 270.974 74.4074C271.942 73.7291 272.924 73.0507 273.937 72.4385C274.95 71.8097 275.978 71.2471 277.036 70.7177L277.837 70.3371C278.11 70.2048 278.382 70.1055 278.654 69.9897L279.062 69.8076C279.198 69.758 279.334 69.7084 279.47 69.6422C279.742 69.5429 280.014 69.4271 280.302 69.3278C281.405 68.9473 282.539 68.6329 283.688 68.4012C284.837 68.2027 286.001 68.0703 287.18 68.0703L288.057 68.0869L288.495 68.1034C288.571 68.1034 288.646 68.1034 288.707 68.1034L288.918 68.12C289.493 68.1861 290.082 68.2192 290.657 68.3185L291.518 68.4674L292.38 68.666L292.803 68.7652C292.939 68.7983 293.091 68.848 293.227 68.8811L294.073 69.1293C295.192 69.5098 296.28 69.9566 297.338 70.5191C298.397 71.0486 299.41 71.6939 300.392 72.3723L301.118 72.9018C301.239 72.9845 301.36 73.0838 301.481 73.1665L301.828 73.4478L302.539 74.0103L303.219 74.606C303.688 74.9865 304.111 75.4167 304.564 75.8139C305.003 76.2275 305.426 76.6577 305.865 77.0879C306.711 77.9483 307.542 78.8418 308.329 79.7518C309.931 81.5719 311.458 83.4747 312.954 85.3775C315.948 89.2161 318.835 93.1375 321.843 96.9266C324.852 100.716 327.981 104.405 331.337 107.814C333.015 109.518 334.753 111.156 336.537 112.728C338.321 114.283 340.165 115.789 342.085 117.162C342.554 117.526 343.037 117.857 343.521 118.188C344.005 118.519 344.489 118.867 344.972 119.181C345.471 119.495 345.955 119.826 346.454 120.141L347.95 121.067C348.192 121.216 348.449 121.365 348.706 121.514L349.462 121.944L350.218 122.374C350.475 122.523 350.732 122.656 350.989 122.788C351.503 123.053 352.017 123.334 352.531 123.599L354.103 124.36C356.204 125.353 358.336 126.279 360.498 127.09C361.571 127.52 362.674 127.868 363.763 128.248C364.035 128.347 364.307 128.43 364.594 128.513L365.426 128.761L366.257 129.009C366.529 129.092 366.801 129.175 367.089 129.241C375.962 131.723 385.154 132.815 394.314 132.931C394.556 132.931 394.768 133.162 394.768 133.427C394.753 133.725 394.541 133.94 394.299 133.94Z" fill="url(#paint18_radial_544_1699)"/>
<g opacity="0.7">
<path opacity="0.7" d="M394.223 131.193C395.357 131.21 396.264 132.219 396.249 133.46C396.234 134.701 395.312 135.694 394.178 135.677C393.044 135.661 392.137 134.651 392.152 133.41C392.167 132.17 393.089 131.177 394.223 131.193Z" fill="url(#paint19_radial_544_1699)"/>
</g>
</g>
<g opacity="0.8">
<path opacity="0.8" d="M336.053 133.775C335.085 133.593 334.148 133.311 333.226 132.947C332.319 132.567 331.442 132.12 330.595 131.607C328.902 130.598 327.345 129.357 325.849 128.05C322.886 125.402 320.24 122.391 317.7 119.297C315.161 116.203 312.742 113.009 310.338 109.799C307.935 106.589 305.546 103.38 303.112 100.219C300.679 97.059 298.169 93.9483 295.539 91.0031C294.224 89.5305 292.863 88.1076 291.442 86.7342C290.036 85.3775 288.57 84.0703 287.028 82.8956C285.486 81.7208 283.884 80.6453 282.206 79.7684C280.528 78.8749 278.744 78.213 276.93 77.7994C276.703 77.7332 276.476 77.7167 276.249 77.667C276.023 77.6339 275.796 77.5843 275.554 77.5512C275.085 77.5016 274.632 77.4354 274.163 77.4354L273.468 77.4188L272.757 77.4354L271.336 77.4519L269.915 77.4685L268.509 77.5512C267.572 77.6174 266.62 77.6339 265.683 77.7498C261.918 78.0641 258.185 78.6598 254.511 79.5864C250.838 80.5129 247.24 81.8035 243.763 83.3754C243.324 83.5574 242.901 83.7725 242.463 83.9876C242.024 84.2027 241.601 84.4013 241.163 84.6164C240.316 85.0631 239.454 85.4767 238.608 85.9566L237.338 86.6515L236.083 87.363C235.237 87.8428 234.405 88.3227 233.574 88.8025C231.896 89.7787 230.233 90.7549 228.54 91.6981C228.117 91.9462 227.693 92.1613 227.27 92.393C226.847 92.6246 226.424 92.8563 225.985 93.0714L224.7 93.7332C224.262 93.9483 223.839 94.1634 223.4 94.362C219.923 96.0662 216.295 97.3733 212.576 98.2834C212.35 98.333 212.108 98.3992 211.881 98.4488L211.186 98.5977L209.78 98.879C209.553 98.9287 209.311 98.9618 209.069 98.9948L208.359 99.1107L206.953 99.3258C206 99.425 205.063 99.5243 204.111 99.607L201.269 99.756L198.412 99.7891L195.57 99.7063L195.207 99.6898L194.844 99.6732L194.133 99.6236L192.712 99.5243C192.244 99.4912 191.76 99.4416 191.291 99.392L189.87 99.2265C186.091 98.7467 182.357 97.9524 178.699 96.8108C175.041 95.6856 171.473 94.2296 167.981 92.6412C164.489 91.0362 161.042 89.2989 157.58 87.6277C154.119 85.9566 150.611 84.3847 147.044 83.0445C143.476 81.7043 139.818 80.5791 136.129 79.7353C132.426 78.8914 128.677 78.3123 124.912 77.9318C123.975 77.849 123.023 77.7663 122.086 77.7001L119.259 77.5512C118.79 77.5181 118.306 77.5181 117.838 77.5016L116.417 77.4685L114.996 77.4354H113.575L90.8536 77.4023L0 77.3361L90.8839 77.2203L113.605 77.1872H115.026L116.447 77.2037L117.868 77.2203C118.336 77.2203 118.82 77.2368 119.289 77.2534L122.131 77.3857C123.083 77.4519 124.02 77.5347 124.973 77.6174C128.752 77.9814 132.516 78.544 136.235 79.3878C139.954 80.2317 143.612 81.3402 147.21 82.6805C150.808 84.0207 154.315 85.5926 157.792 87.2472C161.269 88.9018 164.701 90.6391 168.193 92.2275C171.685 93.8159 175.237 95.2389 178.88 96.3475C186.152 98.5977 193.74 99.4416 201.284 99.2099L204.111 99.0445C205.048 98.9618 205.985 98.8459 206.923 98.7467L208.328 98.5316L209.024 98.4157C209.251 98.3826 209.492 98.3495 209.719 98.2999L211.11 98.0186L211.805 97.8697C212.032 97.8201 212.259 97.7539 212.501 97.7043C216.174 96.7942 219.772 95.4871 223.204 93.7994C223.627 93.5843 224.065 93.3857 224.489 93.1706L225.774 92.5088C226.197 92.2937 226.62 92.0621 227.043 91.8304C227.467 91.5988 227.89 91.3671 228.313 91.1355C229.991 90.1924 231.654 89.1996 233.332 88.2234C234.164 87.7436 235.01 87.2472 235.842 86.7673L237.111 86.0559L238.381 85.3609C239.228 84.8811 240.089 84.4674 240.951 84.0042C241.389 83.7891 241.813 83.574 242.251 83.3754C242.69 83.1603 243.113 82.9452 243.566 82.7632C247.073 81.1582 250.702 79.8511 254.405 78.908C258.109 77.9483 261.888 77.3526 265.668 77.0217C266.62 76.9059 267.557 76.8894 268.509 76.8232L269.931 76.7404L271.352 76.7074L272.773 76.6743L273.483 76.6577L274.209 76.6743C274.692 76.6743 275.176 76.7404 275.645 76.7901C275.887 76.8232 276.129 76.8728 276.355 76.9059C276.597 76.9555 276.839 76.9721 277.066 77.0383C278.955 77.4519 280.785 78.1469 282.523 79.0569C284.262 79.9669 285.894 81.0424 287.466 82.2503C289.038 83.4416 290.52 84.7653 291.956 86.1386C293.392 87.5119 294.768 88.9514 296.098 90.4405C298.774 93.4023 301.283 96.5129 303.732 99.6732C306.181 102.834 308.585 106.06 310.988 109.253C313.392 112.447 315.811 115.64 318.35 118.701C320.875 121.762 323.521 124.724 326.423 127.322C327.889 128.612 329.416 129.804 331.049 130.763C331.865 131.243 332.712 131.673 333.573 132.037C334.435 132.385 335.327 132.649 336.234 132.815H336.249C336.491 132.865 336.657 133.113 336.612 133.377C336.536 133.642 336.31 133.824 336.053 133.775Z" fill="url(#paint20_radial_544_1699)"/>
<g opacity="0.8">
<path opacity="0.8" d="M336.204 131.028C337.322 131.144 338.154 132.219 338.063 133.46C337.972 134.701 336.975 135.595 335.841 135.495C334.707 135.396 333.891 134.304 333.982 133.063C334.087 131.839 335.085 130.929 336.204 131.028Z" fill="url(#paint21_radial_544_1699)"/>
</g>
</g>
<g opacity="0.9">
<path opacity="0.9" d="M382.583 124.624C378.32 124.509 374.057 123.863 369.96 122.507C367.919 121.828 365.909 121.001 363.974 120.025C362.039 119.032 360.164 117.907 358.365 116.649C354.753 114.167 351.442 111.222 348.252 108.161C345.062 105.1 342.009 101.907 338.864 98.8127C335.72 95.7352 332.5 92.7403 329.038 90.1095C325.592 87.4622 321.918 85.1788 318.048 83.3918C314.178 81.6049 310.112 80.3308 305.97 79.5366C303.899 79.1395 301.812 78.8748 299.711 78.6928L298.139 78.577L296.567 78.5108C296.038 78.4777 295.509 78.4777 294.995 78.4777C294.466 78.4777 293.936 78.4611 293.407 78.4777C291.306 78.4777 289.19 78.577 287.088 78.7424C284.987 78.9079 282.886 79.1726 280.815 79.5201C276.658 80.2316 272.546 81.3401 268.585 82.8789C264.609 84.4177 260.785 86.3701 257.111 88.6369C253.423 90.8872 249.885 93.4187 246.348 95.9337C242.795 98.4487 239.228 100.964 235.449 103.098C231.684 105.233 227.693 106.953 223.551 108.045C219.424 109.154 215.146 109.584 210.913 109.535C206.666 109.485 202.433 108.856 198.306 107.764C194.179 106.689 190.143 105.199 186.212 103.512C182.267 101.824 178.397 99.9378 174.542 98.0351C170.687 96.1323 166.847 94.1798 162.977 92.3432C159.107 90.4901 155.192 88.7362 151.231 87.1478C143.31 83.9544 135.132 81.4725 126.787 79.9834C122.615 79.2388 118.412 78.7259 114.194 78.4446L113.408 78.3949L112.622 78.3619L111.035 78.2791L109.448 78.2295L108.662 78.2129L107.875 78.1964L106.288 78.1798H104.701H101.526L0 78.0475L101.511 77.9317H104.686H106.273L107.86 77.9482H108.662L109.448 77.9648L111.035 78.0144L112.622 78.0806L113.408 78.1137L114.194 78.1633C118.427 78.428 122.63 78.941 126.817 79.6855C135.177 81.1581 143.385 83.6235 151.337 86.8169C155.313 88.4053 159.243 90.1592 163.113 91.9958C166.998 93.8324 170.838 95.7682 174.693 97.671C178.548 99.5738 182.418 101.444 186.348 103.115C190.279 104.786 194.3 106.258 198.397 107.317C202.493 108.376 206.696 108.989 210.913 109.038C215.116 109.071 219.349 108.624 223.43 107.532C227.527 106.457 231.458 104.736 235.192 102.618C238.941 100.5 242.478 97.9854 246.03 95.4539C249.568 92.9223 253.12 90.3743 256.809 88.1074C260.513 85.8406 264.367 83.8386 268.374 82.2833C272.38 80.7279 276.522 79.6028 280.709 78.8582C282.81 78.4942 284.912 78.2295 287.043 78.064C289.159 77.8986 291.276 77.7827 293.407 77.7827C293.936 77.7662 294.466 77.7827 294.995 77.7827C295.524 77.7827 296.053 77.7827 296.582 77.8158L298.169 77.882L299.757 77.9978C301.873 78.1633 303.989 78.4446 306.091 78.8251C310.278 79.6028 314.405 80.8934 318.335 82.6969C322.266 84.5004 325.985 86.8003 329.477 89.4642C332.969 92.1116 336.234 95.123 339.394 98.2005C342.553 101.295 345.622 104.471 348.796 107.516C351.971 110.56 355.251 113.456 358.819 115.888C360.603 117.113 362.432 118.221 364.337 119.181C366.241 120.141 368.207 120.951 370.202 121.613C374.223 122.92 378.396 123.549 382.598 123.648C382.84 123.648 383.052 123.88 383.037 124.145C383.037 124.409 382.84 124.624 382.583 124.624Z" fill="url(#paint22_radial_544_1699)"/>
<g opacity="0.9">
<path opacity="0.9" d="M382.507 121.878C383.641 121.878 384.548 122.887 384.548 124.128C384.548 125.369 383.626 126.362 382.492 126.362C381.358 126.362 380.451 125.353 380.451 124.112C380.451 122.871 381.374 121.878 382.507 121.878Z" fill="url(#paint23_radial_544_1699)"/>
</g>
</g>
<g opacity="0.6">
<path opacity="0.6" d="M402.628 106.441C400.3 106.292 397.987 105.944 395.735 105.332C393.467 104.736 391.275 103.826 389.189 102.701C387.103 101.593 385.107 100.269 383.203 98.8294C381.298 97.3899 379.469 95.8677 377.64 94.3124C375.826 92.7736 374.027 91.2183 372.167 89.7457C370.323 88.2731 368.418 86.8832 366.438 85.6257L365.697 85.1624L365.319 84.9308L364.941 84.7157C364.427 84.4344 363.928 84.1366 363.415 83.8553L361.857 83.0776C361.6 82.9452 361.328 82.8294 361.071 82.7136L360.285 82.3661C360.013 82.2503 359.756 82.1345 359.484 82.0187L358.683 81.7208L357.882 81.423L357.473 81.2741L357.065 81.1417L355.418 80.6288C354.873 80.4633 354.314 80.3475 353.755 80.1986L352.923 79.9835L352.077 79.818C351.517 79.7188 350.958 79.6029 350.399 79.4871L348.706 79.2555L347.859 79.1397L347.012 79.0735L345.304 78.9411C345.168 78.9246 345.017 78.9246 344.881 78.9246L344.458 78.908L343.596 78.8915C342.447 78.8584 341.313 78.8253 340.18 78.9246L339.756 78.9577C339.62 78.9742 339.469 78.9907 339.333 79.0073L338.486 79.1066C337.927 79.2058 337.368 79.272 336.808 79.4044C335.69 79.6195 334.586 79.9173 333.498 80.2813L332.681 80.5626L331.88 80.8604C331.608 80.9597 331.351 81.0755 331.079 81.1914C330.822 81.3072 330.55 81.4065 330.278 81.5388C329.22 82.0187 328.192 82.5481 327.179 83.1107C323.128 85.4106 319.409 88.3723 315.841 91.5161C312.273 94.6764 308.872 98.0518 305.38 101.328C301.903 104.621 298.335 107.847 294.496 110.66C292.576 112.066 290.58 113.357 288.525 114.499C286.453 115.624 284.307 116.583 282.07 117.295C279.847 118.023 277.55 118.486 275.252 118.701C274.103 118.8 272.939 118.85 271.775 118.817C270.611 118.8 269.462 118.701 268.313 118.552L267.451 118.42C267.315 118.403 267.164 118.37 267.028 118.354L266.605 118.271L265.743 118.106L264.897 117.907L264.473 117.808L264.05 117.692L263.203 117.46C262.644 117.278 262.085 117.113 261.541 116.898C260.437 116.517 259.364 116.037 258.29 115.541C257.761 115.276 257.232 115.028 256.718 114.747C256.189 114.482 255.69 114.184 255.176 113.886C251.095 111.487 247.376 108.443 243.869 105.183C240.346 101.924 237.036 98.4323 233.665 95.0073C230.294 91.5823 226.892 88.2069 223.173 85.2782C221.314 83.8222 219.379 82.482 217.338 81.3568C215.297 80.2317 213.151 79.3382 210.944 78.7591C209.84 78.4778 208.706 78.2627 207.573 78.1469C207.285 78.1138 206.998 78.0973 206.726 78.0807C206.59 78.0642 206.439 78.0642 206.303 78.0476L205.879 78.0311L205.456 78.0145C205.32 78.0145 205.169 77.998 205.033 78.0145L204.186 78.0476C201.904 78.1469 199.651 78.6267 197.474 79.3713C195.298 80.1159 193.196 81.1252 191.171 82.2834C189.145 83.4416 187.18 84.7322 185.245 86.089C181.375 88.8025 177.626 91.7146 173.68 94.3289C171.715 95.636 169.689 96.8605 167.603 97.9359C165.517 99.0114 163.34 99.9049 161.103 100.534C158.865 101.162 156.568 101.526 154.255 101.576C151.942 101.609 149.629 101.411 147.361 100.931C145.094 100.451 142.871 99.6898 140.755 98.7136C138.624 97.7374 136.583 96.5792 134.572 95.3382C130.566 92.8398 126.711 90.1097 122.645 87.7601C122.146 87.4623 121.632 87.181 121.118 86.8997L120.347 86.4695L119.576 86.0559C119.062 85.7912 118.548 85.5099 118.019 85.2617L116.447 84.5006C116.19 84.3682 115.918 84.2524 115.646 84.1366L114.844 83.7891L114.043 83.4416C113.771 83.3258 113.499 83.2265 113.242 83.1107L111.624 82.4654L109.992 81.8863C105.623 80.3641 101.103 79.3713 96.5376 78.726C91.9874 78.0973 87.3918 77.8491 82.7962 77.8491L55.2076 77.816L0 77.7498L55.1622 77.6836L82.7509 77.6505C87.3465 77.6505 91.9572 77.8822 96.5225 78.5109C101.088 79.1397 105.623 80.1159 110.007 81.6381L111.655 82.2172L113.287 82.846C113.559 82.9618 113.832 83.0445 114.104 83.1769L114.905 83.5244L115.706 83.8718C115.978 83.9876 116.235 84.1035 116.507 84.2358L118.095 84.997C118.624 85.2451 119.138 85.5264 119.652 85.7912L120.438 86.2048L121.209 86.635C121.723 86.9163 122.237 87.1976 122.736 87.4954C126.817 89.8449 130.687 92.575 134.678 95.0404C136.673 96.2813 138.714 97.423 140.831 98.3827C142.947 99.3423 145.139 100.103 147.391 100.567C149.644 101.03 151.927 101.229 154.209 101.196C156.492 101.146 158.775 100.782 160.982 100.153C163.189 99.5244 165.351 98.6309 167.422 97.5719C169.493 96.513 171.503 95.2886 173.453 93.9814C177.369 91.3672 181.118 88.4385 184.988 85.725C186.923 84.3682 188.903 83.0611 190.944 81.8863C192.985 80.7115 195.116 79.6857 197.323 78.9246C199.53 78.1634 201.828 77.6671 204.141 77.5678L205.018 77.5347C205.169 77.5182 205.305 77.5347 205.456 77.5347L205.895 77.5512L206.333 77.5678C206.484 77.5678 206.62 77.5843 206.771 77.6009C207.059 77.6174 207.346 77.634 207.633 77.6671C208.782 77.7829 209.931 77.998 211.065 78.2793C213.317 78.8584 215.509 79.7684 217.565 80.8935C219.636 82.0187 221.601 83.3754 223.476 84.8315C227.24 87.7767 230.656 91.1686 234.043 94.5771C237.414 98.0021 240.739 101.477 244.247 104.703C247.739 107.946 251.442 110.941 255.479 113.307C255.993 113.588 256.491 113.886 257.005 114.151C257.519 114.432 258.033 114.681 258.562 114.929C259.606 115.409 260.679 115.872 261.752 116.252C262.296 116.467 262.841 116.616 263.385 116.798L264.216 117.03L264.624 117.146L265.048 117.245L265.879 117.444L266.726 117.609L267.149 117.692C267.285 117.725 267.436 117.742 267.572 117.758L268.419 117.89C269.553 118.023 270.686 118.122 271.82 118.139C272.954 118.172 274.103 118.122 275.237 118.023C277.504 117.808 279.757 117.344 281.933 116.616C284.125 115.921 286.242 114.962 288.283 113.853C290.323 112.728 292.289 111.454 294.178 110.048C297.973 107.251 301.51 104.041 304.972 100.749C308.449 97.4561 311.85 94.0807 315.433 90.8873C319.001 87.7105 322.75 84.6991 326.877 82.3661C327.905 81.787 328.963 81.241 330.036 80.7612C330.308 80.6288 330.58 80.5295 330.852 80.4137C331.124 80.2979 331.397 80.1821 331.669 80.0828L332.485 79.7684L333.316 79.4871C334.435 79.1231 335.554 78.8087 336.703 78.5936C337.277 78.4613 337.852 78.3951 338.426 78.2958L339.288 78.1965C339.439 78.18 339.575 78.1634 339.726 78.1469L340.164 78.1138C341.328 78.0145 342.492 78.0311 343.641 78.0642L344.503 78.0807L344.941 78.0973C345.093 78.0973 345.229 78.0973 345.38 78.1138L347.118 78.2462L347.98 78.3124L348.842 78.4282L350.565 78.6598C351.139 78.7591 351.714 78.8749 352.273 78.9907L353.135 79.1562L353.981 79.3713C354.541 79.5202 355.115 79.6526 355.675 79.8015L357.353 80.331L357.776 80.4633L358.184 80.6123L359 80.9266L359.817 81.241C360.089 81.3403 360.361 81.4727 360.633 81.5885L361.434 81.9359C361.706 82.0518 361.978 82.1676 362.235 82.2999L363.823 83.0942C364.337 83.3754 364.851 83.6733 365.365 83.9546L365.758 84.1697L366.136 84.4013L366.891 84.8646C368.902 86.1221 370.822 87.5285 372.696 89.0176C374.571 90.4902 376.385 92.0456 378.199 93.5843C380.013 95.1231 381.842 96.6453 383.732 98.0518C385.621 99.4582 387.572 100.749 389.612 101.841C391.653 102.916 393.785 103.793 395.992 104.389C398.199 104.985 400.451 105.315 402.719 105.464H402.734C402.976 105.481 403.172 105.713 403.157 105.994C403.082 106.242 402.87 106.457 402.628 106.441Z" fill="url(#paint24_radial_544_1699)"/>
<g opacity="0.6">
<path opacity="0.6" d="M402.598 103.694C403.732 103.727 404.609 104.769 404.578 105.994C404.548 107.235 403.596 108.194 402.477 108.161C401.358 108.128 400.466 107.086 400.497 105.861C400.527 104.637 401.479 103.661 402.598 103.694Z" fill="url(#paint25_radial_544_1699)"/>
</g>
</g>
<g opacity="0.4">
<path opacity="0.4" d="M373.709 142.263C369.461 142.081 365.213 141.435 361.102 140.178C356.99 138.954 353.014 137.2 349.265 135.016C345.516 132.831 341.963 130.234 338.623 127.355C335.282 124.492 332.137 121.365 329.129 118.106C326.121 114.846 323.233 111.454 320.376 108.046C317.519 104.637 314.692 101.212 311.699 97.9525C310.202 96.3309 308.66 94.7591 307.043 93.3196C305.41 91.8801 303.702 90.5564 301.843 89.5471C300.905 89.0507 299.953 88.6205 298.955 88.3227C297.958 88.0248 296.945 87.8594 295.917 87.8263H295.539C295.418 87.8263 295.282 87.8428 295.146 87.8428L294.36 87.8759C293.831 87.8925 293.317 87.9587 292.803 88.0083C291.76 88.1241 290.732 88.3061 289.704 88.5378C287.663 89.0011 285.683 89.7622 283.778 90.7053C281.873 91.6484 280.074 92.8232 278.305 94.0807C276.552 95.3382 274.844 96.695 273.075 97.9856C272.198 98.6308 271.291 99.2596 270.384 99.8552C269.462 100.434 268.51 100.98 267.542 101.46C265.577 102.403 263.491 103.065 261.359 103.264C259.228 103.495 257.066 103.346 254.965 102.883C252.863 102.42 250.838 101.642 248.903 100.649C246.968 99.6567 245.139 98.4654 243.37 97.1748C239.848 94.5771 236.582 91.6153 233.272 88.7529C231.609 87.3134 229.946 85.907 228.223 84.5833C226.499 83.2596 224.73 82.0186 222.871 80.9432C221.012 79.8677 219.077 78.9742 217.066 78.3289C215.056 77.7001 212.969 77.3361 210.883 77.303C208.797 77.2534 206.711 77.6174 204.685 78.18C202.66 78.7591 200.694 79.5864 198.759 80.4964C196.824 81.423 194.935 82.4323 193.03 83.4416C191.14 84.4674 189.236 85.4768 187.316 86.4364C185.396 87.3961 183.431 88.3061 181.45 89.1003C179.455 89.8945 177.429 90.5895 175.373 91.1355C174.859 91.2679 174.345 91.4168 173.831 91.5326L173.06 91.7146C172.803 91.7808 172.546 91.8304 172.274 91.8801L170.702 92.1779L169.13 92.4095C167.029 92.6743 164.912 92.8232 162.781 92.8397C162.509 92.8397 162.252 92.8232 161.979 92.8232C161.707 92.8066 161.45 92.8066 161.178 92.7901L160.377 92.7239C160.105 92.6908 159.848 92.6743 159.591 92.6412C158.533 92.5088 157.49 92.3268 156.447 92.0952C154.36 91.665 152.305 91.1024 150.264 90.4737C146.182 89.2327 142.176 87.7767 138.17 86.2875C134.164 84.7984 130.173 83.2761 126.167 81.8532C124.157 81.1417 122.146 80.4468 120.12 79.818C118.095 79.1893 116.054 78.6102 113.983 78.1303C111.927 77.667 109.826 77.2865 107.724 77.2037L106.938 77.1707H106.152H104.565H101.39L0 77.0383L101.405 76.9225H104.58H106.167H106.953L107.755 76.9556C109.871 77.0383 111.972 77.4023 114.043 77.8656C116.114 78.3289 118.17 78.908 120.196 79.5367C122.237 80.1655 124.247 80.8439 126.258 81.5553C130.279 82.9783 134.27 84.484 138.276 85.9731C142.282 87.4457 146.288 88.9018 150.354 90.1262C152.38 90.7384 154.436 91.2844 156.507 91.7146C157.535 91.9297 158.578 92.1117 159.621 92.2441C159.878 92.2937 160.15 92.3103 160.407 92.3268L161.193 92.393C161.45 92.4095 161.722 92.4095 161.979 92.4261C162.236 92.4261 162.509 92.4426 162.766 92.4426C164.867 92.4261 166.968 92.2772 169.069 92.0124L170.626 91.7808L172.184 91.483C172.441 91.4333 172.697 91.3837 172.954 91.3175L173.725 91.1355C174.239 91.0197 174.753 90.8873 175.267 90.7384C177.308 90.1758 179.319 89.4974 181.299 88.7032C183.279 87.909 185.214 87.0155 187.134 86.0393C189.054 85.0797 190.944 84.0538 192.833 83.0279C194.723 82.0021 196.628 80.9762 198.563 80.0497C200.498 79.1231 202.493 78.2792 204.549 77.6836C206.605 77.0879 208.737 76.7239 210.868 76.7736C213 76.7901 215.131 77.1541 217.187 77.7994C219.243 78.4447 221.208 79.3547 223.098 80.4302C224.987 81.5223 226.771 82.7632 228.51 84.1034C230.248 85.4271 231.926 86.8501 233.589 88.273C236.915 91.1355 240.165 94.0807 243.672 96.6453C245.426 97.9194 247.24 99.0941 249.129 100.07C251.019 101.047 253.015 101.808 255.055 102.254C257.096 102.701 259.197 102.834 261.268 102.602C263.34 102.403 265.365 101.742 267.27 100.831C268.222 100.368 269.144 99.8387 270.051 99.2596C270.958 98.6805 271.835 98.0683 272.712 97.4064C274.466 96.1159 276.159 94.7591 277.943 93.485C279.711 92.211 281.54 91.0031 283.491 90.0435C285.426 89.0672 287.466 88.2896 289.553 87.8097C290.596 87.5616 291.654 87.3796 292.712 87.2637C293.241 87.2141 293.77 87.1314 294.314 87.1148L295.116 87.0817C295.252 87.0817 295.388 87.0652 295.524 87.0652H295.932C297.02 87.0817 298.094 87.2637 299.152 87.5781C300.195 87.8925 301.193 88.3392 302.16 88.8521C304.095 89.8945 305.849 91.2513 307.512 92.7074C309.159 94.18 310.732 95.7518 312.228 97.3899C315.236 100.649 318.078 104.091 320.951 107.483C323.808 110.891 326.695 114.267 329.688 117.493C332.697 120.736 335.811 123.83 339.137 126.66C342.447 129.489 345.954 132.054 349.673 134.205C353.377 136.356 357.292 138.077 361.344 139.268C365.38 140.476 369.567 141.121 373.755 141.286C373.996 141.303 374.193 141.518 374.193 141.799C374.178 142.064 373.966 142.279 373.709 142.263Z" fill="url(#paint26_radial_544_1699)"/>
<g opacity="0.4">
<path opacity="0.4" d="M373.664 139.516C374.798 139.533 375.69 140.558 375.675 141.799C375.659 143.04 374.722 144.017 373.588 144C372.455 143.983 371.563 142.958 371.578 141.717C371.608 140.492 372.53 139.5 373.664 139.516Z" fill="url(#paint27_radial_544_1699)"/>
</g>
</g>
<g opacity="0.5">
<path opacity="0.5" d="M370.731 103.396C366.634 102.999 362.598 102.056 358.713 100.65C357.746 100.302 356.778 99.9215 355.826 99.5244C354.873 99.1107 353.921 98.6971 352.984 98.2503C351.109 97.3569 349.265 96.3806 347.451 95.3382C343.823 93.27 340.331 90.9536 336.884 88.5875C333.422 86.2214 330.021 83.8057 326.544 81.5058C323.067 79.2224 319.515 77.0549 315.781 75.3506C313.921 74.5068 312.001 73.7788 310.051 73.2328C309.069 72.968 308.086 72.7364 307.103 72.5709C306.106 72.4055 305.108 72.2731 304.11 72.2234L303.732 72.2069H303.354C303.097 72.2069 302.856 72.1904 302.599 72.1904L301.072 72.2069L299.545 72.2234L298.033 72.2896L296.521 72.3558L295.01 72.4716L293.498 72.604L291.986 72.7695C291.487 72.8356 290.974 72.8687 290.475 72.9515L288.963 73.1831C287.95 73.3155 286.967 73.5306 285.955 73.696C285.456 73.7788 284.957 73.8946 284.458 74.0104L282.961 74.3413L281.48 74.7054C280.981 74.8212 280.497 74.9535 279.999 75.1025L278.532 75.5161C278.048 75.665 277.565 75.8139 277.066 75.9794C276.083 76.2772 275.131 76.6247 274.163 76.9722C272.243 77.6836 270.339 78.4448 268.464 79.2886C266.59 80.1324 264.73 81.0259 262.886 81.9691C261.042 82.9122 259.213 83.8884 257.383 84.8481C255.554 85.8077 253.695 86.7674 251.805 87.6113C250.853 88.0414 249.9 88.422 248.918 88.7695C248.434 88.9349 247.935 89.0839 247.436 89.2493L246.68 89.4479C246.423 89.514 246.182 89.5802 245.925 89.6299L245.169 89.7788C245.048 89.7953 244.912 89.8284 244.791 89.845L244.413 89.8946L243.642 89.9773C243.385 90.0104 243.128 89.9939 242.871 90.0104L242.478 90.027C242.342 90.027 242.221 90.0435 242.085 90.027L241.314 89.9939C240.8 89.9939 240.286 89.9111 239.772 89.8615C239.651 89.845 239.515 89.8284 239.394 89.8119L239.016 89.7457L238.26 89.5968C238.003 89.5471 237.761 89.4644 237.504 89.3982L237.126 89.299C237.006 89.2659 236.869 89.2328 236.749 89.1831L236.008 88.9184C235.887 88.8688 235.766 88.8357 235.645 88.786L235.282 88.6371L234.557 88.3227L233.861 87.9587C231.987 86.999 230.294 85.6919 228.691 84.3186C227.089 82.9287 225.577 81.423 224.05 79.967C222.508 78.5109 220.951 77.088 219.273 75.8636C217.595 74.6557 215.796 73.6133 213.892 72.9184C211.987 72.2234 209.976 71.8594 207.966 71.7932C205.955 71.7436 203.914 71.8429 201.934 72.2069C199.938 72.5544 197.973 73.0673 196.053 73.7788C194.134 74.4737 192.274 75.3672 190.46 76.3434C186.832 78.3289 183.415 80.7447 179.984 83.1438C178.261 84.3351 176.537 85.5099 174.753 86.6185C172.97 87.7105 171.14 88.7198 169.236 89.5471C167.331 90.3744 165.366 91.0197 163.34 91.3837C161.314 91.7643 159.258 91.8636 157.218 91.7312C153.121 91.4665 149.13 90.4241 145.215 89.1831C141.299 87.9256 137.444 86.5027 133.559 85.179C131.609 84.5171 129.674 83.8884 127.709 83.2762C125.744 82.6805 123.779 82.118 121.798 81.6216C113.877 79.5864 105.774 78.3786 97.6563 77.9649C93.5898 77.7333 89.5233 77.7664 85.4568 77.7664H73.2422H48.8282L0 77.7829L48.8282 77.6505L73.2422 77.5844L85.4568 77.5513C89.5233 77.5347 93.6049 77.5016 97.6714 77.7167C105.804 78.1304 113.922 79.3051 121.859 81.3238C123.839 81.8201 125.819 82.3827 127.785 82.9784C129.75 83.574 131.7 84.2028 133.65 84.8646C137.535 86.1718 141.405 87.5947 145.305 88.8357C149.206 90.0601 153.181 91.0859 157.233 91.3341C159.258 91.4665 161.284 91.3507 163.264 90.9701C165.26 90.5895 167.195 89.9608 169.085 89.1335C172.849 87.4789 176.326 85.1459 179.742 82.7467C183.174 80.3475 186.59 77.9153 190.248 75.8967C192.078 74.8874 193.952 73.9939 195.902 73.2824C197.837 72.5709 199.833 72.0249 201.858 71.6774C203.884 71.3134 205.94 71.1976 207.981 71.2472C210.037 71.3134 212.093 71.6774 214.043 72.3889C216.008 73.1004 217.837 74.1428 219.56 75.3837C221.269 76.6247 222.856 78.0642 224.398 79.5037C225.94 80.9597 227.452 82.4489 229.039 83.8222C230.626 85.179 232.289 86.453 234.118 87.3796L234.798 87.7271L235.494 88.0249L235.842 88.1738C235.962 88.2235 236.083 88.2565 236.204 88.3062L236.915 88.5544C237.036 88.604 237.157 88.6371 237.278 88.6702L237.64 88.7695C237.882 88.8357 238.124 88.9184 238.366 88.9515L239.107 89.0839L239.47 89.15C239.591 89.1666 239.712 89.1831 239.848 89.1997C240.346 89.2493 240.845 89.332 241.344 89.332L242.1 89.3651C242.221 89.3817 242.357 89.3651 242.478 89.3651L242.856 89.3486C243.113 89.332 243.355 89.332 243.612 89.3155L244.352 89.2328L244.73 89.1831C244.851 89.1666 244.972 89.1335 245.108 89.1169L245.849 88.968C246.091 88.9349 246.333 88.8522 246.59 88.786L247.331 88.604C247.814 88.4551 248.298 88.3062 248.782 88.1407C249.734 87.7933 250.686 87.4127 251.624 86.999C253.498 86.1552 255.327 85.2121 257.157 84.2359C258.986 83.2762 260.815 82.2834 262.659 81.3403C264.504 80.3972 266.363 79.4872 268.253 78.6268C270.142 77.7664 272.062 77.0052 273.982 76.2772C274.949 75.9298 275.917 75.5823 276.9 75.2679C277.383 75.119 277.882 74.9535 278.366 74.8046L279.847 74.3744C280.346 74.2255 280.845 74.1097 281.329 73.9773L282.825 73.5968L284.322 73.2658C284.821 73.15 285.32 73.0342 285.834 72.9515C286.847 72.7695 287.844 72.5544 288.857 72.422L290.369 72.1904C290.868 72.1076 291.382 72.0745 291.896 72.0084L293.422 71.8263L294.949 71.694L296.476 71.5616L298.003 71.4789L299.53 71.3961L301.057 71.3631L302.583 71.33C302.84 71.33 303.097 71.33 303.354 71.3465H303.747L304.14 71.3631C305.168 71.4127 306.196 71.5451 307.209 71.7105C308.222 71.876 309.235 72.1076 310.233 72.3889C312.228 72.9349 314.178 73.6795 316.068 74.5233C319.862 76.2441 323.445 78.4117 326.937 80.7116C330.444 83.0115 333.861 85.4272 337.307 87.7767C340.754 90.1262 344.246 92.4096 347.844 94.4613C349.643 95.4872 351.472 96.4468 353.316 97.3238C354.238 97.7705 355.176 98.1842 356.128 98.5813C357.081 98.9618 358.018 99.3424 358.985 99.6899C362.825 101.08 366.801 101.99 370.807 102.37C371.049 102.387 371.245 102.635 371.215 102.9C371.2 103.214 370.973 103.413 370.731 103.396Z" fill="url(#paint28_radial_544_1699)"/>
<g opacity="0.5">
<path opacity="0.5" d="M370.807 100.649C371.941 100.732 372.787 101.808 372.696 103.049C372.621 104.29 371.638 105.216 370.504 105.117C369.371 105.018 368.524 103.959 368.615 102.718C368.706 101.493 369.688 100.567 370.807 100.649Z" fill="url(#paint29_radial_544_1699)"/>
</g>
</g>
<g opacity="0.9">
<path opacity="0.9" d="M417.05 95.7519C412.53 95.6691 408.01 95.3051 403.535 94.6929C399.045 94.0807 394.601 93.2038 390.187 92.1448C381.359 90.0269 372.757 86.999 364.186 84.0042C362.039 83.2596 359.892 82.515 357.73 81.8201C355.569 81.1252 353.407 80.4468 351.23 79.8677C349.053 79.2886 346.861 78.7756 344.639 78.4116C342.432 78.0642 340.195 77.8491 337.973 77.8656H337.141L336.31 77.9152L334.632 78.0145C334.072 78.0642 333.513 78.1303 332.954 78.18L332.122 78.2627C331.85 78.2958 331.563 78.3454 331.291 78.3785L329.628 78.6267L327.98 78.9576C327.708 79.0238 327.421 79.0569 327.149 79.1231L326.332 79.3216L325.516 79.5202C325.38 79.5533 325.244 79.5864 325.108 79.6195L324.7 79.7353C320.361 80.9432 316.189 82.8129 312.228 85.0962C310.248 86.2544 308.313 87.4954 306.408 88.786C304.488 90.0766 302.599 91.4002 300.664 92.6908C298.729 93.9814 296.778 95.2058 294.723 96.2813C292.682 97.3568 290.535 98.2338 288.313 98.8129C286.106 99.392 283.808 99.6733 281.54 99.6236L279.832 99.574C279.273 99.5243 278.698 99.4582 278.139 99.4085L277.716 99.3589L277.293 99.2927L276.446 99.1438C276.159 99.0941 275.887 99.0611 275.599 98.9949L274.768 98.7963C272.546 98.2668 270.384 97.4726 268.313 96.4468C266.242 95.4375 264.262 94.2131 262.357 92.8894C258.532 90.2255 254.965 87.2306 251.185 84.5833C250.248 83.9049 249.281 83.2761 248.313 82.6474L246.847 81.7374L245.35 80.8935C243.355 79.7849 241.284 78.8253 239.167 78.0145L237.565 77.452L237.172 77.3196L236.764 77.2038L235.947 76.9721L235.131 76.7405L234.934 76.6743L234.723 76.6246L234.315 76.5254L232.667 76.1283C232.123 76.0124 231.563 75.9297 231.004 75.8304L230.173 75.6815C229.901 75.6319 229.613 75.6153 229.341 75.5657L227.678 75.3506C227.119 75.2844 226.56 75.2679 226 75.2182L225.154 75.1521L224.73 75.119L224.307 75.1024L222.629 75.0528C222.342 75.0528 222.07 75.0362 221.783 75.0362L220.936 75.0528C220.377 75.0693 219.817 75.0693 219.258 75.0859C217.021 75.1851 214.783 75.4002 212.561 75.7477C208.117 76.4426 203.778 77.7829 199.576 79.5367C195.373 81.2906 191.322 83.4416 187.149 85.3279C185.063 86.271 182.947 87.1479 180.785 87.8594C178.623 88.5874 176.416 89.1665 174.194 89.5636C169.735 90.3744 165.184 90.5399 160.679 90.0766C158.427 89.8449 156.19 89.4313 153.998 88.8356C151.806 88.24 149.659 87.4788 147.528 86.6515C145.411 85.8077 143.31 84.9142 141.193 84.0704C139.077 83.2265 136.946 82.4488 134.784 81.7705C132.622 81.1086 130.43 80.5461 128.208 80.1324L127.376 79.9835C127.104 79.9339 126.817 79.8842 126.545 79.8346L124.882 79.5698L123.204 79.3547C122.645 79.2886 122.086 79.2389 121.526 79.1893C117.052 78.7425 112.532 78.8418 108.027 78.8087C99.0169 78.7922 90.0071 78.7425 80.9973 78.6598L53.968 78.4116C36.024 78.2627 18.0196 78.0311 0 77.7498C18.0196 77.9814 36.024 78.18 54.0436 78.3289L81.0729 78.5109C90.0827 78.5605 99.0924 78.5936 108.102 78.5936C112.607 78.6102 117.112 78.4943 121.617 78.9411C122.176 78.9907 122.736 79.0404 123.295 79.1066L124.973 79.3216L126.651 79.5864C126.938 79.6195 127.21 79.6691 127.482 79.7353L128.314 79.8842C130.536 80.3144 132.743 80.8604 134.92 81.5223C137.097 82.1841 139.243 82.9618 141.36 83.8056C143.476 84.6495 145.577 85.543 147.694 86.3703C149.81 87.1976 151.957 87.9421 154.134 88.5378C156.311 89.1334 158.533 89.5305 160.77 89.7622C165.245 90.2089 169.765 90.0269 174.194 89.2327C176.401 88.8191 178.593 88.24 180.74 87.5285C182.886 86.8005 184.988 85.9401 187.059 84.9804C191.216 83.0941 195.267 80.9266 199.485 79.1562C203.703 77.3858 208.071 76.0124 212.546 75.301C214.783 74.9535 217.036 74.7219 219.288 74.6226C219.848 74.5895 220.422 74.5895 220.981 74.5729L221.828 74.5564C222.115 74.5564 222.387 74.5729 222.675 74.5729L224.368 74.606L224.791 74.6226L225.214 74.6557L226.061 74.7219C226.62 74.7715 227.195 74.788 227.754 74.8542L229.432 75.0693C229.719 75.1024 229.991 75.1355 230.278 75.1851L231.11 75.3341C231.669 75.4333 232.229 75.5326 232.788 75.6319L234.451 76.029L234.859 76.1283L235.071 76.1779L235.282 76.2441L236.099 76.4757L236.915 76.7074L237.323 76.8232L237.731 76.9721L239.349 77.5347C241.48 78.3454 243.581 79.3217 245.607 80.4302L247.119 81.2906L248.6 82.2007C249.583 82.8294 250.55 83.4582 251.488 84.1365C255.297 86.8005 258.88 89.7953 262.674 92.4261C264.564 93.7332 266.529 94.9411 268.57 95.9339C270.611 96.9266 272.742 97.7043 274.919 98.2172L275.736 98.4158C276.008 98.4819 276.28 98.515 276.567 98.5647L277.398 98.697L277.807 98.7632L278.23 98.7963C278.789 98.846 279.348 98.9121 279.893 98.9618L281.571 99.0114C283.793 99.0445 286.03 98.7798 288.192 98.2007C290.354 97.6215 292.455 96.7612 294.466 95.7022C296.476 94.6433 298.426 93.4189 300.346 92.1283C302.266 90.8377 304.156 89.514 306.075 88.2069C307.995 86.8997 309.93 85.6422 311.926 84.4675C315.917 82.1345 320.134 80.2482 324.533 79.0073L324.942 78.8915C325.078 78.8584 325.214 78.8253 325.35 78.7922L326.181 78.5936L327.013 78.3951C327.285 78.3289 327.572 78.2793 327.844 78.2131L329.522 77.8821L331.2 77.634C331.487 77.6009 331.759 77.5512 332.047 77.5181L332.893 77.4354C333.453 77.3858 334.027 77.3196 334.586 77.2699L336.279 77.1707L337.126 77.121H337.973C340.255 77.1045 342.523 77.303 344.76 77.667C346.997 78.0311 349.22 78.544 351.412 79.1231C353.604 79.7022 355.78 80.3806 357.942 81.059C360.104 81.7539 362.251 82.4985 364.412 83.2265C372.999 86.2048 381.585 89.1996 390.368 91.2844C394.752 92.3434 399.182 93.1872 403.641 93.7994C408.101 94.3951 412.575 94.7425 417.065 94.8253C417.307 94.8253 417.519 95.0569 417.503 95.3216C417.503 95.5367 417.307 95.7519 417.05 95.7519Z" fill="url(#paint30_radial_544_1699)"/>
<g opacity="0.9">
<path opacity="0.9" d="M416.99 93.0051C418.123 93.0216 419.015 94.0475 419 95.2719C418.985 96.5129 418.048 97.4891 416.929 97.4725C415.795 97.456 414.903 96.4301 414.918 95.2057C414.934 93.9813 415.856 92.9885 416.99 93.0051Z" fill="url(#paint31_radial_544_1699)"/>
</g>
</g>
</g>
<defs>
<radialGradient id="paint0_radial_544_1699" cx="0" cy="0" r="1" gradientUnits="userSpaceOnUse" gradientTransform="translate(-22.0733 80.998) scale(393.424 224.248)">
<stop stop-color="#FF9D2D"/>
<stop offset="1" stop-color="#8F3F88"/>
</radialGradient>
<radialGradient id="paint1_radial_544_1699" cx="0" cy="0" r="1" gradientUnits="userSpaceOnUse" gradientTransform="translate(391.922 65.6203) scale(4.08472 51.0097)">
<stop stop-color="#FF9D2D"/>
<stop offset="1" stop-color="#8F3F88"/>
</radialGradient>
<radialGradient id="paint2_radial_544_1699" cx="0" cy="0" r="1" gradientUnits="userSpaceOnUse" gradientTransform="translate(-20.9786 69.6126) scale(373.912 868.363)">
<stop stop-color="#FF9D2D"/>
<stop offset="1" stop-color="#8F3F88"/>
</radialGradient>
<radialGradient id="paint3_radial_544_1699" cx="0" cy="0" r="1" gradientUnits="userSpaceOnUse" gradientTransform="translate(372.255 3.98593) scale(4.08476 51.0027)">
<stop stop-color="#FF9D2D"/>
<stop offset="1" stop-color="#8F3F88"/>
</radialGradient>
<radialGradient id="paint4_radial_544_1699" cx="0" cy="0" r="1" gradientUnits="userSpaceOnUse" gradientTransform="translate(-21.4207 75.5829) scale(381.792 364.097)">
<stop stop-color="#FF9D2D"/>
<stop offset="1" stop-color="#8F3F88"/>
</radialGradient>
<radialGradient id="paint5_radial_544_1699" cx="0" cy="0" r="1" gradientUnits="userSpaceOnUse" gradientTransform="translate(380.222 80.2984) scale(4.06964 50.8213)">
<stop stop-color="#FF9D2D"/>
<stop offset="1" stop-color="#8F3F88"/>
</radialGradient>
<radialGradient id="paint6_radial_544_1699" cx="0" cy="0" r="1" gradientUnits="userSpaceOnUse" gradientTransform="translate(-22.0776 72.7177) scale(393.5 689.424)">
<stop stop-color="#FF9D2D"/>
<stop offset="1" stop-color="#8F3F88"/>
</radialGradient>
<radialGradient id="paint7_radial_544_1699" cx="0" cy="0" r="1" gradientUnits="userSpaceOnUse" gradientTransform="translate(391.922 21.0635) scale(4.07149 50.8333)">
<stop stop-color="#FF9D2D"/>
<stop offset="1" stop-color="#8F3F88"/>
</radialGradient>
<radialGradient id="paint8_radial_544_1699" cx="0" cy="0" r="1" gradientUnits="userSpaceOnUse" gradientTransform="translate(-22.9855 75.8186) scale(409.682 368.604)">
<stop stop-color="#FF9D2D"/>
<stop offset="1" stop-color="#8F3F88"/>
</radialGradient>
<radialGradient id="paint9_radial_544_1699" cx="0" cy="0" r="1" gradientUnits="userSpaceOnUse" gradientTransform="translate(408.218 49.2415) scale(4.07149 50.8329)">
<stop stop-color="#FF9D2D"/>
<stop offset="1" stop-color="#8F3F88"/>
</radialGradient>
<radialGradient id="paint10_radial_544_1699" cx="0" cy="0" r="1" gradientUnits="userSpaceOnUse" gradientTransform="translate(-20.5627 70.8161) scale(366.499 774.108)">
<stop stop-color="#FF9D2D"/>
<stop offset="1" stop-color="#8F3F88"/>
</radialGradient>
<radialGradient id="paint11_radial_544_1699" cx="0" cy="0" r="1" gradientUnits="userSpaceOnUse" gradientTransform="translate(364.891 12.6106) scale(4.07414 50.8769)">
<stop stop-color="#FF9D2D"/>
<stop offset="1" stop-color="#8F3F88"/>
</radialGradient>
<radialGradient id="paint12_radial_544_1699" cx="0" cy="0" r="1" gradientUnits="userSpaceOnUse" gradientTransform="translate(-20.5618 72.988) scale(366.483 612.643)">
<stop stop-color="#FF9D2D"/>
<stop offset="1" stop-color="#8F3F88"/>
</radialGradient>
<radialGradient id="paint13_radial_544_1699" cx="0" cy="0" r="1" gradientUnits="userSpaceOnUse" gradientTransform="translate(364.894 42.3087) scale(4.06961 50.8216)">
<stop stop-color="#FF9D2D"/>
<stop offset="1" stop-color="#8F3F88"/>
</radialGradient>
<radialGradient id="paint14_radial_544_1699" cx="0" cy="0" r="1" gradientUnits="userSpaceOnUse" gradientTransform="translate(-21.5247 79.9849) scale(383.646 481.6)">
<stop stop-color="#FF9D2D"/>
<stop offset="1" stop-color="#8F3F88"/>
</radialGradient>
<radialGradient id="paint15_radial_544_1699" cx="0" cy="0" r="1" gradientUnits="userSpaceOnUse" gradientTransform="translate(382.051 44.5075) scale(4.08472 51.0097)">
<stop stop-color="#FF9D2D"/>
<stop offset="1" stop-color="#8F3F88"/>
</radialGradient>
<radialGradient id="paint16_radial_544_1699" cx="0" cy="0" r="1" gradientUnits="userSpaceOnUse" gradientTransform="translate(-20.003 86.2134) scale(356.253 207.748)">
<stop stop-color="#FF9D2D"/>
<stop offset="1" stop-color="#8F3F88"/>
</radialGradient>
<radialGradient id="paint17_radial_544_1699" cx="0" cy="0" r="1" gradientUnits="userSpaceOnUse" gradientTransform="translate(354.581 89.467) scale(4.07408 50.8606)">
<stop stop-color="#FF9D2D"/>
<stop offset="1" stop-color="#8F3F88"/>
</radialGradient>
<radialGradient id="paint18_radial_544_1699" cx="0" cy="0" r="1" gradientUnits="userSpaceOnUse" gradientTransform="translate(-22.0751 126.621) scale(393.469 749.061)">
<stop stop-color="#FF9D2D"/>
<stop offset="1" stop-color="#8F3F88"/>
</radialGradient>
<radialGradient id="paint19_radial_544_1699" cx="0" cy="0" r="1" gradientUnits="userSpaceOnUse" gradientTransform="translate(391.923 135.179) scale(4.08363 50.9953)">
<stop stop-color="#FF9D2D"/>
<stop offset="1" stop-color="#8F3F88"/>
</radialGradient>
<radialGradient id="paint20_radial_544_1699" cx="0" cy="0" r="1" gradientUnits="userSpaceOnUse" gradientTransform="translate(-18.8241 127.436) scale(335.512 649.617)">
<stop stop-color="#FF9D2D"/>
<stop offset="1" stop-color="#8F3F88"/>
</radialGradient>
<radialGradient id="paint21_radial_544_1699" cx="0" cy="0" r="1" gradientUnits="userSpaceOnUse" gradientTransform="translate(333.746 135.005) scale(4.08174 50.9729)">
<stop stop-color="#FF9D2D"/>
<stop offset="1" stop-color="#8F3F88"/>
</radialGradient>
<radialGradient id="paint22_radial_544_1699" cx="0" cy="0" r="1" gradientUnits="userSpaceOnUse" gradientTransform="translate(-21.4199 119.419) scale(381.777 532.761)">
<stop stop-color="#FF9D2D"/>
<stop offset="1" stop-color="#8F3F88"/>
</radialGradient>
<radialGradient id="paint23_radial_544_1699" cx="0" cy="0" r="1" gradientUnits="userSpaceOnUse" gradientTransform="translate(380.222 125.864) scale(4.0833 50.9912)">
<stop stop-color="#FF9D2D"/>
<stop offset="1" stop-color="#8F3F88"/>
</radialGradient>
<radialGradient id="paint24_radial_544_1699" cx="0" cy="0" r="1" gradientUnits="userSpaceOnUse" gradientTransform="translate(-22.545 114.238) scale(401.832 469.656)">
<stop stop-color="#FF9D2D"/>
<stop offset="1" stop-color="#8F3F88"/>
</radialGradient>
<radialGradient id="paint25_radial_544_1699" cx="0" cy="0" r="1" gradientUnits="userSpaceOnUse" gradientTransform="translate(400.268 107.666) scale(4.06964 50.822)">
<stop stop-color="#FF9D2D"/>
<stop offset="1" stop-color="#8F3F88"/>
</radialGradient>
<radialGradient id="paint26_radial_544_1699" cx="0" cy="0" r="1" gradientUnits="userSpaceOnUse" gradientTransform="translate(-20.9253 134.986) scale(372.962 744.794)">
<stop stop-color="#FF9D2D"/>
<stop offset="1" stop-color="#8F3F88"/>
</radialGradient>
<radialGradient id="paint27_radial_544_1699" cx="0" cy="0" r="1" gradientUnits="userSpaceOnUse" gradientTransform="translate(371.349 143.502) scale(4.08363 50.9955)">
<stop stop-color="#FF9D2D"/>
<stop offset="1" stop-color="#8F3F88"/>
</radialGradient>
<radialGradient id="paint28_radial_544_1699" cx="0" cy="0" r="1" gradientUnits="userSpaceOnUse" gradientTransform="translate(-20.7589 99.8237) scale(369.997 365.728)">
<stop stop-color="#FF9D2D"/>
<stop offset="1" stop-color="#8F3F88"/>
</radialGradient>
<radialGradient id="paint29_radial_544_1699" cx="0" cy="0" r="1" gradientUnits="userSpaceOnUse" gradientTransform="translate(368.379 104.626) scale(4.08141 50.9444)">
<stop stop-color="#FF9D2D"/>
<stop offset="1" stop-color="#8F3F88"/>
</radialGradient>
<radialGradient id="paint30_radial_544_1699" cx="0" cy="0" r="1" gradientUnits="userSpaceOnUse" gradientTransform="translate(-23.3473 96.8433) scale(416.131 285.124)">
<stop stop-color="#FF9D2D"/>
<stop offset="1" stop-color="#8F3F88"/>
</radialGradient>
<radialGradient id="paint31_radial_544_1699" cx="0" cy="0" r="1" gradientUnits="userSpaceOnUse" gradientTransform="translate(414.69 96.9763) scale(4.06869 50.8077)">
<stop stop-color="#FF9D2D"/>
<stop offset="1" stop-color="#8F3F88"/>
</radialGradient>
<clipPath id="clip0_544_1699">
<rect width="419" height="144" fill="white"/>
</clipPath>
</defs>
</svg>
