<svg width="485" height="432" viewBox="0 0 485 432" fill="none" xmlns="http://www.w3.org/2000/svg">
<path d="M242.782 298.255C285.922 298.255 320.895 283.205 320.895 264.64C320.895 246.075 285.922 231.026 242.782 231.026C199.641 231.026 164.668 246.075 164.668 264.64C164.668 283.205 199.641 298.255 242.782 298.255Z" stroke="#FF9D2D" stroke-width="0.5995" stroke-miterlimit="10"/>
<path d="M302.722 258.217C302.722 272.467 275.896 284.005 242.782 284.005C209.687 284.005 182.841 272.467 182.841 258.217C182.841 243.968 209.667 232.429 242.782 232.429C275.896 232.429 302.722 243.987 302.722 258.217Z" stroke="#FF9D2D" stroke-width="1.2267" stroke-miterlimit="10"/>
<path d="M242.782 343.484C327.566 343.484 396.297 313.91 396.297 277.428C396.297 240.947 327.566 211.372 242.782 211.372C157.998 211.372 89.2668 240.947 89.2668 277.428C89.2668 313.91 157.998 343.484 242.782 343.484Z" stroke="#FF9D2D" stroke-width="1.5986" stroke-miterlimit="10"/>
<path d="M242.782 352.888C181.207 352.888 123.381 338.715 91.9014 315.908L130.17 306.12C153.669 323.138 196.821 333.715 242.782 333.715C262.3 333.715 281.05 331.907 298.549 328.369L317.549 345.695C294.069 350.484 268.916 352.888 242.782 352.888Z" stroke="#FF9D2D" stroke-width="0.7993" stroke-miterlimit="10"/>
<path d="M390.2 318.331L352.798 307.927C366.432 298.831 373.643 288.293 373.643 277.409H418.161C418.18 291.985 408.508 306.139 390.2 318.331Z" stroke="#FF9D2D" stroke-width="0.7993" stroke-miterlimit="10"/>
<path d="M134.246 245.948L97.3627 235.218C130.073 214.391 184.437 201.949 242.801 201.949C292.549 201.949 340.164 211.103 373.393 227.045L340.26 239.833C315.453 227.929 279.934 221.103 242.801 221.103C199.244 221.103 158.669 230.391 134.246 245.948Z" stroke="#FF9D2D" stroke-width="0.7993" stroke-miterlimit="10"/>
<path d="M242.782 312.504C294.291 312.504 336.048 294.536 336.048 272.371C336.048 250.205 294.291 232.237 242.782 232.237C191.272 232.237 149.515 250.205 149.515 272.371C149.515 294.536 191.272 312.504 242.782 312.504Z" stroke="#FF9D2D" stroke-width="1.515" stroke-miterlimit="10" stroke-dasharray="2.27 2.27"/>
<path d="M242.782 320.081C304.009 320.081 353.644 298.72 353.644 272.371C353.644 246.021 304.009 224.66 242.782 224.66C181.554 224.66 131.919 246.021 131.919 272.371C131.919 298.72 181.554 320.081 242.782 320.081Z" stroke="#FF9D2D" stroke-miterlimit="10"/>
<path d="M243.186 327.927C310.541 327.927 365.144 304.431 365.144 275.448C365.144 246.464 310.541 222.968 243.186 222.968C175.83 222.968 121.227 246.464 121.227 275.448C121.227 304.431 175.83 327.927 243.186 327.927Z" stroke="#FF9D2D" stroke-width="0.5995" stroke-miterlimit="10"/>
<path d="M242.782 382.714C351.918 382.714 440.391 344.642 440.391 297.678C440.391 250.714 351.918 212.642 242.782 212.642C133.645 212.642 45.1718 250.714 45.1718 297.678C45.1718 344.642 133.645 382.714 242.782 382.714Z" stroke="#FF9D2D" stroke-width="0.9714" stroke-miterlimit="10"/>
<path d="M242.782 412.501C363.654 412.501 461.641 370.34 461.641 318.331C461.641 266.322 363.654 224.16 242.782 224.16C121.909 224.16 23.9224 266.322 23.9224 318.331C23.9224 370.34 121.909 412.501 242.782 412.501Z" stroke="#FF9D2D" stroke-width="1.0759" stroke-miterlimit="10"/>
<path d="M242.782 431.058C376.314 431.058 484.563 384.48 484.563 327.023C484.563 269.566 376.314 222.987 242.782 222.987C109.249 222.987 1 269.566 1 327.023C1 384.48 109.249 431.058 242.782 431.058Z" stroke="#FF9D2D" stroke-width="0.5706" stroke-miterlimit="10" stroke-dasharray="2.16 2.16"/>
<path d="M242.782 371.675C345.313 371.675 428.43 335.911 428.43 291.793C428.43 247.675 345.313 211.911 242.782 211.911C140.251 211.911 57.1331 247.675 57.1331 291.793C57.1331 335.911 140.251 371.675 242.782 371.675Z" stroke="#FF9D2D" stroke-width="0.5995" stroke-miterlimit="10" stroke-dasharray="2.27 2.27"/>
<path d="M235.032 206.584L236.186 217.161" stroke="#FF9D2D" stroke-width="1.2267" stroke-miterlimit="10"/>
<path d="M217.148 207.373L220.975 217.834" stroke="#FF9D2D" stroke-width="1.2267" stroke-miterlimit="10"/>
<path d="M199.591 208.988L206.033 219.199" stroke="#FF9D2D" stroke-width="1.2267" stroke-miterlimit="10"/>
<path d="M182.533 211.411L191.514 221.276" stroke="#FF9D2D" stroke-width="1.2267" stroke-miterlimit="10"/>
<path d="M166.188 214.622L177.611 224.006" stroke="#FF9D2D" stroke-width="1.2267" stroke-miterlimit="10"/>
<path d="M150.746 218.583L164.495 227.372" stroke="#FF9D2D" stroke-width="1.2267" stroke-miterlimit="10"/>
<path d="M136.419 223.257L152.303 231.333" stroke="#FF9D2D" stroke-width="1.2267" stroke-miterlimit="10"/>
<path d="M123.343 228.564L141.169 235.852" stroke="#FF9D2D" stroke-width="1.2267" stroke-miterlimit="10"/>
<path d="M111.689 234.448L131.266 240.852" stroke="#FF9D2D" stroke-width="1.2267" stroke-miterlimit="10"/>
<path d="M101.594 240.833L122.67 246.294" stroke="#FF9D2D" stroke-width="1.2267" stroke-miterlimit="10"/>
<path d="M93.1896 247.679L115.516 252.121" stroke="#FF9D2D" stroke-width="1.2267" stroke-miterlimit="10"/>
<path d="M86.5361 254.852L109.862 258.217" stroke="#FF9D2D" stroke-width="1.2267" stroke-miterlimit="10"/>
<path d="M81.767 262.313L105.805 264.563" stroke="#FF9D2D" stroke-width="1.2267" stroke-miterlimit="10"/>
<path d="M83.4785 295.582L107.266 292.87" stroke="#FF9D2D" stroke-width="1.2267" stroke-miterlimit="10"/>
<path d="M89.0361 302.947L111.978 299.139" stroke="#FF9D2D" stroke-width="1.2267" stroke-miterlimit="10"/>
<path d="M96.4011 310.004L118.247 305.139" stroke="#FF9D2D" stroke-width="1.2267" stroke-miterlimit="10"/>
<path d="M105.516 316.658L125.996 310.812" stroke="#FF9D2D" stroke-width="1.2267" stroke-miterlimit="10"/>
<path d="M406.7 270.025L382.22 271.121" stroke="#FF9D2D" stroke-width="1.2267" stroke-miterlimit="10"/>
<path d="M403.854 262.39L379.816 264.64" stroke="#FF9D2D" stroke-width="1.2267" stroke-miterlimit="10"/>
<path d="M399.085 254.929L375.759 258.294" stroke="#FF9D2D" stroke-width="1.2267" stroke-miterlimit="10"/>
<path d="M392.47 247.737L370.124 252.179" stroke="#FF9D2D" stroke-width="1.2267" stroke-miterlimit="10"/>
<path d="M384.085 240.91L362.99 246.352" stroke="#FF9D2D" stroke-width="1.2267" stroke-miterlimit="10"/>
<path d="M358.047 327.023L391.027 341.196" stroke="#FF9D2D" stroke-width="0.5995" stroke-miterlimit="10"/>
<path d="M79.7861 277.428H33.1528" stroke="#FF9D2D" stroke-width="0.5995" stroke-miterlimit="10"/>
<g filter="url(#filter0_d_544_900)">
<path d="M227.706 121.366L270.36 85.2176L265.282 56.9529L195.325 115.827L287.342 178.76L271.998 93.4853L261.03 102.504L269.27 149.197L269.475 150.358L268.497 149.698L227.75 122.162L227.203 121.792L227.706 121.366Z" stroke="#FFAD4F"/>
<path d="M192.027 119.11L157.955 147.896L285.033 193.364L192.027 119.11Z" fill="black" stroke="#FFAD4F"/>
<path d="M192.027 119.11L157.955 147.896L285.033 193.364L192.027 119.11Z" fill="#372D41" stroke="#FFAD4F"/>
</g>
<defs>
<filter id="filter0_d_544_900" x="96.969" y="0.013916" width="251.077" height="258.832" filterUnits="userSpaceOnUse" color-interpolation-filters="sRGB">
<feFlood flood-opacity="0" result="BackgroundImageFix"/>
<feColorMatrix in="SourceAlpha" type="matrix" values="0 0 0 0 0 0 0 0 0 0 0 0 0 0 0 0 0 0 127 0" result="hardAlpha"/>
<feOffset dy="4"/>
<feGaussianBlur stdDeviation="30"/>
<feColorMatrix type="matrix" values="0 0 0 0 0.160784 0 0 0 0 0.176471 0 0 0 0 0.290196 0 0 0 1 0"/>
<feBlend mode="normal" in2="BackgroundImageFix" result="effect1_dropShadow_544_900"/>
<feBlend mode="normal" in="SourceGraphic" in2="effect1_dropShadow_544_900" result="shape"/>
</filter>
</defs>
</svg>
