<svg width="337" height="157" viewBox="0 0 337 157" fill="none" xmlns="http://www.w3.org/2000/svg">
<rect x="1.5" y="1.5" width="334" height="154" rx="32.5" fill="white" fill-opacity="0.11" stroke="url(#paint0_radial_544_1672)" stroke-width="3"/>
<g clip-path="url(#clip0_544_1672)">
<path d="M29 51.5C35.3 51.5 41.6 51.5 48 51.5C48 51.9 48 52.3 48 52.7C48 54.4 47.9 56.1 48 57.8C48.3 60.9 49.1 63.9 50.4 66.8C51.6 69.4 53.1 71.7 55.1 73.7C57.5 76.2 60.4 78.1 63.8 79.1C64.1 79.2 64.2 79.3 64.2 79.6C64.1 81.2 64.4 82.7 64 84.3C63.4 86.9 61.9 88.7 59.6 89.7C58.5 90.2 57.4 90.4 56.2 90.4C52.4 90.4 48.5 90.4 44.7 90.4C42.9 90.4 41.2 90.1 39.7 89C37.5 87.4 36.5 85.1 36.5 82.3C36.5 74.8 36.5 67.2 36.5 59.7C36.5 59.5 36.5 59.3 36.5 59.1C36.5 58 35.8 57.4 34.8 57.1C32.2 56.3 30.3 54.5 29.1 52.1C29.1 52 29 51.8 29 51.7C29 51.7 29 51.6 29 51.5ZM40.1 68.4C40.1 69.8 41.1 70.9 42.5 70.9C43.8 70.9 45 69.8 45 68.4C45 67 43.9 65.9 42.5 65.8C41.3 65.9 40 66.9 40.1 68.4Z" fill="white"/>
<path d="M61.1 68.4C61.1 69.6 60 70.7 58.8 70.7C57.6 70.7 56.5 69.6 56.5 68.3C56.5 67.1 57.6 66 58.8 66C60.1 66.1 61.3 67.3 61.1 68.4Z" fill="white"/>
<path d="M40.1 68.4C40 66.9 41.3 65.9 42.5 65.9C43.9 65.9 45 67.1 45 68.5C45 69.9 43.8 71 42.5 71C41.1 70.9 40.1 69.8 40.1 68.4Z" fill="black"/>
<path d="M132.8 94.3C132.9 94.3 132.9 94.3 132.8 94.3C133 94.3 133 94.3 133.1 94.3C133.2 94.3 133.4 94.2 133.5 94.2C133.6 94.1 133.6 94.1 133.7 94C134.8 93.3 134.7 92.2 134.7 91.1C134.7 86.1 134.7 81 134.7 76C134.7 74.4 134.5 72.8 134 71.2C132.2 65.7 127.1 61.7 121.1 61.7C114.7 61.6 108.3 61.6 101.9 61.6C90.9 61.6 79.9 61.6 69 61.5C68.9 61.5 68.7 61.5 68.6 61.5C68.4 61.5 68.3 61.4 68.1 61.4C67.9 60.9 68.1 60.6 68.6 60.4C68.8 60.3 68.9 60.3 69.1 60.2C72.1 58.7 74.2 56.2 75.5 53.1C76 52 76.4 50.8 76.5 49.6C76.5 48.2 75.8 47.4 74.4 47.4C71.7 47.4 69 47.4 66.3 47.3C66 47.3 65.8 47.3 65.5 47.3C65.5 47 65.5 46.8 65.5 46.5C65.5 45.2 65.5 43.9 65.5 42.7C65.5 42.1 65.4 41.5 65.3 41C64.6 38.5 62.1 36.8 59.2 37.4C57.2 37.8 55.4 39.7 55.3 41.7C55.2 43.3 55.2 44.9 55.2 46.5C55.2 46.8 55.2 47.1 55.2 47.3H45.7C45.7 47 45.7 46.7 45.7 46.4C45.7 45 45.7 43.6 45.7 42.2C45.6 38.8 42.3 36.3 38.8 37.5C36.7 38.2 35.3 40.3 35.3 42.6C35.3 43.9 35.3 45.2 35.3 46.5C35.3 46.8 35.3 47 35.3 47.3C35 47.3 34.7 47.3 34.4 47.3C31.7 47.3 29 47.3 26.3 47.4C25 47.4 24.2 48.2 24.3 49.5C24.4 50.3 24.6 51.1 24.8 51.8C26 55.5 28.3 58.4 31.8 60.2C32.5 60.6 32.7 60.9 32.7 61.7C32.7 68.8 32.7 75.8 32.7 82.9C32.7 83.9 32.8 84.9 33.1 85.8C34.5 90.4 37.5 93.3 42.1 94.2C42.2 94.2 42.3 94.3 42.4 94.3H42.5C42.5 94.3 42.6 94.3 42.7 94.3C42.8 94.3 42.9 94.3 42.9 94.4C43 94.4 43.1 94.4 43.2 94.4C43.6 94.4 43.9 94.4 44.3 94.4C44.4 94.4 44.5 94.4 44.6 94.4C45.2 94.4 45.8 94.4 46.4 94.4C46.6 94.4 46.7 94.4 46.9 94.4H54.2C54.3 94.4 54.4 94.4 54.5 94.4C55.5 94.4 56.1 94.9 56.6 95.7C56.8 96.2 57.1 96.8 57.1 97.4C57.1 97.5 57.1 97.5 57.1 97.6C57.1 98 57.1 98.5 57.1 98.9C57.1 99 57.1 99 57.1 99.1C57.2 100.7 57.2 102.4 57.3 104C57.4 106.5 57.5 109 57.6 111.5C57.7 113.4 57.7 115.3 57.7 117.2C57.8 119.1 59.1 120.5 60.8 120.6C64.8 120.6 68.7 120.6 72.7 120.6C74.1 120.6 75.3 119.6 75.6 118.2C76 116.5 76.4 114.7 76.7 113C77.1 111.2 77.5 109.5 77.9 107.7C78.1 107.7 78.1 107.6 78.2 107.6C86.4 107.6 94.5 107.6 102.7 107.6C103.2 107.6 103.3 107.8 103.4 108.2C103.6 109.3 103.9 110.4 104.1 111.6C104.6 113.7 105 115.9 105.5 118C105.8 119.4 107.1 120.6 108.5 120.7C112.5 120.7 116.4 120.7 120.4 120.7C122 120.7 123.4 119.3 123.5 117.6C123.6 115.6 123.7 113.6 123.8 111.5C123.9 109 124.1 106.5 124.2 103.9C124.3 102.4 124.3 101 124.4 99.5C124.5 96.9 124.7 94.4 124.8 91.8C125 89 125.1 86.1 125.2 83.3C125.3 80.9 125.5 78.5 125.5 76.1C125.5 72.6 124.3 69.5 122.2 66.9C122.1 66.8 122 66.6 121.9 66.4C122.1 66.4 122.2 66.4 122.3 66.4C126.6 67 130 71 130 75.4C130 80.7 130 85.9 130 91.2C130 92.2 130.1 93.2 130.9 93.9C131.7 94.2 132.2 94.3 132.8 94.3ZM59.1 42.5C59.1 41.9 59.7 41.3 60.3 41.3C60.8 41.3 61.5 41.7 61.5 42.3C61.5 44 61.5 45.6 61.5 47.3H59.1C59.1 45.6 59.1 44 59.1 42.5ZM58.9 66.1C60.1 66.1 61.3 67.3 61.2 68.5C61.2 69.7 60.1 70.8 58.9 70.8C57.7 70.8 56.6 69.7 56.6 68.4C56.6 67.2 57.7 66.1 58.9 66.1ZM39.2 42.8C39.2 42.5 39.2 42.2 39.4 42C39.6 41.5 40.2 41.2 40.6 41.3C41.2 41.4 41.6 41.9 41.6 42.5C41.6 44 41.6 45.5 41.6 47C41.6 47.1 41.6 47.1 41.5 47.3H39.3C39.3 47.1 39.2 47 39.2 46.8C39.2 45.5 39.2 44.1 39.2 42.8ZM59.6 89.8C58.5 90.3 57.4 90.5 56.2 90.5C52.4 90.5 48.5 90.5 44.7 90.5C42.9 90.5 41.2 90.2 39.7 89.1C37.5 87.5 36.5 85.2 36.5 82.4C36.5 74.9 36.5 67.3 36.5 59.8C36.5 59.6 36.5 59.4 36.5 59.2C36.5 58.1 35.8 57.5 34.8 57.2C32.2 56.4 30.3 54.6 29.1 52.2C29.1 52 29 51.8 29 51.7C29 51.7 29 51.6 29 51.5H48C48 51.9 48 52.3 48 52.7C48 54.4 47.9 56.1 48 57.8C48.3 60.9 49.1 63.9 50.4 66.8C51.6 69.4 53.1 71.7 55.1 73.7C57.5 76.2 60.4 78.1 63.8 79.1C64.1 79.2 64.2 79.3 64.2 79.6C64.1 81.2 64.4 82.7 64 84.3C63.5 86.9 62 88.7 59.6 89.8ZM121.2 77.4C121 79.9 120.9 82.4 120.8 84.9C120.6 88.1 120.5 91.3 120.3 94.5C120.1 98.1 119.9 101.8 119.7 105.4C119.6 107.6 119.4 109.8 119.3 112C119.2 113.4 119.1 114.7 119 116.2H109.8C108.7 111.9 107.9 107.6 106.8 103.2C106.5 103.2 106.3 103.1 106.1 103.1C95.7 103.1 85.3 103.1 75 103.1C74.2 103.1 74.2 103.2 74 103.9C73.6 105.8 73.1 107.8 72.7 109.7C72.3 111.5 71.9 113.4 71.5 115.2C71.3 116.1 71.3 116.1 70.5 116.1C67.9 116.1 65.4 116.1 62.9 116.1C62.1 116.1 62.1 116.1 62.1 115.2C62.1 110.2 62 105.2 62 100.3C62 98.1 62 95.9 61.9 93.7C61.9 93.2 62 92.9 62.5 92.7C65 91.2 66.8 89 67.7 86.1C68 85.2 68.1 84.3 68.1 83.4C68.1 78 68.1 72.6 68.1 67.2C68.1 67 68.1 66.8 68.1 66.6C68.1 66.2 68.3 66.1 68.6 66.1C68.8 66.1 69 66.1 69.2 66.1C72.5 66.1 75.7 66.1 79 66.1H110.2V66.2C111.8 66.2 113.3 66.2 114.9 66.2C115.4 66.2 115.8 66.4 116.1 66.8C116.8 67.6 117.4 68.3 118.1 69C120.3 71.3 121.5 74.1 121.2 77.4Z" fill="black"/>
<path d="M132.9 95.6H132.8C132.2 95.6 131.4 95.5 130.6 95.1L130.1 94.9L130 94.6C129.1 93.6 129 92.3 129 91.2C129 86.5 129 81.8 129 77.1V75.4C129 72.6 127.4 70 125 68.6C126.3 71 127 73.5 126.9 76.2C126.9 77.9 126.8 79.6 126.7 81.2C126.7 82 126.6 82.7 126.6 83.5L126.5 86.5C126.4 88.4 126.3 90.2 126.2 92.1C126.1 93.6 126 95 125.9 96.5C125.8 97.6 125.8 98.7 125.7 99.8C125.7 100.6 125.6 101.4 125.6 102.2C125.6 102.9 125.5 103.5 125.5 104.2C125.4 105.7 125.3 107.1 125.3 108.6L125 113.2C124.9 114.7 124.8 116.3 124.8 117.8C124.7 120.1 122.7 122 120.5 122C116.5 122 112.6 122 108.6 122C106.6 122 104.8 120.4 104.4 118.4C104.1 117 103.8 115.5 103.5 114.1L102.9 111.4C102.7 110.6 102.6 109.9 102.4 109.1C96.3 109.1 90.3 109.1 84.3 109.1H79L78.8 109.8C78.5 111 78.2 112.2 78 113.5C77.9 114.2 77.7 114.8 77.6 115.5C77.4 116.6 77.1 117.6 76.9 118.7C76.4 120.7 74.7 122.1 72.8 122.1C70.7 122.1 68.7 122.1 66.7 122.1C64.7 122.1 62.8 122.1 60.9 122.1C58.5 122.1 56.6 120.1 56.6 117.5C56.6 116.6 56.6 115.6 56.5 114.7C56.5 113.7 56.5 112.8 56.4 111.8C56.4 110.1 56.3 108.4 56.2 106.7L55.9 99.2V99.1C55.9 98.7 55.9 98.3 55.9 97.9V97.8V97.6C55.9 97.4 55.8 97.1 55.5 96.4C55.3 96 55 95.8 54.5 95.8H54.4C54.3 95.8 54.2 95.8 54.2 95.8H53.1H46.9C46.8 95.8 46.6 95.8 46.5 95.8H46.4H46C45.5 95.8 45 95.8 44.5 95.8C44.4 95.8 44.4 95.8 44.3 95.8C43.9 95.8 43.5 95.8 43.2 95.8L42.4 95.7L41.9 95.5C36.9 94.5 33.5 91.4 32 86.3C31.7 85.4 31.6 84.3 31.6 83C31.6 76.2 31.6 69.1 31.6 61.8C31.6 61.6 31.6 61.5 31.6 61.5C31.6 61.5 31.5 61.5 31.4 61.4C27.7 59.5 25.2 56.5 23.8 52.3C23.5 51.5 23.3 50.6 23.2 49.7C23.1 48.8 23.4 47.9 24 47.3C24.6 46.7 25.5 46.3 26.4 46.3C28.4 46.3 30.4 46.3 32.4 46.3H34.2V45.9C34.2 44.8 34.2 43.7 34.2 42.7C34.2 39.8 35.9 37.3 38.5 36.4C40.5 35.7 42.6 36 44.3 37.2C45.9 38.4 46.9 40.2 47 42.2C47 43.2 47 44.2 47 45.1C47 45.4 47 45.7 47 46.1H54.1C54.1 45.7 54.1 45.3 54.1 44.9C54.1 43.8 54.1 42.7 54.2 41.6C54.3 39 56.4 36.7 59 36.1C62.3 35.4 65.6 37.4 66.5 40.6C66.7 41.2 66.7 41.8 66.8 42.6C66.8 43.5 66.8 44.3 66.8 45.2C66.8 45.5 66.8 45.8 66.8 46H69.7C71.3 46 72.9 46 74.5 46C75.5 46 76.4 46.3 77 46.9C77.6 47.5 77.9 48.4 77.8 49.4C77.8 50.9 77.2 52.2 76.7 53.4C75.5 56.2 73.7 58.4 71.4 60H79C86.7 60 94.3 60 102 60C109.1 60 115.1 60 121.2 60.1C127.6 60.2 133.2 64.3 135.2 70.5C135.7 72 135.9 73.7 136 75.7C136 78.8 136 81.9 136 85C136 86.9 136 88.9 136 90.8C136 91.6 136 92.6 135.5 93.5L132.9 95.6ZM58.3 99.3L58.6 106.5C58.7 108.2 58.7 109.9 58.8 111.6C58.8 112.6 58.8 113.5 58.9 114.5C58.9 115.4 58.9 116.4 59 117.3C59 118.5 59.9 119.4 60.9 119.5C64.6 119.5 68.5 119.5 72.8 119.5C73.6 119.5 74.4 118.9 74.6 118C74.8 116.9 75.1 115.9 75.3 114.8C75.4 114.1 75.6 113.4 75.7 112.8C76 111.6 76.3 110.4 76.5 109.1L77 106.8L77.8 106.6C77.9 106.6 78.1 106.5 78.3 106.5H84.3C90.5 106.5 96.6 106.5 102.8 106.5C103.8 106.5 104.5 107.1 104.7 108.1C104.9 109 105.1 109.9 105.3 110.7L105.9 113.4C106.2 114.9 106.5 116.3 106.8 117.8C107 118.7 107.8 119.5 108.7 119.5C112.7 119.5 116.6 119.5 120.6 119.5C121.5 119.5 122.4 118.6 122.5 117.6C122.6 116.1 122.7 114.5 122.7 113L123 108.4C123.1 106.9 123.2 105.5 123.2 104C123.2 103.3 123.3 102.7 123.3 102C123.3 101.2 123.4 100.4 123.4 99.6C123.5 98.5 123.5 97.4 123.6 96.3C123.7 94.8 123.8 93.4 123.9 91.9C124 90 124.1 88.2 124.2 86.3L124.3 83.3C124.3 82.5 124.4 81.8 124.4 81C124.5 79.4 124.6 77.7 124.6 76.1C124.6 73.1 123.6 70.2 121.6 67.7C121.5 67.6 121.4 67.4 121.3 67.3L120 65.4L122.2 65.2C122.3 65.2 122.5 65.2 122.7 65.2C127.5 65.9 131.5 70.4 131.5 75.4V77.1C131.5 81.8 131.5 86.5 131.5 91.2C131.5 92 131.6 92.5 131.9 92.9C132.1 93 132.3 93 132.5 93H132.9H133C133 93 133 93 133.1 93H133.2C133.7 92.7 133.7 92.3 133.7 91.2C133.7 89.2 133.7 87.3 133.7 85.3C133.7 82.2 133.7 79.1 133.7 76C133.7 74.3 133.5 72.9 133.1 71.6C131.4 66.5 126.7 63 121.4 62.9C115.3 62.8 109.3 62.8 102.2 62.8C94.5 62.8 86.9 62.8 79.2 62.8H69.3H69C68.8 62.8 68.7 62.8 68.5 62.8C68.3 62.8 68.2 62.7 68 62.7L67.2 62.5L67 61.8C66.6 60.7 67.1 59.7 68.2 59.3C68.3 59.2 68.5 59.2 68.6 59.1C71.2 57.7 73.2 55.6 74.5 52.6C74.9 51.6 75.3 50.6 75.4 49.6C75.4 49.2 75.4 49 75.2 48.9C75.1 48.8 74.8 48.7 74.5 48.7C72.9 48.7 71.3 48.7 69.7 48.7H66.4C66.2 48.7 66 48.7 65.8 48.7L64.4 48.6L64.3 47.2C64.3 47 64.3 46.8 64.3 46.6C64.3 46.2 64.3 45.7 64.3 45.3C64.3 44.5 64.3 43.6 64.3 42.8C64.3 42.4 64.3 41.8 64.1 41.4C63.6 39.7 61.8 38.2 59.4 38.6C57.9 38.9 56.5 40.4 56.4 41.8C56.3 42.8 56.3 43.9 56.3 45C56.3 45.5 56.3 46 56.3 46.5C56.3 46.7 56.3 46.9 56.2 47.1L56.1 48.5H44.4V46.4C44.4 46 44.4 45.5 44.4 45.1C44.4 44.2 44.4 43.2 44.4 42.3C44.4 41 43.8 39.9 42.7 39.2C41.7 38.5 40.3 38.3 39.1 38.7C37.5 39.2 36.5 40.8 36.5 42.6C36.5 43.7 36.5 44.8 36.5 45.9V46.6C36.5 46.8 36.5 47 36.5 47.2L36.4 48.6H32.3C30.3 48.6 28.3 48.6 26.3 48.6C26 48.6 25.8 48.7 25.6 48.8C25.5 48.9 25.5 49.2 25.5 49.4C25.5 50.1 25.8 50.8 26 51.4C27.1 54.9 29.3 57.5 32.3 59C33.4 59.6 33.9 60.4 33.9 61.6C33.9 68.9 33.9 76 33.9 82.8C33.9 83.8 34 84.7 34.2 85.4C35.5 89.6 38.1 92.1 42.3 92.9C42.5 92.9 42.7 93 42.8 93.1C42.8 93.1 42.8 93.1 42.9 93.1H43C43.1 93.1 43.1 93.1 43.2 93.1C43.5 93.1 43.8 93.1 44.2 93.1C44.2 93.1 44.3 93.1 44.4 93.1C44.9 93.1 45.4 93.1 46 93.1H46.2C46.4 93.1 46.6 93.1 46.8 93.1H55.3V93.2C56.3 93.4 57.1 94.1 57.6 95.1C57.8 95.6 58.2 96.4 58.2 97.2C58.2 97.3 58.2 97.4 58.2 97.6C58.2 98 58.2 98.4 58.2 98.8C58.3 99.1 58.3 99.2 58.3 99.3ZM42.3 95.6C42.3 95.6 42.4 95.6 42.3 95.6V95.6ZM62.9 117.5C61.4 117.5 60.9 116.9 60.9 115.4L60.8 99.6C60.8 97.7 60.8 95.7 60.7 93.8C60.7 92.9 61.1 92.2 61.9 91.7C64.2 90.3 65.8 88.3 66.6 85.8C66.8 85.1 66.9 84.3 66.9 83.4C66.9 79.3 66.9 75.3 66.9 71.2V67.1V67C66.9 66.9 66.9 66.8 66.9 66.6C66.9 65.9 67.1 65.5 67.4 65.3C67.6 65.1 68 64.8 68.7 64.8H71.2C73.5 64.8 75.8 64.8 78.2 64.8H79H111.4V65C112.5 65 113.7 65 114.8 65C115.7 65 116.4 65.3 116.9 66C117.5 66.7 118.2 67.4 118.9 68.2C121.5 70.8 122.7 74 122.4 77.6C122.3 79.3 122.2 81.1 122.1 82.8L121.5 94.6C121.3 98.2 121.1 101.9 120.9 105.5C120.8 107.3 120.7 109.1 120.6 111L120.2 117.5H109L108.8 116.6C108.2 114.3 107.7 111.9 107.2 109.6C106.8 107.9 106.4 106.2 106 104.5C95.8 104.5 85.6 104.5 75.3 104.5C75 105.7 74.8 106.9 74.5 108.1L73.9 110.6C73.5 112.3 73.1 114 72.7 115.8C72.4 117.2 71.9 117.6 70.5 117.6L62.9 117.5ZM63.2 93.8C63.2 95.8 63.2 97.7 63.3 99.6V115H70.4C70.8 113.3 71.2 111.6 71.5 109.9L72.1 107.4C72.4 106.2 72.7 105 72.9 103.7C73.2 102.5 73.6 101.9 75 101.9C85.4 101.9 95.8 101.9 106.1 101.9C106.3 101.9 106.5 101.9 106.7 101.9L107.8 102L108 102.9C108.5 104.9 108.9 106.9 109.4 108.9C109.8 110.9 110.3 112.9 110.8 114.9H118L118.3 110.7C118.4 108.9 118.5 107.1 118.6 105.3C118.8 101.7 119 98 119.2 94.4L119.8 82.6C119.9 80.8 120 79.1 120.1 77.3C120.3 74.4 119.4 72 117.3 69.8C116.6 69 115.8 68.3 115.2 67.5C115.1 67.4 115.1 67.4 114.9 67.4C113.3 67.4 111.8 67.4 110.2 67.4H109V67.3H79.1C76.5 67.3 73.9 67.3 71.3 67.3H69.5V71.3C69.5 75.4 69.5 79.4 69.5 83.5C69.5 84.6 69.3 85.7 69 86.6C67.9 89.7 66 92.1 63.2 93.8ZM44.7 91.7C42.4 91.7 40.6 91.2 39 90C36.5 88.2 35.3 85.6 35.2 82.3C35.2 77 35.2 71.7 35.2 66.5V59.5C35.2 59.4 35.2 59.2 35.2 59.1C35.2 58.8 35.1 58.5 34.4 58.3C31.6 57.4 29.5 55.5 28 52.7C27.9 52.5 27.8 52.3 27.8 52.1C27.7 51.8 27.7 51.5 27.8 51.4L28 50.4L29 50.3H49.2V52.7C49.2 53.2 49.2 53.8 49.2 54.3C49.2 55.5 49.2 56.6 49.3 57.7C49.5 60.5 50.3 63.4 51.6 66.2C52.7 68.7 54.2 71 56 72.8C58.5 75.4 61.1 77 64.1 77.9C65.4 78.3 65.4 79.3 65.4 79.6C65.4 80.1 65.4 80.6 65.4 81.1C65.4 82.2 65.5 83.3 65.2 84.5C64.6 87.4 62.8 89.5 60.1 90.8C59 91.3 57.8 91.6 56.2 91.6H52C49.6 91.6 47.2 91.6 44.7 91.7ZM30.9 52.7C32 54.3 33.4 55.4 35.2 55.9C37.3 56.6 37.7 58.1 37.7 59C37.7 59.2 37.7 59.4 37.7 59.5V66.4C37.7 71.7 37.7 76.9 37.7 82.2C37.7 84.6 38.6 86.5 40.4 87.9C41.5 88.7 42.9 89.1 44.7 89.1C47.1 89.1 49.6 89.1 52 89.1H56.2C57.4 89.1 58.3 88.9 59.1 88.6C61.1 87.7 62.4 86.2 62.8 84C63 83.1 63 82.2 62.9 81.2C62.9 80.9 62.9 80.5 62.9 80.2C59.7 79.2 56.8 77.3 54.2 74.6C52.2 72.6 50.6 70.1 49.3 67.3C47.9 64.2 47.1 61.1 46.8 57.9C46.7 56.7 46.7 55.4 46.7 54.3C46.7 53.8 46.7 53.3 46.7 52.8H30.9V52.7ZM58.9 72C58 72 57.1 71.6 56.4 70.9C55.7 70.2 55.4 69.3 55.4 68.4C55.4 66.5 57 64.9 58.9 64.9C59.9 64.9 60.9 65.4 61.5 66.2C62.1 66.9 62.4 67.8 62.3 68.6C62.3 70.4 60.7 72 58.9 72ZM58.8 67.3C58.3 67.3 57.8 67.8 57.8 68.4C57.8 68.6 57.9 68.9 58.1 69.1C58.3 69.3 58.6 69.5 58.9 69.5C59.4 69.5 59.9 69 59.9 68.4V68.3C59.9 68.1 59.8 67.9 59.7 67.7C59.5 67.5 59.1 67.3 58.8 67.3ZM42.5 48.6H38.3L38.1 47.5C38.1 47.4 38 47.2 38 46.9C38 45.5 38 44.2 38 42.8C38 42.3 38.1 41.8 38.3 41.5C38.7 40.5 39.9 39.9 40.9 40.1C42.1 40.3 42.9 41.3 42.9 42.5C42.9 43.7 42.9 44.9 42.9 46V47C42.9 47.3 42.8 47.5 42.8 47.6L42.5 48.6ZM62.7 48.5H57.9V45.9C57.9 44.7 57.9 43.6 57.9 42.5C57.9 41.2 58.9 40.2 60.2 40.1C60.8 40.1 61.5 40.3 62 40.7C62.5 41.1 62.7 41.7 62.8 42.3C62.8 43.5 62.8 44.7 62.8 45.9L62.7 48.5Z" fill="black"/>
<path d="M118.1 69C117.4 68.3 116.7 67.5 116.1 66.8C115.8 66.4 115.4 66.2 114.9 66.2C113.8 66.2 112.7 66.2 111.7 66.2V66.1H81.5999C81.2999 66.1 81.0999 66.1 80.7999 66.1C76.8999 66.1 72.9999 66.1 69.0999 66.1C68.8999 66.1 68.6999 66.1 68.4999 66.1C68.0999 66.1 67.9999 66.3 67.9999 66.6C67.9999 66.8 67.9999 67 67.9999 67.2C67.9999 72.6 67.9999 78 67.9999 83.4C67.9999 84.3 67.8999 85.3 67.5999 86.1C66.6999 88.9 64.9999 91.1 62.3999 92.7C61.9999 93 61.7999 93.2 61.7999 93.7C61.7999 95.9 61.7999 98.1 61.8999 100.3C61.8999 105.3 61.9999 110.3 61.9999 115.2C61.9999 116 61.9999 116.1 62.7999 116.1C65.3999 116.1 67.8999 116.1 70.3999 116.1C71.1999 116.1 71.1999 116.1 71.3999 115.2C71.7999 113.4 72.1999 111.5 72.5999 109.7C72.9999 107.8 73.4999 105.8 73.8999 103.9C74.0999 103.1 74.0999 103.1 74.8999 103.1C85.2999 103.1 95.6999 103.1 106 103.1C106.2 103.1 106.5 103.1 106.7 103.2C107.7 107.6 108.6 111.9 109.7 116.2C112.8 116.2 115.8 116.2 118.9 116.2C119 114.7 119.1 113.4 119.2 112C119.3 109.8 119.5 107.6 119.6 105.4C119.8 101.8 120 98.1 120.2 94.5C120.4 91.3 120.5 88.1 120.7 84.9C120.8 82.4 120.9 79.9 121.1 77.4C121.5 74.1 120.3 71.3 118.1 69Z" fill="white"/>
<path d="M84.4 79.7C88.9 79.7 92.5999 76 92.5999 71.4C92.5999 66.8 89 63 84.4 63C79.9 63 76.2 66.7 76.2 71.3C76.2 75.9 79.9 79.7 84.4 79.7Z" fill="black"/>
<path d="M107.9 96.2C111.7 96.2 114.8 93.1 114.8 89.2C114.8 85.3 111.7 82.2 107.9 82.2C104.1 82.2 101 85.3 101 89.2C101 93.1 104.1 96.2 107.9 96.2Z" fill="black"/>
<path d="M84.5999 105.8C88.3999 105.7 92.1999 106.2 95.8999 106.7C95.9999 106.7 96.0999 106.7 96.1999 106.7C96.2999 106.1 96.2999 105.6 96.2999 105C96.2999 98.8 91.3999 93.8 85.2999 93.8C79.1999 93.8 74.2999 98.8 74.2999 105C74.2999 106.1 74.4999 107.1 74.6999 108.1C77.2999 105.6 81.2999 105.9 84.5999 105.8Z" fill="black"/>
<path d="M89.8 62.5C89.5 62.5 89.3 62.5 89.1 62.4C88.1 63.5 87.6 64.7 87.6 66.1C87.6 69.8 91.7 72.8 96.8 72.8C101.9 72.8 106 69.8 106 66.1C106 64.8 105.5 63.5 104.6 62.5H89.8Z" fill="black"/>
<path d="M56.6 68.4C56.5 66.9 57.8 65.9 59 65.9C60.4 65.9 61.5 67.1 61.5 68.5C61.5 69.9 60.3 71 59 71C57.6 70.9 56.6 69.8 56.6 68.4Z" fill="white"/>
<path d="M41.8 46.2C40.7 46.2 39.6 46.2 38.5 46.2C38.5 46 38.4 45.8 38.4 45.6C38.4 43.9 38.4 44.4 38.4 42.6C38.4 42.2 38.5 41.8 38.6 41.5C38.9 40.9 39.8 40.5 40.4 40.6C41.3 40.8 42 41.4 42 42.3C42 44.2 42 43.9 42 45.9C42 45.9 41.9 46 41.8 46.2Z" fill="white"/>
<path d="M62 46.2C60.9 46.2 59.8 46.2 58.7 46.2C58.7 46 58.6 45.8 58.6 45.6C58.6 43.9 58.6 44.4 58.6 42.6C58.6 42.2 58.7 41.8 58.8 41.5C59.1 40.9 60 40.5 60.6 40.6C61.5 40.7 62.1 41.4 62.1 42.2C62.1 44.1 62.1 43.8 62.1 45.8C62.1 45.9 62 46 62 46.2Z" fill="white"/>
</g>
<path d="M170.408 68C174.98 68 177.392 65.12 177.392 61.52C177.392 58.496 175.34 56.012 172.784 55.616C175.052 55.148 176.924 53.132 176.924 50.108C176.924 46.904 174.584 43.988 170.012 43.988H157.376V68H170.408ZM168.896 53.6H162.488V48.38H168.896C170.624 48.38 171.704 49.496 171.704 51.008C171.704 52.52 170.624 53.6 168.896 53.6ZM169.076 63.572H162.488V57.992H169.076C171.092 57.992 172.172 59.288 172.172 60.8C172.172 62.528 171.02 63.572 169.076 63.572ZM189.311 68.432C192.011 68.432 194.747 67.604 196.475 66.02L194.459 63.068C193.343 64.148 191.291 64.796 189.815 64.796C186.863 64.796 185.099 62.96 184.811 60.764H197.735V59.756C197.735 54.068 194.207 50.18 189.023 50.18C183.731 50.18 180.023 54.248 180.023 59.288C180.023 64.868 184.019 68.432 189.311 68.432ZM193.307 57.668H184.739C184.955 55.94 186.179 53.816 189.023 53.816C192.047 53.816 193.199 56.012 193.307 57.668ZM209.21 68.432C211.91 68.432 214.646 67.604 216.374 66.02L214.358 63.068C213.242 64.148 211.19 64.796 209.714 64.796C206.762 64.796 204.998 62.96 204.71 60.764H217.634V59.756C217.634 54.068 214.106 50.18 208.922 50.18C203.63 50.18 199.922 54.248 199.922 59.288C199.922 64.868 203.918 68.432 209.21 68.432ZM213.206 57.668H204.638C204.854 55.94 206.078 53.816 208.922 53.816C211.946 53.816 213.098 56.012 213.206 57.668ZM226.552 68V54.608H230.08V50.612H226.552V49.676C226.552 48.056 227.452 47.228 228.712 47.228C229.54 47.228 230.152 47.48 230.62 47.948L232.348 45.248C231.232 44.06 229.468 43.628 227.812 43.628C224.32 43.628 221.944 45.968 221.944 49.676V50.612H219.064V54.608H221.944V68H226.552ZM232.101 74.804C232.677 74.948 233.829 75.056 234.369 75.056C237.357 74.984 239.661 74.12 240.957 70.844L249.129 50.612H244.197L239.661 62.708L235.125 50.612H230.229L237.285 68.252L236.637 69.728C236.205 70.664 235.413 70.988 234.225 70.988C233.793 70.988 233.181 70.88 232.785 70.7L232.101 74.804ZM162.488 112V102.064H174.116V97.564H162.488V92.488H174.368V87.988H157.376V112H162.488ZM180.102 92.74C181.614 92.74 182.838 91.516 182.838 90.004C182.838 88.492 181.614 87.304 180.102 87.304C178.626 87.304 177.366 88.492 177.366 90.004C177.366 91.516 178.626 92.74 180.102 92.74ZM182.406 112V94.612H177.834V112H182.406ZM203.248 112V99.724C203.248 96.34 201.412 94.18 197.596 94.18C194.752 94.18 192.628 95.548 191.512 96.88V94.612H186.94V112H191.512V100.3C192.268 99.256 193.672 98.248 195.472 98.248C197.416 98.248 198.676 99.076 198.676 101.488V112H203.248ZM222.8 112V100.768C222.8 95.764 219.164 94.18 215.204 94.18C212.468 94.18 209.732 95.044 207.608 96.916L209.336 99.976C210.812 98.608 212.54 97.924 214.412 97.924C216.716 97.924 218.228 99.076 218.228 100.84V103.18C217.076 101.812 215.024 101.056 212.72 101.056C209.948 101.056 206.672 102.604 206.672 106.672C206.672 110.56 209.948 112.432 212.72 112.432C214.988 112.432 217.04 111.604 218.228 110.2V112H222.8ZM214.556 109.336C212.756 109.336 211.28 108.4 211.28 106.78C211.28 105.088 212.756 104.152 214.556 104.152C216.032 104.152 217.472 104.656 218.228 105.664V107.824C217.472 108.832 216.032 109.336 214.556 109.336ZM243.642 112V99.724C243.642 96.34 241.806 94.18 237.99 94.18C235.146 94.18 233.022 95.548 231.906 96.88V94.612H227.334V112H231.906V100.3C232.662 99.256 234.066 98.248 235.866 98.248C237.81 98.248 239.07 99.076 239.07 101.488V112H243.642ZM256.282 112.432C259.846 112.432 262.006 110.884 263.158 109.264L260.17 106.492C259.342 107.644 258.082 108.364 256.498 108.364C253.726 108.364 251.782 106.312 251.782 103.288C251.782 100.264 253.726 98.248 256.498 98.248C258.082 98.248 259.342 98.896 260.17 100.12L263.158 97.312C262.006 95.728 259.846 94.18 256.282 94.18C250.918 94.18 247.066 97.96 247.066 103.288C247.066 108.652 250.918 112.432 256.282 112.432ZM274.319 112.432C277.019 112.432 279.755 111.604 281.483 110.02L279.467 107.068C278.351 108.148 276.299 108.796 274.823 108.796C271.871 108.796 270.107 106.96 269.819 104.764H282.743V103.756C282.743 98.068 279.215 94.18 274.031 94.18C268.739 94.18 265.031 98.248 265.031 103.288C265.031 108.868 269.027 112.432 274.319 112.432ZM278.315 101.668H269.747C269.963 99.94 271.187 97.816 274.031 97.816C277.055 97.816 278.207 100.012 278.315 101.668Z" fill="white"/>
<defs>
<radialGradient id="paint0_radial_544_1672" cx="0" cy="0" r="1" gradientUnits="userSpaceOnUse" gradientTransform="translate(-18.8454 139.556) scale(335.891 1785.38)">
<stop stop-color="#FF9D2D"/>
<stop offset="0.340734" stop-color="white" stop-opacity="0.13"/>
<stop offset="0.557292" stop-color="white" stop-opacity="0"/>
<stop offset="0.764441" stop-color="white" stop-opacity="0.13"/>
<stop offset="1" stop-color="#8F3F88"/>
</radialGradient>
<clipPath id="clip0_544_1672">
<rect width="113" height="86" fill="white" transform="translate(23 36)"/>
</clipPath>
</defs>
</svg>
