<svg width="100" height="115" viewBox="0 0 100 115" fill="none" xmlns="http://www.w3.org/2000/svg">
<line x1="38.4674" y1="69.859" x2="58.6393" y2="49.6871" stroke="url(#paint0_radial_544_873)" stroke-width="18" stroke-linecap="round"/>
<g filter="url(#filter0_bii_544_873)">
<path d="M71.2562 29.6578C88.4593 29.5022 101.142 44.7207 99.9184 60.7013C99.4221 67.1945 97.0447 73.0326 92.5252 77.7585C87.0057 83.522 81.3002 89.1306 75.6257 94.777C73.5584 96.8133 71.0267 97.3548 68.3441 96.2777C65.662 95.201 64.1293 93.0899 63.7872 90.207C63.5574 88.365 64.0545 86.7102 65.3953 85.3651C69.2259 81.4436 73.0566 77.5276 76.8922 73.6061C78.7682 71.6457 80.6861 69.728 82.3735 67.6495C86.2424 62.9246 86.7818 57.6585 84.1747 52.2422C81.417 46.5588 76.7437 43.7887 70.3806 43.982C66.8539 44.0565 63.9051 45.4018 61.4157 47.8234C58.9996 50.1693 56.5858 52.5849 54.0952 54.8573C51.6811 57.0479 48.5389 57.2781 45.8941 55.6226C43.1704 53.9403 41.8662 50.673 42.7478 47.6031C42.9402 46.912 43.2826 46.1835 43.7413 45.6056C47.268 41.3787 50.9868 37.344 55.5807 34.269C60.3361 31.04 65.662 29.5445 71.2562 29.6578Z" fill="white" fill-opacity="0.03"/>
</g>
<g filter="url(#filter1_bii_544_873)">
<path d="M42.4845 0.00314348C51.5917 -0.0785768 58.3059 7.91083 57.658 16.3003C57.3952 19.7091 56.1366 22.7739 53.7441 25.255C50.8221 28.2807 47.8017 31.2251 44.7977 34.1893C43.7033 35.2583 42.3631 35.5426 40.9429 34.9772C39.523 34.4119 38.7116 33.3036 38.5305 31.7902C38.4089 30.8232 38.672 29.9544 39.3818 29.2483C41.4097 27.1896 43.4377 25.1338 45.4681 23.0751C46.4613 22.0459 47.4766 21.0391 48.3699 19.948C50.4181 17.4675 50.7036 14.7029 49.3234 11.8594C47.8635 8.87576 45.3895 7.42154 42.021 7.52301C40.154 7.56213 38.5929 8.26836 37.2751 9.53968C35.996 10.7712 34.7182 12.0393 33.3997 13.2323C32.1217 14.3823 30.4583 14.5032 29.0581 13.6341C27.6162 12.7509 26.9258 11.0357 27.3925 9.42401C27.4944 9.06121 27.6756 8.67875 27.9184 8.37538C29.7854 6.15633 31.7541 4.03819 34.1861 2.42391C36.7035 0.728752 39.523 -0.0563835 42.4845 0.00314348Z" fill="white" fill-opacity="0.03"/>
</g>
<g filter="url(#filter2_bii_544_873)">
<path d="M58.4925 114.598C49.3854 114.68 42.6712 106.69 43.3191 98.3008C43.5818 94.892 44.8404 91.8271 47.233 89.3461C50.1549 86.3204 53.1753 83.376 56.1793 80.4118C57.2738 79.3427 58.614 79.0585 60.0342 79.6239C61.454 80.1892 62.2654 81.2974 62.4465 82.8109C62.5682 83.7779 62.305 84.6467 61.5952 85.3528C59.5673 87.4115 57.5394 89.4673 55.5089 91.526C54.5158 92.5552 53.5004 93.562 52.6071 94.6531C50.559 97.1336 50.2735 99.8982 51.6536 102.742C53.1135 105.725 55.5875 107.18 58.956 107.078C60.823 107.039 62.3841 106.333 63.702 105.061C64.981 103.83 66.2589 102.562 67.5774 101.369C68.8554 100.219 70.5188 100.098 71.9189 100.967C73.3608 101.85 74.0513 103.565 73.5845 105.177C73.4827 105.54 73.3015 105.922 73.0586 106.226C71.1916 108.445 69.2229 110.563 66.791 112.177C64.2735 113.872 61.454 114.657 58.4925 114.598Z" fill="white" fill-opacity="0.03"/>
</g>
<g filter="url(#filter3_bii_544_873)">
<path d="M28.5139 91.9565C11.6901 92.0742 -1.14274 76.8172 0.0807167 60.8751C0.577623 54.6129 2.76265 48.9234 7.01556 44.3527C12.3792 38.5896 18.053 33.093 23.6091 27.5218C24.2239 26.9056 24.9132 26.4076 25.6395 25.9466C28.3963 24.254 31.2338 24.5275 33.765 26.6387C35.951 28.4807 36.9072 31.9041 35.7586 34.5122C35.336 35.5148 34.5299 36.3981 33.765 37.2018C28.973 42.1206 24.1492 47.0377 19.3942 51.9555C17.4762 53.9165 15.7928 56.027 14.9489 58.7535C12.1503 67.7105 18.9727 78.1995 29.5073 77.6639C32.9971 77.4717 35.9825 76.3193 38.51 73.8988C40.9251 71.5509 43.3032 69.173 45.8295 66.8643C48.2445 64.6734 51.1935 64.3678 53.7997 65.8678C56.4825 67.3677 57.9417 70.3239 57.364 73.3994C57.1716 74.3584 56.7496 75.3979 56.1346 76.1261C52.609 80.3161 48.8534 84.3498 44.2963 87.4616C39.552 90.687 34.1824 91.9191 28.5139 91.9565Z" fill="white" fill-opacity="0.03"/>
</g>
<defs>
<filter id="filter0_bii_544_873" x="-43.5255" y="-56.3481" width="229.526" height="239.168" filterUnits="userSpaceOnUse" color-interpolation-filters="sRGB">
<feFlood flood-opacity="0" result="BackgroundImageFix"/>
<feGaussianBlur in="BackgroundImage" stdDeviation="43"/>
<feComposite in2="SourceAlpha" operator="in" result="effect1_backgroundBlur_544_873"/>
<feBlend mode="normal" in="SourceGraphic" in2="effect1_backgroundBlur_544_873" result="shape"/>
<feColorMatrix in="SourceAlpha" type="matrix" values="0 0 0 0 0 0 0 0 0 0 0 0 0 0 0 0 0 0 127 0" result="hardAlpha"/>
<feOffset dy="4"/>
<feGaussianBlur stdDeviation="2"/>
<feComposite in2="hardAlpha" operator="arithmetic" k2="-1" k3="1"/>
<feColorMatrix type="matrix" values="0 0 0 0 1 0 0 0 0 1 0 0 0 0 1 0 0 0 0.15 0"/>
<feBlend mode="normal" in2="shape" result="effect2_innerShadow_544_873"/>
<feColorMatrix in="SourceAlpha" type="matrix" values="0 0 0 0 0 0 0 0 0 0 0 0 0 0 0 0 0 0 127 0" result="hardAlpha"/>
<feOffset/>
<feGaussianBlur stdDeviation="34"/>
<feComposite in2="hardAlpha" operator="arithmetic" k2="-1" k3="1"/>
<feColorMatrix type="matrix" values="0 0 0 0 1 0 0 0 0 1 0 0 0 0 1 0 0 0 0.05 0"/>
<feBlend mode="normal" in2="effect2_innerShadow_544_873" result="effect3_innerShadow_544_873"/>
</filter>
<filter id="filter1_bii_544_873" x="-58.7522" y="-86" width="202.453" height="207.262" filterUnits="userSpaceOnUse" color-interpolation-filters="sRGB">
<feFlood flood-opacity="0" result="BackgroundImageFix"/>
<feGaussianBlur in="BackgroundImage" stdDeviation="43"/>
<feComposite in2="SourceAlpha" operator="in" result="effect1_backgroundBlur_544_873"/>
<feBlend mode="normal" in="SourceGraphic" in2="effect1_backgroundBlur_544_873" result="shape"/>
<feColorMatrix in="SourceAlpha" type="matrix" values="0 0 0 0 0 0 0 0 0 0 0 0 0 0 0 0 0 0 127 0" result="hardAlpha"/>
<feOffset dy="4"/>
<feGaussianBlur stdDeviation="2"/>
<feComposite in2="hardAlpha" operator="arithmetic" k2="-1" k3="1"/>
<feColorMatrix type="matrix" values="0 0 0 0 1 0 0 0 0 1 0 0 0 0 1 0 0 0 0.15 0"/>
<feBlend mode="normal" in2="shape" result="effect2_innerShadow_544_873"/>
<feColorMatrix in="SourceAlpha" type="matrix" values="0 0 0 0 0 0 0 0 0 0 0 0 0 0 0 0 0 0 127 0" result="hardAlpha"/>
<feOffset/>
<feGaussianBlur stdDeviation="34"/>
<feComposite in2="hardAlpha" operator="arithmetic" k2="-1" k3="1"/>
<feColorMatrix type="matrix" values="0 0 0 0 1 0 0 0 0 1 0 0 0 0 1 0 0 0 0.05 0"/>
<feBlend mode="normal" in2="effect2_innerShadow_544_873" result="effect3_innerShadow_544_873"/>
</filter>
<filter id="filter2_bii_544_873" x="-42.7241" y="-6.66064" width="202.453" height="207.262" filterUnits="userSpaceOnUse" color-interpolation-filters="sRGB">
<feFlood flood-opacity="0" result="BackgroundImageFix"/>
<feGaussianBlur in="BackgroundImage" stdDeviation="43"/>
<feComposite in2="SourceAlpha" operator="in" result="effect1_backgroundBlur_544_873"/>
<feBlend mode="normal" in="SourceGraphic" in2="effect1_backgroundBlur_544_873" result="shape"/>
<feColorMatrix in="SourceAlpha" type="matrix" values="0 0 0 0 0 0 0 0 0 0 0 0 0 0 0 0 0 0 127 0" result="hardAlpha"/>
<feOffset dy="4"/>
<feGaussianBlur stdDeviation="2"/>
<feComposite in2="hardAlpha" operator="arithmetic" k2="-1" k3="1"/>
<feColorMatrix type="matrix" values="0 0 0 0 1 0 0 0 0 1 0 0 0 0 1 0 0 0 0.15 0"/>
<feBlend mode="normal" in2="shape" result="effect2_innerShadow_544_873"/>
<feColorMatrix in="SourceAlpha" type="matrix" values="0 0 0 0 0 0 0 0 0 0 0 0 0 0 0 0 0 0 127 0" result="hardAlpha"/>
<feOffset/>
<feGaussianBlur stdDeviation="34"/>
<feComposite in2="hardAlpha" operator="arithmetic" k2="-1" k3="1"/>
<feColorMatrix type="matrix" values="0 0 0 0 1 0 0 0 0 1 0 0 0 0 1 0 0 0 0.05 0"/>
<feBlend mode="normal" in2="effect2_innerShadow_544_873" result="effect3_innerShadow_544_873"/>
</filter>
<filter id="filter3_bii_544_873" x="-86" y="-61.1567" width="229.489" height="239.114" filterUnits="userSpaceOnUse" color-interpolation-filters="sRGB">
<feFlood flood-opacity="0" result="BackgroundImageFix"/>
<feGaussianBlur in="BackgroundImage" stdDeviation="43"/>
<feComposite in2="SourceAlpha" operator="in" result="effect1_backgroundBlur_544_873"/>
<feBlend mode="normal" in="SourceGraphic" in2="effect1_backgroundBlur_544_873" result="shape"/>
<feColorMatrix in="SourceAlpha" type="matrix" values="0 0 0 0 0 0 0 0 0 0 0 0 0 0 0 0 0 0 127 0" result="hardAlpha"/>
<feOffset dy="4"/>
<feGaussianBlur stdDeviation="2"/>
<feComposite in2="hardAlpha" operator="arithmetic" k2="-1" k3="1"/>
<feColorMatrix type="matrix" values="0 0 0 0 1 0 0 0 0 1 0 0 0 0 1 0 0 0 0.15 0"/>
<feBlend mode="normal" in2="shape" result="effect2_innerShadow_544_873"/>
<feColorMatrix in="SourceAlpha" type="matrix" values="0 0 0 0 0 0 0 0 0 0 0 0 0 0 0 0 0 0 127 0" result="hardAlpha"/>
<feOffset/>
<feGaussianBlur stdDeviation="34"/>
<feComposite in2="hardAlpha" operator="arithmetic" k2="-1" k3="1"/>
<feColorMatrix type="matrix" values="0 0 0 0 1 0 0 0 0 1 0 0 0 0 1 0 0 0 0.05 0"/>
<feBlend mode="normal" in2="effect2_innerShadow_544_873" result="effect3_innerShadow_544_873"/>
</filter>
<radialGradient id="paint0_radial_544_873" cx="0" cy="0" r="1" gradientUnits="userSpaceOnUse" gradientTransform="translate(37.2562 85.0552) rotate(-110.841) scale(64.9866 28.9142)">
<stop stop-color="#FF9D2D"/>
<stop offset="1" stop-color="#8F3F88"/>
</radialGradient>
</defs>
</svg>
