<svg width="419" height="144" viewBox="0 0 419 144" fill="none" xmlns="http://www.w3.org/2000/svg">
<g clip-path="url(#clip0_544_1767)">
<g opacity="0.5">
<path opacity="0.5" d="M419 76.9057L318.184 76.7899L292.984 76.7568L280.376 76.7403H274.073H270.928H269.356H268.57L267.784 76.7237C263.596 76.6741 259.409 76.2274 255.267 75.5324C251.125 74.854 247.013 73.9275 242.901 72.9512C240.845 72.4714 238.789 71.9916 236.733 71.5283C236.219 71.4125 235.705 71.3132 235.176 71.2139C234.662 71.1146 234.148 70.9988 233.619 70.9161L232.062 70.6348C231.533 70.5521 231.019 70.4859 230.49 70.4197C229.961 70.337 229.447 70.3039 228.918 70.2542L228.132 70.1881C227.996 70.1715 227.875 70.1715 227.739 70.1715H227.346C226.817 70.1384 226.287 70.2046 225.758 70.2211C225.501 70.2377 225.229 70.2873 224.972 70.3204L224.579 70.3701C224.443 70.3866 224.322 70.4197 224.186 70.4362C222.085 70.8003 220.059 71.4621 218.079 72.2563C214.118 73.8282 210.324 75.8633 206.499 77.7496C204.579 78.6927 202.66 79.6027 200.694 80.3804C198.729 81.1581 196.734 81.8364 194.678 82.2336C192.637 82.6141 190.536 82.7299 188.495 82.2997C186.439 81.9192 184.428 81.2904 182.448 80.579C180.468 79.8675 178.502 79.0402 176.552 78.1963C174.602 77.3525 172.667 76.459 170.717 75.5986C166.817 73.8613 162.886 72.1901 158.835 70.9326C156.809 70.3039 154.738 69.7744 152.652 69.4435C152.123 69.3608 151.609 69.278 151.08 69.2118L150.294 69.1291C150.037 69.096 149.765 69.096 149.508 69.0629C149.251 69.0464 148.979 69.0133 148.722 69.0133L147.921 68.9967C147.391 68.9802 146.862 68.9967 146.333 68.9967C142.116 69.0464 137.898 69.46 133.756 70.3701C131.685 70.8168 129.629 71.3794 127.618 72.0578C125.593 72.7196 123.612 73.4807 121.632 74.2749C119.652 75.0691 117.702 75.8964 115.721 76.6906C113.756 77.4848 111.776 78.2129 109.765 78.8747C107.754 79.5366 105.744 80.0991 103.688 80.5624C103.174 80.6948 102.66 80.794 102.146 80.8933C101.632 80.9926 101.118 81.1084 100.604 81.1912L99.0622 81.4559L97.5051 81.671C97.2481 81.7041 96.9911 81.7372 96.7341 81.7703L95.9481 81.853C95.4341 81.9026 94.905 81.9688 94.391 82.0185L92.8188 82.1343L92.0327 82.1839L91.2466 82.217L89.6745 82.2832C89.1454 82.2997 88.6314 82.2997 88.1023 82.3163C87.5732 82.3163 87.0592 82.3328 86.5301 82.3328L84.9579 82.2997C84.4288 82.2997 83.9149 82.2501 83.4009 82.217L82.6148 82.1674C82.3578 82.1508 82.1008 82.1343 81.8287 82.1012L80.2716 81.9357L79.8786 81.8861L79.4856 81.8199L78.7146 81.7041C77.6715 81.5717 76.6587 81.3401 75.6307 81.1581C74.6028 80.9264 73.5899 80.7113 72.577 80.43C71.5642 80.1818 70.5514 79.8675 69.5385 79.5696C68.5408 79.2387 67.528 78.9243 66.5453 78.5603C65.5476 78.2129 64.565 77.8158 63.5824 77.4352C62.5998 77.0381 61.6172 76.641 60.6497 76.2108C56.7495 74.5397 52.9097 72.67 49.0549 70.8499C45.1849 69.0464 41.2696 67.3091 37.2182 65.9688C33.1819 64.6121 28.9794 63.7186 24.7466 63.4704C24.5047 63.4538 24.278 63.6689 24.278 63.9337C24.2628 64.1984 24.4594 64.4466 24.7013 64.4466C28.8585 64.6782 32.9703 65.5386 36.9612 66.8623C40.9673 68.1694 44.8523 69.8902 48.7072 71.6772C52.5771 73.4642 56.4169 75.3339 60.3473 77.005C61.33 77.4352 62.3126 77.8323 63.3103 78.2294C64.308 78.61 65.2906 79.0071 66.3034 79.3545C67.3012 79.7186 68.314 80.0329 69.3269 80.3639C70.3397 80.6617 71.3677 80.9761 72.3956 81.2408C73.4236 81.5221 74.4667 81.7372 75.4946 81.9688C76.5377 82.1508 77.5808 82.3825 78.6239 82.5148L79.41 82.6307L79.803 82.6803L80.1961 82.7299L81.7682 82.8954C82.0252 82.9285 82.2973 82.945 82.5543 82.9616L83.3404 83.0112C83.8695 83.0443 84.3986 83.0939 84.9277 83.0939L86.515 83.127C87.0441 83.127 87.5732 83.1105 88.1023 83.1105C88.6314 83.0939 89.1605 83.0939 89.6896 83.0774L91.2769 83.0112L92.063 82.9781L92.8491 82.9119L94.4212 82.7961C94.9503 82.7465 95.4643 82.6803 95.9934 82.6307L96.7795 82.5479C97.0365 82.5148 97.3086 82.4817 97.5656 82.4486L99.1378 82.2336L100.695 81.9688C101.224 81.8861 101.738 81.7703 102.252 81.671C102.766 81.5717 103.295 81.4724 103.809 81.3401C105.88 80.8768 107.921 80.2977 109.946 79.6193C111.972 78.9574 113.952 78.1963 115.933 77.4021C117.913 76.6079 119.863 75.7806 121.828 74.9864C123.794 74.1922 125.774 73.4311 127.77 72.7692C129.765 72.1074 131.791 71.5448 133.847 71.0981C137.943 70.1881 142.131 69.7744 146.303 69.7082C150.475 69.5593 154.633 70.337 158.654 71.5945C162.675 72.8354 166.59 74.49 170.49 76.2108C172.44 77.0712 174.375 77.9481 176.341 78.792C178.291 79.6358 180.271 80.4631 182.267 81.1746C184.277 81.8861 186.303 82.5314 188.404 82.9119C188.918 83.0278 189.462 83.0774 189.991 83.1436C190.127 83.1601 190.263 83.1601 190.384 83.1601L190.777 83.1767C191.05 83.1932 191.307 83.1932 191.579 83.1767L192.38 83.1436C192.652 83.127 192.909 83.0939 193.181 83.0609L193.574 83.0112C193.71 82.9947 193.831 82.9616 193.967 82.945L194.753 82.8127C196.839 82.399 198.865 81.7041 200.845 80.9099C202.826 80.1157 204.761 79.1891 206.681 78.246C210.52 76.3597 214.285 74.3246 218.215 72.7527C220.18 71.9585 222.191 71.3132 224.247 70.9492C224.368 70.9326 224.504 70.8995 224.625 70.883L225.018 70.8334C225.275 70.8003 225.532 70.7672 225.789 70.7341C226.303 70.7175 226.832 70.6513 227.346 70.6844H227.739C227.875 70.6844 227.996 70.6844 228.132 70.701L228.918 70.7672C229.432 70.8168 229.961 70.8499 230.475 70.9326C230.989 70.9988 231.518 71.065 232.032 71.1477L233.589 71.4125C234.103 71.4952 234.617 71.611 235.131 71.7103C235.645 71.8096 236.159 71.9088 236.673 72.0247C238.729 72.4714 240.785 72.9512 242.841 73.4311C246.953 74.3907 251.079 75.3008 255.237 75.9792C259.394 76.6575 263.596 77.1043 267.814 77.1374L268.6 77.1539H269.386H270.958H274.103H280.407L293.014 77.1374L318.214 77.1043L419 76.9057Z" fill="url(#paint0_radial_544_1767)"/>
<g opacity="0.5">
<path opacity="0.5" d="M24.7466 66.1179C23.6128 66.0848 22.7209 65.0589 22.7512 63.818C22.7814 62.577 23.7187 61.6008 24.8524 61.6339C25.9862 61.667 26.8781 62.6928 26.8479 63.9338C26.8177 65.1747 25.8804 66.1509 24.7466 66.1179Z" fill="url(#paint1_radial_544_1767)"/>
</g>
</g>
<g opacity="0.4">
<path opacity="0.4" d="M419 77.7662L314.103 77.6504L261.661 77.5842C261.117 77.5842 260.573 77.5676 260.029 77.5676C259.485 77.5511 258.94 77.518 258.396 77.4849C257.308 77.4022 256.219 77.2863 255.146 77.1043C254.073 76.9389 252.999 76.7072 251.941 76.459C250.883 76.1778 249.825 75.8965 248.782 75.5325C246.696 74.8375 244.67 73.9771 242.69 72.9844C240.709 71.9916 238.789 70.8499 236.915 69.6421C233.166 67.1933 229.628 64.397 226.136 61.518C222.644 58.6555 219.182 55.7103 215.554 53.0133C211.926 50.3329 208.117 47.8841 204.005 46.1798C203.491 45.9647 202.977 45.7662 202.448 45.5676C201.919 45.3856 201.405 45.2036 200.861 45.0547C200.331 44.8892 199.802 44.7569 199.258 44.608C198.986 44.5418 198.714 44.4921 198.457 44.426L198.049 44.3432L197.641 44.2605C196.552 44.0454 195.464 43.913 194.36 43.8137C193.816 43.7807 193.257 43.731 192.712 43.731C192.168 43.7145 191.609 43.731 191.065 43.731C189.961 43.7641 188.858 43.8468 187.769 44.0123C187.225 44.0785 186.681 44.1943 186.137 44.277L185.32 44.459C185.048 44.5087 184.776 44.5914 184.519 44.6576C184.247 44.7238 183.975 44.79 183.718 44.8727L182.917 45.1209C182.66 45.2036 182.387 45.3029 182.131 45.4022C181.874 45.4849 181.601 45.6007 181.344 45.7C180.83 45.8986 180.316 46.1302 179.802 46.3618C179.304 46.61 178.79 46.8417 178.306 47.1064C176.326 48.1488 174.451 49.4394 172.667 50.8458C170.883 52.2688 169.205 53.8075 167.588 55.4291C164.338 58.6555 161.329 62.1302 158.14 65.3898C156.537 67.0113 154.905 68.5831 153.166 70.0061C151.443 71.4456 149.614 72.7362 147.694 73.8282C146.726 74.3743 145.744 74.8541 144.731 75.2843C143.718 75.7145 142.69 76.0619 141.647 76.3763C140.604 76.6907 139.546 76.8892 138.472 77.0713L137.671 77.1871C137.399 77.2202 137.127 77.2367 136.87 77.2698C136.326 77.336 135.797 77.3525 135.252 77.3856C134.98 77.4022 134.708 77.4022 134.436 77.4022H134.028C133.892 77.4022 133.756 77.3856 133.635 77.3856L132.834 77.3525L132.033 77.2367C131.896 77.2202 131.76 77.2036 131.639 77.1705L131.246 77.0878L130.853 77.0051C130.717 76.972 130.596 76.9554 130.46 76.9058L129.689 76.6576L129.493 76.5914L129.296 76.5087L128.918 76.3598C126.893 75.5656 125.018 74.3577 123.249 73.0009C121.481 71.6276 119.833 70.0723 118.261 68.4508C116.689 66.8127 115.177 65.0919 113.711 63.3215C110.793 59.7807 108.027 56.0743 105.306 52.3515C99.8482 44.8892 94.4968 37.2946 88.6465 30.1633C87.1801 28.3763 85.6836 26.6224 84.1567 24.9016C82.6299 23.1809 81.0426 21.5097 79.4251 19.8882C77.8076 18.2667 76.1296 16.7114 74.4062 15.2222C72.6829 13.7331 70.9142 12.3101 69.0548 11.003C67.2105 9.69586 65.3058 8.47145 63.3405 7.37942C61.3753 6.28738 59.3496 5.34426 57.2635 4.5335C53.1063 2.89544 48.7223 1.98541 44.3232 1.73722C44.0814 1.72068 43.8697 1.93578 43.8546 2.20051C43.8395 2.46525 44.036 2.71344 44.2779 2.71344C48.6013 2.94508 52.8946 3.83857 56.9762 5.42699C59.017 6.22119 61.0125 7.13123 62.9475 8.20672C64.8824 9.28221 66.757 10.4735 68.5862 11.7641C70.4153 13.0547 72.1689 14.4611 73.8771 15.9172C75.5854 17.3898 77.2482 18.9285 78.8506 20.5335C80.453 22.1385 82.0252 23.7931 83.5521 25.4973C85.0789 27.2015 86.5604 28.9389 88.0267 30.7093C93.8619 37.8075 99.2285 45.3691 104.701 52.8148C107.452 56.5376 110.219 60.2439 113.166 63.8013C114.648 65.5718 116.16 67.3091 117.762 68.9637C119.364 70.6183 121.042 72.1736 122.841 73.58C124.64 74.9699 126.575 76.2109 128.677 77.0216L129.07 77.1705L129.266 77.2533L129.463 77.3194L130.264 77.5676C130.4 77.6173 130.536 77.6338 130.672 77.6669L131.08 77.7662L131.488 77.8655C131.624 77.8986 131.76 77.9151 131.896 77.9316L132.728 78.0475L133.559 78.0806C133.695 78.0806 133.847 78.0971 133.983 78.0971L134.391 78.0806C134.663 78.0806 134.935 78.064 135.222 78.064C135.766 78.0309 136.326 78.0144 136.87 77.9482C137.142 77.9151 137.414 77.8986 137.686 77.8655L138.503 77.7496C139.591 77.5676 140.679 77.336 141.753 77.0216C142.826 76.7072 143.869 76.3432 144.897 75.8965C145.925 75.4497 146.938 74.9534 147.921 74.4073C149.871 73.2822 151.73 71.9751 153.484 70.5025C155.237 69.0464 156.885 67.458 158.487 65.82C161.692 62.5438 164.701 59.0692 167.905 55.8427C169.508 54.2377 171.171 52.699 172.924 51.2926C174.678 49.9027 176.522 48.6286 178.472 47.5862C178.956 47.3215 179.455 47.0899 179.954 46.8417C180.453 46.6266 180.951 46.3949 181.465 46.1964C181.722 46.0971 181.979 45.9978 182.236 45.8985C182.493 45.8158 182.75 45.7165 183.007 45.6338L183.793 45.3856C184.05 45.3029 184.322 45.2367 184.579 45.1705C184.836 45.1043 185.109 45.0216 185.366 44.972L186.167 44.79C186.696 44.6907 187.24 44.5914 187.769 44.5252C188.842 44.3598 189.931 44.277 191.004 44.2439C191.548 44.2274 192.093 44.2109 192.637 44.2274C193.181 44.2274 193.725 44.2605 194.254 44.2936C195.328 44.3929 196.416 44.5087 197.474 44.7238L197.883 44.79L198.276 44.8727C198.548 44.9389 198.805 44.9885 199.077 45.0547C199.606 45.1871 200.135 45.3194 200.649 45.4849C201.178 45.6338 201.692 45.8158 202.206 45.9978C202.72 46.1964 203.234 46.3784 203.748 46.5935C207.814 48.2646 211.609 50.6803 215.222 53.3443C218.835 56.0247 222.297 58.9534 225.789 61.7993C229.296 64.6617 232.848 67.4746 236.612 69.9234C238.502 71.1478 240.437 72.2729 242.433 73.2822C244.428 74.275 246.469 75.1519 248.585 75.8468C249.628 76.2109 250.702 76.4921 251.76 76.7734C252.833 77.0216 253.906 77.2533 254.995 77.4187C256.083 77.6007 257.172 77.7 258.26 77.7993C258.804 77.8324 259.349 77.8655 259.908 77.882C260.452 77.882 261.011 77.8986 261.556 77.8986L313.997 77.8324L419 77.7662Z" fill="url(#paint2_radial_544_1767)"/>
<g opacity="0.4">
<path opacity="0.4" d="M44.4139 4.48406C43.2801 4.45096 42.3881 3.42511 42.4184 2.18416C42.4486 0.943208 43.3859 -0.0330074 44.5197 8.46271e-05C45.6535 0.0331767 46.5454 1.05903 46.5151 2.29998C46.4849 3.54093 45.5325 4.5006 44.4139 4.48406Z" fill="url(#paint3_radial_544_1767)"/>
</g>
</g>
<g opacity="0.6">
<path opacity="0.6" d="M419 78.6101L320.573 78.4943L271.367 78.4281L246.756 78.395L234.451 78.3785H228.298H225.229L222.161 78.3288C221.133 78.3123 220.12 78.2958 219.092 78.2792L216.023 78.1303L214.481 78.0641L213.71 78.031L212.939 77.9648L209.87 77.7166C209.356 77.667 208.842 77.6339 208.344 77.5843L206.817 77.4023L203.763 77.0383L200.725 76.5584L199.198 76.3268L197.686 76.0289C196.673 75.8304 195.675 75.6484 194.663 75.4333L191.669 74.7218L190.914 74.5398L190.173 74.3247L188.691 73.9111L187.21 73.4974L185.744 73.0176C181.828 71.7435 177.973 70.1882 174.255 68.335C170.536 66.4819 166.938 64.3309 163.416 62.0476C159.893 59.7642 156.432 57.3485 152.849 55.1479C151.065 54.0227 149.221 53.03 147.346 52.0703C145.457 51.1768 143.537 50.3164 141.571 49.6546C137.626 48.2978 133.529 47.5202 129.417 47.2554L129.024 47.2223L128.828 47.2058H128.631L127.86 47.1892L126.318 47.1396L125.547 47.123L124.776 47.1396L123.234 47.1892L122.841 47.2058C122.705 47.2058 122.584 47.2058 122.448 47.2223L121.677 47.2885L120.135 47.4209C120.014 47.4374 119.878 47.4374 119.757 47.454L119.38 47.5036L118.609 47.6194L117.082 47.8511C113 48.5626 109.009 49.787 105.139 51.3423C101.269 52.8811 97.5203 54.7508 93.8317 56.7363C90.1431 58.7218 86.515 60.8232 82.8718 62.8749C79.2286 64.9266 75.5703 66.9452 71.8363 68.7818C68.1024 70.6184 64.308 72.273 60.4229 73.6463C56.5379 75.0196 52.5772 76.1117 48.5561 76.8562C44.5349 77.6174 40.4684 78.031 36.3868 78.1468C36.1449 78.1468 35.9333 78.3785 35.9484 78.6598C35.9484 78.9245 36.16 79.1561 36.417 79.1396C40.544 79.0072 44.6559 78.577 48.7072 77.7994C52.7737 77.0217 56.7798 75.9131 60.6951 74.5233C64.6104 73.1334 68.435 71.4457 72.1841 69.5925C75.9331 67.7394 79.6065 65.7042 83.2498 63.636C86.8929 61.5677 90.506 59.4664 94.1794 57.4643C97.8528 55.4788 101.572 53.6256 105.411 52.0869C109.236 50.5481 113.182 49.3237 117.203 48.6122L118.714 48.3805L119.47 48.2647L119.848 48.2151C119.969 48.1985 120.105 48.1985 120.226 48.182L121.753 48.0496L122.509 47.9834C122.63 47.9669 122.766 47.9669 122.887 47.9669L123.265 47.9503L124.791 47.9007L125.562 47.8842L126.333 47.9007L127.86 47.9338L128.631 47.9503H128.828L129.024 47.9669L129.402 48C133.469 48.2647 137.52 49.0093 141.405 50.3495C143.355 50.9948 145.245 51.8387 147.119 52.7156C148.964 53.6587 150.793 54.6515 152.577 55.7601C156.144 57.9276 159.606 60.3433 163.143 62.6267C166.681 64.91 170.294 67.061 174.043 68.9142C177.792 70.7673 181.662 72.3226 185.607 73.5967L187.089 74.0765L188.586 74.4902L190.082 74.9038L190.823 75.1189L191.579 75.3009L194.587 76.0124C195.6 76.2275 196.613 76.4095 197.626 76.6081L199.137 76.9059L200.664 77.1375L203.718 77.6008L206.786 77.9483L208.313 78.1303C208.827 78.1799 209.341 78.213 209.855 78.2627L212.924 78.5109L213.695 78.577L214.466 78.6101L216.008 78.6763L219.092 78.8087C220.12 78.8418 221.148 78.8418 222.176 78.8583L225.26 78.908H228.328H234.481L246.786 78.8914L271.397 78.8583L320.603 78.7921L419 78.6101Z" fill="url(#paint4_radial_544_1767)"/>
<g opacity="0.6">
<path opacity="0.6" d="M36.5531 80.7942C35.4194 80.8273 34.4821 79.8345 34.467 78.6101C34.4367 77.3691 35.3438 76.3433 36.4624 76.3267C37.5962 76.2936 38.5335 77.2864 38.5486 78.5108C38.5788 79.7518 37.6869 80.7776 36.5531 80.7942Z" fill="url(#paint5_radial_544_1767)"/>
</g>
</g>
<g opacity="0.5">
<path opacity="0.5" d="M419 77.7827L312.183 77.6669L285.471 77.6338L278.789 77.6173L275.463 77.5346C275.191 77.518 274.904 77.5346 274.632 77.5015L273.8 77.4518L272.138 77.336C267.708 77.0051 263.294 76.3598 258.925 75.4167L255.675 74.639L252.44 73.7455L252.032 73.6297L251.639 73.4973L250.838 73.2491L249.235 72.7528C248.706 72.5873 248.177 72.4053 247.648 72.2233L246.061 71.6773C241.843 70.1716 237.686 68.4177 233.589 66.5149C225.396 62.7424 217.414 58.3908 209.22 54.5521C205.124 52.6493 200.966 50.8789 196.703 49.4063C192.456 47.9337 188.087 46.8086 183.672 46.1302L182.01 45.9151L181.178 45.7993L180.755 45.7496C180.619 45.7331 180.483 45.7331 180.332 45.7165L178.654 45.5842L177.822 45.518L177.399 45.4849C177.263 45.4684 177.127 45.4684 176.976 45.4684L175.298 45.4187L174.466 45.4022C174.194 45.4022 173.907 45.3856 173.635 45.3856L172.788 45.4022C172.501 45.4022 172.229 45.4353 171.942 45.4518C171.382 45.4684 170.823 45.5511 170.264 45.6007C169.145 45.7496 168.041 45.9317 166.938 46.1964C165.849 46.4611 164.761 46.792 163.688 47.1726C162.63 47.5697 161.586 48.033 160.558 48.5459C159.546 49.0588 158.548 49.638 157.58 50.2667C156.613 50.8789 155.676 51.5573 154.754 52.2688C153.831 52.9803 152.939 53.7083 152.078 54.4694C150.324 55.9916 148.661 57.6131 147.014 59.2512C143.718 62.5273 140.498 65.8862 136.976 68.8313C136.099 69.5594 135.207 70.2874 134.285 70.9658C133.363 71.6442 132.441 72.2895 131.473 72.8851C130.521 73.4808 129.538 74.0599 128.54 74.5728C128.299 74.7052 128.042 74.821 127.785 74.9534C127.528 75.0857 127.286 75.2016 127.029 75.3174L126.258 75.6649L125.487 75.9792C125.23 76.0951 124.973 76.1943 124.701 76.2936C124.444 76.3929 124.187 76.4922 123.915 76.5914C123.386 76.7734 122.856 76.9554 122.327 77.1044C121.269 77.4353 120.181 77.6835 119.107 77.9151C116.931 78.3453 114.739 78.5935 112.532 78.6762C111.972 78.6928 111.428 78.6928 110.869 78.7093L110.037 78.6928L109.629 78.6762C109.493 78.6762 109.357 78.6597 109.221 78.6597C108.117 78.577 107.029 78.4611 105.94 78.2295C103.779 77.7993 101.647 77.1209 99.6216 76.1778C95.5551 74.3081 91.8665 71.5614 88.4651 68.4508C85.0638 65.3401 81.9345 61.882 78.896 58.3412C75.8424 54.8003 72.8794 51.1602 69.856 47.5863C66.8326 44.0123 63.7336 40.488 60.4381 37.1788C57.1577 33.8696 53.6656 30.7755 49.9166 28.095C48.0421 26.7548 46.0919 25.5304 44.0814 24.4384C42.0708 23.3463 39.9998 22.4032 37.8683 21.609C33.6204 20.0206 29.1609 19.1105 24.6711 18.8293C24.4292 18.8127 24.2024 19.0278 24.2024 19.2926C24.1873 19.5573 24.3839 19.8055 24.6257 19.822C29.0248 20.0868 33.4087 20.9802 37.5811 22.519C39.6672 23.2967 41.708 24.2233 43.6884 25.2822C45.6687 26.3577 47.5885 27.5656 49.4479 28.8727C53.1667 31.5035 56.6134 34.5645 59.8787 37.8406C63.144 41.1168 66.243 44.6245 69.2664 48.1819C72.305 51.7393 75.2679 55.3629 78.3367 58.9203C81.4055 62.4611 84.5498 65.9358 87.9965 69.063C91.4281 72.1902 95.1922 74.9699 99.3494 76.8893C101.42 77.8489 103.597 78.5439 105.82 78.9741C106.923 79.2057 108.057 79.3215 109.176 79.4043C109.312 79.4208 109.463 79.4208 109.599 79.4208L110.022 79.4373L110.869 79.4539C111.428 79.4373 111.987 79.4373 112.547 79.4208C114.784 79.3381 117.021 79.0733 119.228 78.6266C120.332 78.395 121.42 78.1302 122.509 77.7827C123.053 77.6338 123.582 77.4353 124.126 77.2533C124.398 77.154 124.655 77.0547 124.928 76.9554C125.2 76.8562 125.457 76.7569 125.714 76.6411L126.5 76.3102L127.271 75.9627C127.528 75.8469 127.785 75.7145 128.042 75.5987C128.299 75.4663 128.556 75.3505 128.813 75.2181C129.825 74.6886 130.808 74.1095 131.791 73.4973C132.758 72.8851 133.711 72.2233 134.633 71.5449C135.555 70.85 136.462 70.1385 137.354 69.3939C140.906 66.3991 144.126 63.0237 147.407 59.7476C149.054 58.1095 150.702 56.488 152.441 54.9823C153.302 54.2212 154.194 53.4932 155.086 52.7982C155.993 52.1033 156.915 51.4415 157.868 50.8293C158.82 50.2171 159.788 49.638 160.785 49.125C161.783 48.6121 162.811 48.1654 163.854 47.7683C164.897 47.3877 165.955 47.0568 167.044 46.792C168.117 46.5273 169.205 46.3453 170.309 46.2129C170.853 46.1633 171.413 46.0971 171.957 46.064C172.229 46.0475 172.501 46.0309 172.788 46.0144L173.62 45.9978C173.892 45.9813 174.179 45.9978 174.451 45.9978L175.283 46.0144L176.945 46.064C177.081 46.064 177.217 46.064 177.354 46.0806L177.762 46.1137L178.593 46.1798L180.256 46.3122C180.392 46.3288 180.528 46.3288 180.664 46.3453L181.072 46.3949L181.904 46.5108L183.552 46.7259C187.951 47.3877 192.274 48.5128 196.522 49.9523C200.77 51.3918 204.912 53.1457 209.009 55.0485C217.202 58.8541 225.184 63.1892 233.393 66.9451C237.504 68.8313 241.662 70.5852 245.909 72.0909L247.497 72.6369C248.026 72.8189 248.555 73.0175 249.099 73.1664L250.702 73.6628L251.503 73.911L251.911 74.0433L252.319 74.1592L255.569 75.0527L258.835 75.8138C263.203 76.7569 267.633 77.3856 272.092 77.7166L273.755 77.8324L274.587 77.882C274.859 77.8986 275.146 77.8986 275.418 77.9151L278.759 77.9813H285.441L312.153 77.9482L419 77.7827Z" fill="url(#paint6_radial_544_1767)"/>
<g opacity="0.5">
<path opacity="0.5" d="M24.7316 21.5594C23.5978 21.5097 22.721 20.4839 22.7664 19.2429C22.8117 18.002 23.749 17.0423 24.8827 17.0919C26.0165 17.1416 26.8933 18.1674 26.8479 19.4084C26.8026 20.6328 25.8502 21.5924 24.7316 21.5594Z" fill="url(#paint7_radial_544_1767)"/>
</g>
</g>
<g opacity="0.7">
<path opacity="0.7" d="M419 79.057L312.848 78.9411L286.317 78.908C281.903 78.8915 277.474 78.7757 273.09 78.2462C268.691 77.7498 264.337 76.9722 260.029 75.9132C255.721 74.8543 251.473 73.4975 247.3 71.9256C243.128 70.3538 239.016 68.5502 234.95 66.664C230.883 64.7777 226.832 62.8088 222.765 60.9225C218.684 59.0363 214.557 57.2658 210.354 55.7602C206.137 54.2545 201.843 53.0135 197.474 52.1697C193.106 51.3258 188.676 50.8625 184.247 50.7633L182.584 50.7302L180.921 50.7798L180.09 50.7963C179.818 50.7963 179.53 50.8129 179.258 50.8294L177.595 50.9618L176.764 51.028C176.492 51.0445 176.22 51.0942 175.933 51.1273L174.285 51.3424C173.725 51.4086 173.181 51.5078 172.637 51.6071L170.989 51.9049C166.62 52.7819 162.342 54.1221 158.155 55.7436C156.054 56.5378 153.998 57.4479 151.957 58.3579C150.944 58.8377 149.916 59.301 148.903 59.7974C147.89 60.2938 146.878 60.7736 145.88 61.2865C141.859 63.3051 137.883 65.4396 133.877 67.5078C129.886 69.5761 125.865 71.5782 121.753 73.332C117.641 75.0694 113.423 76.542 109.115 77.5182C106.953 77.9484 104.777 78.362 102.585 78.5109C100.393 78.726 98.2006 78.7095 95.9935 78.6268C91.5945 78.4613 87.2105 77.8656 82.9021 76.906C78.5786 75.9463 74.3307 74.6392 70.1736 73.0508C66.0012 71.4789 61.9196 69.6423 57.8834 67.6733C53.8471 65.7043 49.8713 63.5864 45.9106 61.452C41.9348 59.3176 37.9742 57.1831 33.9379 55.1645C29.9017 53.1459 25.7898 51.2927 21.557 49.8036C21.0279 49.605 20.4988 49.4396 19.9546 49.2741C19.4255 49.1087 18.8813 48.9266 18.3522 48.7777L16.7347 48.3475C16.4626 48.2814 16.1905 48.1986 15.9184 48.1324L15.102 47.967L13.4543 47.6195L11.7914 47.3713L10.96 47.239L10.1285 47.1562L8.45053 47.0073C8.20865 46.9908 7.9819 47.1893 7.9668 47.4541C7.95166 47.7188 8.13306 47.967 8.37494 47.9835H8.40515L10.0378 48.1324L10.8542 48.1986L11.6705 48.3144L13.3031 48.5626L14.9206 48.8936L15.7219 49.059C15.994 49.1252 16.2509 49.1914 16.5231 49.2741L18.1255 49.6878C18.6545 49.8367 19.1837 50.0187 19.7127 50.1841C20.2419 50.3496 20.771 50.4985 21.2849 50.6971C25.4724 52.1531 29.554 53.9897 33.5751 55.9753C37.5962 57.9773 41.5569 60.1118 45.5327 62.2297C49.5085 64.3475 53.4994 66.4654 57.5508 68.4344C61.6022 70.4034 65.714 72.24 69.9166 73.8119C74.1191 75.3837 78.3972 76.7074 82.7509 77.6671C87.1046 78.6268 91.534 79.2059 95.9633 79.3713C98.1855 79.4375 100.408 79.4706 102.63 79.239C104.852 79.0735 107.044 78.6599 109.236 78.2131C113.59 77.2204 117.838 75.7147 121.965 73.9608C126.092 72.1904 130.128 70.1717 134.119 68.0869C138.11 66.0021 142.085 63.8677 146.091 61.8491C147.089 61.3362 148.102 60.8563 149.115 60.36C150.128 59.8636 151.141 59.4003 152.153 58.9204C154.194 57.9939 156.235 57.1004 158.321 56.3062C162.478 54.6847 166.726 53.3444 171.05 52.4675L172.682 52.1697C173.227 52.0704 173.771 51.9546 174.315 51.9049L175.948 51.6898C176.22 51.6567 176.492 51.6071 176.764 51.5906L177.58 51.5244L179.228 51.392C179.5 51.3589 179.772 51.3589 180.06 51.3589L180.891 51.3424L182.539 51.2927L184.186 51.3258C188.601 51.4086 193 51.8553 197.338 52.6826C201.677 53.5099 205.97 54.7343 210.158 56.2234C214.36 57.7126 218.472 59.483 222.554 61.3527C226.635 63.2224 230.671 65.1914 234.753 67.0611C238.835 68.9473 242.947 70.7343 247.134 72.3062C251.321 73.8781 255.584 75.2348 259.908 76.2772C264.231 77.3362 268.615 78.0973 273.014 78.5937C277.413 79.1066 281.858 79.2059 286.272 79.2224L312.803 79.1893L419 79.057Z" fill="url(#paint8_radial_544_1767)"/>
<g opacity="0.7">
<path opacity="0.7" d="M8.45051 49.7373C7.31673 49.7042 6.42484 48.6784 6.47019 47.4374C6.50043 46.1965 7.43767 45.2202 8.57146 45.2699C9.70524 45.303 10.5972 46.3288 10.5518 47.5698C10.5216 48.8107 9.58429 49.7704 8.45051 49.7373Z" fill="url(#paint9_radial_544_1767)"/>
</g>
</g>
<g opacity="0.8">
<path opacity="0.8" d="M419 78.0477L363.445 77.9816L335.66 77.9485H332.183C331.019 77.9485 329.87 77.9485 328.706 77.9154C326.393 77.8657 324.08 77.7168 321.782 77.4521C317.186 76.9392 312.621 76.0291 308.177 74.5896C303.732 73.1832 299.439 71.2639 295.327 68.9474C293.271 67.7892 291.261 66.5317 289.28 65.2246C287.3 63.9009 285.365 62.5276 283.43 61.1377C281.495 59.7478 279.545 58.358 277.549 57.0674C275.554 55.7768 273.498 54.5855 271.321 53.6755C269.144 52.7654 266.847 52.1698 264.503 52.087C262.175 52.0043 259.832 52.3518 257.595 53.0302C255.343 53.7085 253.196 54.7013 251.125 55.8761C249.069 57.0508 247.089 58.3911 245.169 59.814C241.314 62.6434 237.656 65.754 233.861 68.6331C231.956 70.0726 230.021 71.4459 228.011 72.6868C226 73.9278 223.929 75.0364 221.768 75.8968C219.606 76.7571 217.353 77.3694 215.071 77.6341L214.209 77.7168L213.347 77.7665L212.486 77.783C212.198 77.783 211.911 77.7665 211.624 77.7499C210.49 77.6837 209.356 77.4686 208.268 77.1046C206.076 76.3766 204.081 75.086 202.297 73.5141C200.513 71.9423 198.91 70.1057 197.444 68.1698C196.703 67.1936 195.993 66.2008 195.313 65.1915C194.632 64.1822 193.952 63.1398 193.302 62.0974C192.002 60.0126 190.732 57.8947 189.493 55.7603C186.983 51.5079 184.504 47.206 181.647 43.1853C180.211 41.1832 178.684 39.2473 176.976 37.51C176.114 36.6331 175.222 35.8223 174.27 35.0777C173.317 34.3332 172.304 33.6713 171.246 33.1253C169.13 32.0167 166.772 31.388 164.413 31.388C163.234 31.388 162.055 31.5203 160.906 31.8016C159.757 32.0829 158.639 32.5296 157.58 33.1253C155.464 34.3001 153.665 36.0374 152.138 37.9733C150.611 39.9257 149.342 42.0932 148.208 44.2939C145.925 48.7447 144.126 53.4273 142.191 58.0271C141.224 60.327 140.226 62.6103 139.107 64.8109C137.989 67.0115 136.764 69.146 135.298 71.0653C133.847 72.9847 132.123 74.6889 130.128 75.8471C128.132 77.0219 125.88 77.6175 123.612 77.6175C122.479 77.6175 121.36 77.4521 120.271 77.1543C119.168 76.8564 118.125 76.3766 117.097 75.8306L116.719 75.6155L116.522 75.5162L116.341 75.4004L115.6 74.9371C115.358 74.7716 115.116 74.6062 114.875 74.4407L114.512 74.1925L114.164 73.9278C113.212 73.2328 112.32 72.4386 111.428 71.6444C107.921 68.3849 104.852 64.5958 101.904 60.7075C98.9563 56.8027 96.1597 52.782 93.363 48.7447C90.5663 44.7075 87.7546 40.6703 84.8521 36.7158C81.9345 32.7613 78.9262 28.8895 75.6609 25.2659C74.0283 23.4624 72.3352 21.7085 70.5514 20.0539C68.7675 18.4159 66.9081 16.8606 64.9127 15.5038C62.9323 14.147 60.8462 12.9557 58.6391 12.0457C56.432 11.1522 54.1191 10.54 51.776 10.3083C51.5341 10.2918 51.3073 10.4903 51.2922 10.7551C51.2771 11.0198 51.4585 11.268 51.7004 11.2846C53.9679 11.4996 56.1901 12.0788 58.3368 12.9392C60.4683 13.8161 62.5091 14.9743 64.4592 16.298C66.4093 17.6217 68.2384 19.1439 70.0071 20.7489C71.7607 22.3704 73.4538 24.0912 75.0714 25.8781C78.3215 29.4686 81.3298 33.3073 84.2323 37.2453C87.1348 41.1832 89.9466 45.2039 92.7583 49.2411C95.5701 53.2618 98.3819 57.299 101.345 61.2039C104.308 65.1088 107.422 68.9143 110.99 72.2235C111.897 73.0343 112.804 73.8285 113.786 74.54L114.149 74.8213L114.527 75.086C114.769 75.2515 115.026 75.4335 115.268 75.5989L116.039 76.0788L116.235 76.1946L116.432 76.3104L116.825 76.5255C117.883 77.0881 118.986 77.5844 120.135 77.8988C121.284 78.2132 122.479 78.3952 123.658 78.3787C126.016 78.3621 128.404 77.7334 130.491 76.4924C132.592 75.268 134.361 73.481 135.857 71.5121C137.354 69.5431 138.593 67.359 139.727 65.1253C140.846 62.8916 141.844 60.5917 142.826 58.2918C144.761 53.6754 146.545 49.0095 148.797 44.5917C149.931 42.3911 151.171 40.2732 152.652 38.3704C154.134 36.4676 155.872 34.7964 157.898 33.6713C158.911 33.1088 159.984 32.6786 161.088 32.3973C162.191 32.116 163.325 32.0002 164.459 31.9836C166.726 31.9836 168.994 32.5793 171.05 33.6548C172.078 34.1842 173.06 34.8295 173.998 35.5576C174.935 36.2856 175.812 37.0798 176.658 37.9402C178.351 39.6444 179.863 41.5472 181.284 43.5327C184.126 47.5038 186.605 51.7892 189.115 56.0415C190.369 58.176 191.639 60.2939 192.954 62.3952C193.619 63.4376 194.285 64.48 194.98 65.4893C195.675 66.4986 196.386 67.5079 197.142 68.4841C198.638 70.4366 200.256 72.2897 202.07 73.8947C203.899 75.4831 205.955 76.8068 208.207 77.5514C209.326 77.9154 210.505 78.147 211.669 78.2132C211.957 78.2132 212.259 78.2463 212.546 78.2297L213.423 78.2132L214.3 78.1636L215.176 78.0808C217.504 77.7995 219.772 77.1873 221.964 76.3104C224.156 75.4335 226.257 74.3083 228.268 73.0674C230.294 71.8099 232.229 70.42 234.133 68.9805C237.943 66.085 241.601 62.9743 245.426 60.1284C247.346 58.722 249.296 57.3652 251.352 56.207C253.392 55.0322 255.524 54.0395 257.746 53.3776C259.953 52.6992 262.266 52.3518 264.564 52.4345C266.862 52.5172 269.129 53.0963 271.276 53.9733C273.438 54.8668 275.478 56.0415 277.474 57.3321C279.469 58.6227 281.404 59.996 283.339 61.3859C285.274 62.7592 287.224 64.1491 289.205 65.4562C291.185 66.7799 293.196 68.0209 295.267 69.1791C299.394 71.4955 303.717 73.4149 308.162 74.8213C312.621 76.2442 317.202 77.1543 321.812 77.6506C324.125 77.8988 326.438 78.0477 328.751 78.0974C329.915 78.1139 331.064 78.1305 332.228 78.1139H335.705L363.445 78.0974L419 78.0477Z" fill="url(#paint10_radial_544_1767)"/>
<g opacity="0.8">
<path opacity="0.8" d="M51.7305 13.1045C50.5967 13.0383 49.7351 11.9959 49.7955 10.755C49.856 9.51401 50.8084 8.57089 51.9421 8.63707C53.0759 8.70325 53.9376 9.74565 53.8771 10.9866C53.8167 12.211 52.8643 13.1707 51.7305 13.1045Z" fill="url(#paint11_radial_544_1767)"/>
</g>
</g>
<g opacity="0.9">
<path opacity="0.9" d="M419 78.61C384.639 78.6927 350.263 78.7424 315.902 78.6927L290.127 78.61L277.247 78.5273C272.954 78.4942 268.661 78.4611 264.367 78.3949L262.765 78.3453L261.163 78.2294L260.754 78.1964L260.361 78.1467L259.56 78.064L258.759 77.9813L257.958 77.8654C255.841 77.5676 253.725 77.1374 251.654 76.5748C247.497 75.4497 243.461 73.8282 239.606 71.793C235.751 69.7579 232.062 67.3256 228.54 64.6617C225.018 61.9978 221.647 59.0857 218.351 56.0743C215.056 53.063 211.851 49.9358 208.631 46.8251C205.411 43.7145 202.161 40.6203 198.79 37.7082C197.096 36.2522 195.373 34.8458 193.589 33.5221C191.805 32.1984 189.961 30.9575 188.056 29.8489C186.152 28.7403 184.171 27.7806 182.115 27.003C181.994 26.9533 181.858 26.9037 181.737 26.8541L181.344 26.7217L180.573 26.457C180.06 26.2915 179.53 26.1426 179.001 25.9937L178.2 25.8117C177.928 25.7455 177.671 25.6793 177.399 25.6297C176.87 25.5304 176.326 25.4146 175.796 25.3649C173.65 25.0671 171.473 25.0174 169.296 25.2325C167.134 25.4642 165.003 25.9937 162.947 26.7879C160.891 27.5821 158.941 28.6576 157.112 29.8985C155.267 31.156 153.544 32.5955 151.927 34.1509C150.294 35.7062 148.782 37.3939 147.331 39.1312C145.88 40.8685 144.504 42.6886 143.174 44.5418C140.513 48.2481 138.019 52.0867 135.509 55.9089C134.255 57.8117 133 59.7145 131.7 61.5842C130.4 63.4539 129.07 65.2905 127.664 67.0443C126.968 67.9213 126.228 68.7817 125.487 69.609C124.731 70.4363 123.96 71.2305 123.159 71.9916C122.962 72.1901 122.751 72.3556 122.539 72.5542C122.327 72.7362 122.131 72.9182 121.919 73.1002L121.284 73.6297L120.634 74.126C119.757 74.7713 118.85 75.367 117.898 75.8634C116.946 76.3597 115.963 76.7734 114.95 77.0712C113.937 77.3525 112.894 77.5345 111.851 77.6172C110.808 77.6834 109.765 77.6172 108.737 77.4187C107.709 77.2201 106.696 76.8727 105.714 76.459C103.749 75.5986 101.904 74.4239 100.151 73.1167C98.3971 71.793 96.7191 70.3535 95.0713 68.8479C91.7909 65.8365 88.6617 62.6265 85.4568 59.4663C82.2672 56.3225 79.017 53.2119 75.5552 50.3825C73.8167 48.9761 72.048 47.6193 70.1886 46.3949C68.3443 45.154 66.4244 44.0454 64.429 43.1022C62.4335 42.1757 60.3625 41.3815 58.2461 40.8685C56.1297 40.3391 53.9377 40.0743 51.7609 40.0578C51.519 40.0578 51.3073 40.2729 51.3073 40.5542C51.3073 40.8189 51.5039 41.0505 51.7609 41.0505C53.8773 41.0671 55.9937 41.3153 58.0496 41.8282C60.1206 42.3246 62.1312 43.0857 64.0813 43.9957C67.9815 45.8323 71.6096 48.3473 75.0412 51.1436C78.4727 53.9399 81.7078 57.0175 84.8975 60.1612C88.0872 63.2884 91.2315 66.5149 94.5422 69.5262C96.2051 71.0319 97.8982 72.488 99.6971 73.8282C101.496 75.1519 103.386 76.3597 105.411 77.2367C106.424 77.6669 107.482 78.0309 108.571 78.246C109.659 78.4611 110.778 78.5273 111.866 78.4611C112.97 78.3784 114.058 78.1964 115.117 77.882C116.175 77.5676 117.203 77.1374 118.185 76.6079C119.168 76.095 120.105 75.4663 121.012 74.8044L121.677 74.2915L122.327 73.7455C122.539 73.5635 122.751 73.3815 122.962 73.1829C123.174 72.9844 123.386 72.8023 123.582 72.6038C124.398 71.8261 125.185 71.0154 125.955 70.1715C126.711 69.3277 127.452 68.4507 128.147 67.5573C129.568 65.7868 130.899 63.9171 132.199 62.0474C133.499 60.1612 134.754 58.2584 136.008 56.3556C138.518 52.5335 140.982 48.6948 143.627 45.005C144.943 43.1519 146.318 41.3484 147.754 39.6276C149.19 37.8903 150.687 36.2191 152.289 34.6803C153.892 33.1415 155.585 31.702 157.384 30.4776C159.198 29.2532 161.103 28.1943 163.098 27.4166C165.109 26.639 167.18 26.126 169.296 25.8944C171.413 25.6793 173.544 25.7124 175.66 26.0102C176.19 26.0598 176.719 26.1757 177.233 26.2749C177.49 26.3246 177.762 26.3908 178.019 26.4404L178.805 26.6224C179.319 26.7713 179.833 26.9037 180.347 27.0692L181.118 27.3173L181.496 27.4497C181.617 27.4994 181.753 27.549 181.874 27.5986C183.884 28.3597 185.849 29.3029 187.739 30.3949C189.629 31.4869 191.458 32.7113 193.226 34.0185C194.995 35.3256 196.719 36.732 198.412 38.1715C201.783 41.0671 205.033 44.1446 208.253 47.2553C211.488 50.3494 214.693 53.4766 218.003 56.488C221.314 59.4994 224.7 62.4114 228.238 65.0754C231.79 67.7393 235.494 70.1715 239.379 72.2067C243.264 74.2584 247.33 75.8634 251.518 77.005C253.604 77.5676 255.736 77.9978 257.867 78.2956L258.668 78.4114L259.469 78.4942L260.271 78.5769L260.679 78.6265L261.087 78.6596L262.705 78.7755L264.322 78.8251C268.615 78.8747 272.909 78.9078 277.217 78.9244L290.112 78.974L315.902 78.9575C350.263 78.9244 384.639 78.792 419 78.61Z" fill="url(#paint12_radial_544_1767)"/>
<g opacity="0.9">
<path opacity="0.9" d="M51.8969 42.8044C50.7631 42.8375 49.8259 41.8613 49.7956 40.6369C49.7654 39.3959 50.6573 38.3701 51.776 38.337C52.9097 38.3039 53.8469 39.2801 53.8772 40.5045C53.9074 41.7289 53.0155 42.7548 51.8969 42.8044Z" fill="url(#paint13_radial_544_1767)"/>
</g>
</g>
<g opacity="0.9">
<path opacity="0.9" d="M419 78.4777C385.304 78.0144 351.623 77.5677 317.927 77.2037C301.087 77.0217 284.231 76.8562 267.391 76.8066H265.819C265.29 76.8066 264.776 76.79 264.246 76.7735L263.46 76.7569C263.203 76.7569 262.931 76.7404 262.674 76.7239L261.102 76.608L260.316 76.5584L259.53 76.4757L257.958 76.2937C257.429 76.2275 256.915 76.1447 256.401 76.062L255.615 75.9462C255.358 75.9131 255.101 75.8635 254.844 75.8138C250.702 75.0693 246.605 73.9607 242.569 72.6701C234.496 70.0393 226.65 66.6804 218.684 63.6525C214.708 62.1468 210.687 60.7073 206.62 59.4664C202.554 58.2254 198.442 57.1665 194.27 56.4219C190.097 55.6608 185.895 55.1975 181.677 55.0651L180.09 55.032L179.304 55.0155C179.047 55.0155 178.775 55.0155 178.502 55.032C177.973 55.032 177.444 55.0651 176.915 55.0982C176.643 55.1148 176.386 55.1478 176.129 55.1644C175.872 55.1809 175.6 55.214 175.343 55.2471L174.557 55.3464L173.771 55.4622L173.378 55.5284L172.985 55.6111C172.728 55.6608 172.456 55.7104 172.199 55.76C171.156 55.9917 170.128 56.2564 169.1 56.5708C165.003 57.8283 161.148 59.8304 157.49 62.1303C153.816 64.4302 150.324 67.0279 146.802 69.5429C143.28 72.0744 139.727 74.5232 136.008 76.6577C132.29 78.7756 128.404 80.5625 124.368 81.7869C122.358 82.3991 120.302 82.8955 118.231 83.243C116.16 83.5905 114.073 83.8055 111.987 83.8883C109.901 83.971 107.8 83.9379 105.729 83.7063C103.658 83.4746 101.602 83.0444 99.5913 82.4488C95.5551 81.2575 91.7455 79.305 88.1628 76.9224C86.379 75.7311 84.6556 74.424 82.9625 73.0672C81.2845 71.6939 79.6367 70.2709 78.0192 68.7983C74.7841 65.8697 71.6398 62.7921 68.4199 59.7973C66.8175 58.3081 65.1848 56.8355 63.5068 55.4126C61.8439 53.9896 60.1206 52.6328 58.3519 51.3423C56.5832 50.0517 54.7692 48.8769 52.8795 47.8014C50.9899 46.7425 49.0549 45.7828 47.0443 45.0051C43.0383 43.4498 38.8055 42.5398 34.5576 42.3412C34.3158 42.3247 34.1041 42.5398 34.089 42.8045C34.0739 43.0693 34.2704 43.3009 34.5123 43.3174C38.6846 43.4994 42.8116 44.3764 46.742 45.8986C48.7072 46.6597 50.6271 47.5863 52.4714 48.6287C54.3307 49.6711 56.1297 50.8459 57.8833 52.1034C59.6369 53.3609 61.33 54.7177 62.9929 56.1075C64.6557 57.5139 66.2733 58.97 67.8757 60.4591C71.0956 63.4209 74.24 66.4984 77.4901 69.4271C79.1228 70.8997 80.7705 72.3392 82.4788 73.7125C84.187 75.0858 85.9254 76.3929 87.7395 77.6008C89.5536 78.8087 91.4281 79.9007 93.363 80.8438C95.298 81.8035 97.3086 82.5811 99.3646 83.1933C101.42 83.8055 103.507 84.2357 105.623 84.4674C107.739 84.699 109.871 84.7321 111.987 84.6494C114.104 84.5667 116.22 84.335 118.306 83.9876C120.408 83.6401 122.479 83.1272 124.519 82.4984C128.601 81.2409 132.531 79.4374 136.265 77.2864C140.014 75.1354 143.582 72.6535 147.104 70.1054C150.627 67.5739 154.103 64.9762 157.747 62.6928C161.375 60.3929 165.184 58.424 169.221 57.1665C170.233 56.8521 171.246 56.5874 172.274 56.3723L173.045 56.2233L173.438 56.1406L173.831 56.0744L174.602 55.9586L175.388 55.8593C175.645 55.8262 175.902 55.8097 176.174 55.7766C176.431 55.76 176.688 55.727 176.96 55.7104C177.49 55.6773 178.004 55.6442 178.533 55.6442C178.79 55.6442 179.062 55.6277 179.319 55.6277L180.105 55.6442L181.677 55.6773C185.88 55.7931 190.067 56.2564 194.209 57.001C198.351 57.7456 202.463 58.788 206.514 60.0124C210.566 61.2368 214.572 62.6597 218.548 64.1489C226.499 67.1437 234.375 70.486 242.463 73.1003C246.514 74.3909 250.611 75.4995 254.783 76.2275C255.04 76.2771 255.297 76.3267 255.569 76.3598L256.355 76.4757C256.884 76.5584 257.398 76.6411 257.928 76.7073L259.5 76.8893L260.286 76.972L261.072 77.0217L262.659 77.121C262.916 77.1375 263.188 77.154 263.445 77.154L264.231 77.1706C264.76 77.1871 265.29 77.2037 265.819 77.2037H267.391C284.231 77.2202 301.087 77.3526 317.927 77.485C351.623 77.7332 385.304 78.0806 419 78.4777Z" fill="url(#paint14_radial_544_1767)"/>
<g opacity="0.9">
<path opacity="0.9" d="M34.6182 45.0051C33.4844 44.972 32.5925 43.9461 32.6228 42.7052C32.653 41.4642 33.5902 40.488 34.724 40.5211C35.8578 40.5542 36.7497 41.58 36.7195 42.821C36.6892 44.0619 35.752 45.0381 34.6182 45.0051Z" fill="url(#paint15_radial_544_1767)"/>
</g>
</g>
<g opacity="0.7">
<path opacity="0.7" d="M62.0707 88.2399C63.9906 88.0744 65.9105 87.7104 67.7547 87.1644C69.6141 86.6184 71.4282 85.9235 73.1969 85.1458C76.7494 83.5739 80.1508 81.6877 83.5521 79.8511C86.9534 78.0145 90.3699 76.2109 93.9073 74.7383C95.676 74.0103 97.4598 73.3485 99.2738 72.7859C101.088 72.2233 102.932 71.7931 104.792 71.4788L106.182 71.2471L107.588 71.0817C108.057 71.0155 108.526 70.9989 108.994 70.9658C109.463 70.9327 109.931 70.8831 110.4 70.8831C112.29 70.8004 114.164 70.8831 116.039 71.0817C119.788 71.4953 123.476 72.4384 127.12 73.6132C130.748 74.788 134.345 76.1613 137.958 77.4353C139.773 78.0641 141.587 78.6928 143.431 79.2389C145.26 79.8014 147.119 80.2978 148.979 80.7445C152.713 81.6215 156.507 82.1841 160.317 82.3992C162.221 82.515 164.126 82.5315 166.046 82.4322C167.951 82.2668 169.855 82.0351 171.73 81.6546C175.494 80.9431 179.198 79.9503 182.871 78.9245C186.56 77.8986 190.233 76.8397 193.937 75.9462L195.328 75.6153L196.719 75.3009C197.187 75.2016 197.641 75.0858 198.109 75.0031L199.515 74.7383L200.211 74.606C200.437 74.5729 200.679 74.5398 200.906 74.5067L202.312 74.2916C202.554 74.2585 202.78 74.2254 203.007 74.2089L203.703 74.1427C203.929 74.1261 204.171 74.1261 204.413 74.1096C204.655 74.1096 204.882 74.0765 205.124 74.093C206.998 74.093 208.873 74.3412 210.717 74.788C212.561 75.2513 214.36 75.88 216.114 76.6246C217.882 77.3692 219.606 78.213 221.344 79.0734C223.083 79.9338 224.806 80.7942 226.575 81.5718C227.467 81.9524 228.359 82.3164 229.281 82.6308L229.628 82.7466L229.976 82.8459C230.203 82.9121 230.43 82.9948 230.671 83.061C231.14 83.1768 231.609 83.3092 232.077 83.4085C232.546 83.5243 233.03 83.5739 233.498 83.6567C233.982 83.7063 234.451 83.7559 234.935 83.7725C235.418 83.8056 235.887 83.7725 236.371 83.7725C236.613 83.7725 236.854 83.7725 237.081 83.7559L237.792 83.7228C241.601 83.5243 245.396 82.7632 249.039 81.5388C252.697 80.3309 256.204 78.6928 259.787 77.3526C263.355 75.9793 267.073 75.0031 270.853 74.7549C274.632 74.4736 278.411 74.9534 282.19 75.4167C285.97 75.8966 289.734 76.4426 293.513 76.8397C297.292 77.2368 301.102 77.5015 304.911 77.485L327.799 77.2699C343.006 77.1706 358.199 77.1044 373.407 77.0548C388.615 77.0217 403.807 77.0051 419.015 77.0051C403.807 76.9555 388.615 76.9224 373.407 76.9224C358.199 76.9224 343.006 76.939 327.799 77.0051L305.002 77.1375C301.208 77.1375 297.413 76.8728 293.634 76.4591C289.855 76.0455 286.091 75.4995 282.311 75.0031C280.422 74.7549 278.532 74.5232 276.627 74.3743C274.723 74.2254 272.818 74.1758 270.913 74.3081C267.089 74.5563 263.339 75.5325 259.742 76.9059C256.129 78.2626 252.637 79.8842 249.008 81.0589C245.38 82.2668 241.631 82.9948 237.867 83.1934L237.157 83.2265C236.915 83.243 236.688 83.243 236.446 83.243C235.978 83.243 235.494 83.2595 235.025 83.243C234.557 83.243 234.088 83.1768 233.619 83.1272C233.151 83.0444 232.682 82.9948 232.229 82.879C231.76 82.7963 231.306 82.6639 230.853 82.5481C230.626 82.4819 230.399 82.4157 230.173 82.333L229.84 82.2337L229.507 82.1179C228.6 81.82 227.724 81.4395 226.847 81.0589C223.34 79.5201 219.953 77.6008 216.386 76.0951C214.602 75.334 212.788 74.6887 210.913 74.2254C209.039 73.7621 207.134 73.5139 205.199 73.4974C204.957 73.4808 204.715 73.5139 204.474 73.5139C204.232 73.5305 203.99 73.5305 203.748 73.547L203.022 73.6132C202.78 73.6298 202.539 73.6628 202.312 73.6959L200.891 73.8945C200.649 73.9276 200.422 73.9607 200.18 73.9938L199.47 74.1261L198.064 74.3909C197.595 74.4736 197.127 74.5894 196.658 74.6887L195.252 74.9865L193.861 75.3174C190.143 76.2109 186.469 77.2699 182.781 78.2792C179.092 79.2885 175.403 80.2647 171.67 80.9596C169.81 81.3237 167.921 81.5553 166.046 81.7208C164.171 81.8035 162.267 81.8035 160.392 81.6711C156.613 81.456 152.864 80.8769 149.16 80C147.316 79.5532 145.472 79.0569 143.658 78.4943C141.828 77.9317 140.03 77.3195 138.215 76.6742C134.602 75.4002 131.02 74.0103 127.361 72.819C123.703 71.6277 119.969 70.6515 116.16 70.2213C114.255 70.0062 112.335 69.9234 110.415 70.0062C109.931 70.0062 109.463 70.0558 108.979 70.0724C108.495 70.1054 108.027 70.122 107.543 70.1882L106.107 70.3536L104.686 70.5853C102.796 70.9162 100.922 71.3464 99.0773 71.909C97.233 72.4715 95.419 73.1334 93.6352 73.8614C90.0524 75.334 86.6057 77.1375 83.2044 78.9741C79.7879 80.8107 76.4017 82.6804 72.8946 84.2192C71.141 84.9803 69.3572 85.6587 67.5431 86.1882C65.7291 86.7177 63.8848 87.0651 62.0103 87.214C61.7684 87.2306 61.5718 87.4622 61.587 87.7435C61.6021 88.0579 61.8288 88.273 62.0707 88.2399Z" fill="url(#paint16_radial_544_1767)"/>
<g opacity="0.7">
<path opacity="0.7" d="M62.0557 85.4933C60.922 85.5429 60.0451 86.5853 60.1056 87.8263C60.151 89.0672 61.1034 90.0269 62.2371 89.9607C63.3709 89.9111 64.2477 88.8687 64.1872 87.6277C64.1419 86.4033 63.1895 85.4437 62.0557 85.4933Z" fill="url(#paint17_radial_544_1767)"/>
</g>
</g>
<g opacity="0.7">
<path opacity="0.7" d="M24.7006 133.94C33.922 133.808 43.1737 132.683 52.1381 130.168C52.4253 130.101 52.6974 130.019 52.9695 129.919L53.801 129.671L54.6324 129.423C54.9045 129.34 55.1917 129.257 55.4638 129.158C56.5674 128.778 57.671 128.414 58.7594 127.983C60.9514 127.173 63.098 126.23 65.2144 125.22L66.8017 124.443C67.3307 124.178 67.8448 123.897 68.3587 123.615C68.6157 123.483 68.8727 123.334 69.1297 123.202L69.9007 122.755L70.6716 122.308C70.9286 122.159 71.1856 122.01 71.4275 121.861L72.9392 120.935C73.4381 120.62 73.937 120.29 74.4207 119.959C74.9196 119.644 75.4033 119.297 75.887 118.949C76.3708 118.602 76.8696 118.271 77.3383 117.907C79.2581 116.501 81.1176 114.995 82.9165 113.406C84.7154 111.818 86.469 110.163 88.1621 108.443C91.5332 104.984 94.6776 101.278 97.701 97.4726C100.724 93.6505 103.597 89.7291 106.575 85.8904C108.071 83.971 109.583 82.0848 111.17 80.2813C111.956 79.3712 112.773 78.4943 113.604 77.6339C114.027 77.2203 114.451 76.7901 114.874 76.3764C115.312 75.9793 115.736 75.5657 116.189 75.1851L116.854 74.606L117.55 74.06L117.897 73.7787C118.018 73.696 118.139 73.5967 118.245 73.514L118.956 73.001C119.923 72.3392 120.906 71.7104 121.934 71.1975C122.946 70.6515 124.02 70.2213 125.093 69.8407L125.909 69.5925C126.045 69.5595 126.182 69.5098 126.318 69.4767L126.741 69.3774L127.572 69.1789L128.419 69.0465C128.978 68.9307 129.553 68.9142 130.112 68.848L130.324 68.8314C130.399 68.8314 130.46 68.8314 130.535 68.8314L130.959 68.8149L131.805 68.7818C132.939 68.7983 134.073 68.8976 135.191 69.0962C136.31 69.3113 137.414 69.6091 138.502 69.9897C138.774 70.0889 139.046 70.1882 139.303 70.2875C139.439 70.3371 139.575 70.3868 139.711 70.4364L140.104 70.6019C140.361 70.7177 140.633 70.8335 140.89 70.9493L141.677 71.3299C142.72 71.8428 143.732 72.4054 144.73 73.0176C145.728 73.6132 146.695 74.2916 147.663 74.9535C149.583 76.3268 151.442 77.7994 153.241 79.3382C156.854 82.4323 160.316 85.7415 163.778 89.0672C167.24 92.393 170.686 95.7353 174.239 98.9286C177.791 102.139 181.45 105.216 185.304 107.996C189.159 110.776 193.211 113.241 197.489 115.16C199.62 116.12 201.812 116.931 204.05 117.576C206.287 118.221 208.57 118.685 210.867 118.949L211.729 119.032C212.016 119.065 212.303 119.098 212.591 119.115L213.452 119.164C213.74 119.181 214.027 119.198 214.314 119.198C215.463 119.231 216.627 119.231 217.776 119.164L218.638 119.115L219.499 119.016L219.938 118.966L220.361 118.9L221.223 118.767C222.371 118.569 223.505 118.321 224.624 117.99C226.861 117.361 229.038 116.451 231.124 115.359C232.167 114.796 233.18 114.201 234.178 113.555C235.161 112.893 236.143 112.215 237.08 111.471C240.86 108.542 244.216 105.067 247.436 101.444C250.64 97.8201 253.709 94.0641 256.944 90.5067C257.761 89.6132 258.577 88.7363 259.423 87.8924C260.27 87.0321 261.132 86.2048 262.008 85.4105C263.777 83.8056 265.652 82.3661 267.662 81.1417C269.673 79.9504 271.804 78.9907 274.042 78.4612C275.16 78.1965 276.294 77.9979 277.428 77.9317C278.562 77.849 279.711 77.8821 280.875 77.8656L308.478 77.8325L418.999 77.7497L308.569 77.6339L280.965 77.6008C279.816 77.6008 278.667 77.5843 277.503 77.6505C276.355 77.7166 275.191 77.9152 274.072 78.1799C271.804 78.7094 269.643 79.6691 267.602 80.8769C265.576 82.1013 263.671 83.5574 261.887 85.1624C260.996 85.9566 260.119 86.8004 259.272 87.6443C258.426 88.5047 257.594 89.3816 256.778 90.2751C253.513 93.8325 250.444 97.605 247.239 101.195C244.034 104.786 240.678 108.244 236.929 111.14C235.992 111.868 235.024 112.546 234.057 113.191C233.074 113.837 232.062 114.416 231.034 114.978C228.963 116.054 226.816 116.947 224.609 117.559C223.505 117.89 222.371 118.105 221.253 118.321L220.406 118.453L219.983 118.519L219.56 118.569L218.713 118.651L217.851 118.701C216.703 118.784 215.569 118.767 214.42 118.734C214.133 118.734 213.845 118.718 213.558 118.685L212.697 118.635C212.409 118.618 212.122 118.585 211.835 118.552L210.973 118.469C208.691 118.188 206.438 117.725 204.231 117.096C202.024 116.451 199.847 115.64 197.731 114.697C193.498 112.794 189.477 110.329 185.637 107.549C181.812 104.786 178.169 101.708 174.632 98.4984C171.094 95.2885 167.648 91.9462 164.201 88.6205C160.754 85.2947 157.277 81.969 153.649 78.8418C151.835 77.2864 149.961 75.7973 148.026 74.4074C147.058 73.7291 146.076 73.0507 145.063 72.4385C144.05 71.8097 143.022 71.2471 141.964 70.7177L141.163 70.3371C140.89 70.2048 140.618 70.1055 140.346 69.9897L139.938 69.8076C139.802 69.758 139.666 69.7084 139.53 69.6422C139.258 69.5429 138.986 69.4271 138.698 69.3278C137.595 68.9473 136.461 68.6329 135.312 68.4012C134.163 68.2027 132.999 68.0703 131.82 68.0703L130.943 68.0869L130.505 68.1034C130.429 68.1034 130.354 68.1034 130.293 68.1034L130.082 68.12C129.507 68.1861 128.918 68.2192 128.343 68.3185L127.482 68.4674L126.62 68.666L126.197 68.7652C126.061 68.7983 125.909 68.848 125.773 68.8811L124.927 69.1293C123.808 69.5098 122.72 69.9566 121.662 70.5191C120.603 71.0486 119.59 71.6939 118.608 72.3723L117.882 72.9018C117.761 72.9845 117.64 73.0838 117.519 73.1665L117.172 73.4478L116.461 74.0103L115.781 74.606C115.312 74.9865 114.889 75.4167 114.436 75.8139C113.997 76.2275 113.574 76.6577 113.135 77.0879C112.289 77.9483 111.458 78.8418 110.671 79.7518C109.069 81.5719 107.542 83.4747 106.046 85.3775C103.052 89.2161 100.165 93.1375 97.1567 96.9266C94.1484 100.716 91.0192 104.405 87.6632 107.814C85.9852 109.518 84.2468 111.156 82.463 112.728C80.6791 114.283 78.8349 115.789 76.915 117.162C76.4464 117.526 75.9626 117.857 75.4789 118.188C74.9951 118.519 74.5114 118.867 74.0276 119.181C73.5288 119.495 73.045 119.826 72.5461 120.141L71.0496 121.067C70.8077 121.216 70.5507 121.365 70.2937 121.514L69.5379 121.944L68.782 122.374C68.525 122.523 68.268 122.656 68.011 122.788C67.497 123.053 66.9831 123.334 66.4691 123.599L64.8969 124.36C62.7957 125.353 60.6642 126.279 58.5024 127.09C57.4291 127.52 56.3255 127.868 55.2371 128.248C54.965 128.347 54.6929 128.43 54.4057 128.513L53.5742 128.761L52.7428 129.009C52.4707 129.092 52.1986 129.175 51.9113 129.241C43.0376 131.723 33.8465 132.815 24.6855 132.931C24.4436 132.931 24.232 133.162 24.232 133.427C24.2471 133.725 24.4587 133.94 24.7006 133.94Z" fill="url(#paint18_radial_544_1767)"/>
<g opacity="0.7">
<path opacity="0.7" d="M24.7769 131.193C23.6431 131.21 22.7361 132.219 22.7512 133.46C22.7663 134.701 23.6885 135.694 24.8223 135.677C25.9561 135.661 26.8631 134.651 26.848 133.41C26.8328 132.17 25.9107 131.177 24.7769 131.193Z" fill="url(#paint19_radial_544_1767)"/>
</g>
</g>
<g opacity="0.8">
<path opacity="0.8" d="M82.9474 133.775C83.9149 133.593 84.8521 133.311 85.7743 132.947C86.6813 132.567 87.5581 132.12 88.4047 131.607C90.0978 130.598 91.6548 129.357 93.1514 128.05C96.1144 125.402 98.7599 122.391 101.3 119.297C103.839 116.203 106.258 113.009 108.662 109.799C111.065 106.589 113.454 103.38 115.888 100.219C118.321 97.059 120.831 93.9483 123.461 91.0031C124.776 89.5305 126.137 88.1076 127.558 86.7342C128.964 85.3775 130.43 84.0703 131.972 82.8956C133.514 81.7208 135.116 80.6453 136.794 79.7684C138.472 78.8749 140.256 78.213 142.07 77.7994C142.297 77.7332 142.524 77.7167 142.751 77.667C142.977 77.6339 143.204 77.5843 143.446 77.5512C143.915 77.5016 144.368 77.4354 144.837 77.4354L145.532 77.4188L146.243 77.4354L147.664 77.4519L149.085 77.4685L150.491 77.5512C151.428 77.6174 152.38 77.6339 153.317 77.7498C157.082 78.0641 160.815 78.6598 164.489 79.5864C168.162 80.5129 171.76 81.8035 175.237 83.3754C175.676 83.5574 176.099 83.7725 176.537 83.9876C176.976 84.2027 177.399 84.4013 177.837 84.6164C178.684 85.0631 179.546 85.4767 180.392 85.9566L181.662 86.6515L182.917 87.363C183.763 87.8428 184.595 88.3227 185.426 88.8025C187.104 89.7787 188.767 90.7549 190.46 91.6981C190.883 91.9462 191.307 92.1613 191.73 92.393C192.153 92.6246 192.576 92.8563 193.015 93.0714L194.3 93.7332C194.738 93.9483 195.161 94.1634 195.6 94.362C199.077 96.0662 202.705 97.3733 206.424 98.2834C206.65 98.333 206.892 98.3992 207.119 98.4488L207.814 98.5977L209.22 98.879C209.447 98.9287 209.689 98.9618 209.931 98.9948L210.641 99.1107L212.047 99.3258C213 99.425 213.937 99.5243 214.889 99.607L217.731 99.756L220.588 99.7891L223.43 99.7063L223.793 99.6898L224.156 99.6732L224.867 99.6236L226.288 99.5243C226.756 99.4912 227.24 99.4416 227.709 99.392L229.13 99.2265C232.909 98.7467 236.643 97.9524 240.301 96.8108C243.959 95.6856 247.527 94.2296 251.019 92.6412C254.511 91.0362 257.958 89.2989 261.42 87.6277C264.881 85.9566 268.389 84.3847 271.956 83.0445C275.524 81.7043 279.182 80.5791 282.871 79.7353C286.574 78.8914 290.323 78.3123 294.088 77.9318C295.025 77.849 295.977 77.7663 296.914 77.7001L299.741 77.5512C300.21 77.5181 300.694 77.5181 301.162 77.5016L302.583 77.4685L304.004 77.4354H305.425L328.146 77.4023L419 77.3361L328.116 77.2203L305.395 77.1872H303.974L302.553 77.2037L301.132 77.2203C300.664 77.2203 300.18 77.2368 299.711 77.2534L296.869 77.3857C295.917 77.4519 294.98 77.5347 294.027 77.6174C290.248 77.9814 286.484 78.544 282.765 79.3878C279.046 80.2317 275.388 81.3402 271.79 82.6805C268.192 84.0207 264.685 85.5926 261.208 87.2472C257.731 88.9018 254.299 90.6391 250.807 92.2275C247.315 93.8159 243.763 95.2389 240.12 96.3475C232.848 98.5977 225.26 99.4416 217.716 99.2099L214.889 99.0445C213.952 98.9618 213.015 98.8459 212.077 98.7467L210.672 98.5316L209.976 98.4157C209.749 98.3826 209.508 98.3495 209.281 98.2999L207.89 98.0186L207.195 97.8697C206.968 97.8201 206.741 97.7539 206.499 97.7043C202.826 96.7942 199.228 95.4871 195.796 93.7994C195.373 93.5843 194.935 93.3857 194.511 93.1706L193.226 92.5088C192.803 92.2937 192.38 92.0621 191.957 91.8304C191.533 91.5988 191.11 91.3671 190.687 91.1355C189.009 90.1924 187.346 89.1996 185.668 88.2234C184.836 87.7436 183.99 87.2472 183.158 86.7673L181.889 86.0559L180.619 85.3609C179.772 84.8811 178.911 84.4674 178.049 84.0042C177.611 83.7891 177.187 83.574 176.749 83.3754C176.31 83.1603 175.887 82.9452 175.434 82.7632C171.927 81.1582 168.298 79.8511 164.595 78.908C160.891 77.9483 157.112 77.3526 153.332 77.0217C152.38 76.9059 151.443 76.8894 150.491 76.8232L149.069 76.7404L147.648 76.7074L146.227 76.6743L145.517 76.6577L144.791 76.6743C144.308 76.6743 143.824 76.7404 143.355 76.7901C143.113 76.8232 142.871 76.8728 142.645 76.9059C142.403 76.9555 142.161 76.9721 141.934 77.0383C140.045 77.4519 138.215 78.1469 136.477 79.0569C134.738 79.9669 133.106 81.0424 131.534 82.2503C129.962 83.4416 128.48 84.7653 127.044 86.1386C125.608 87.5119 124.232 88.9514 122.902 90.4405C120.226 93.4023 117.717 96.5129 115.268 99.6732C112.819 102.834 110.415 106.06 108.012 109.253C105.608 112.447 103.189 115.64 100.65 118.701C98.125 121.762 95.4795 124.724 92.577 127.322C91.1106 128.612 89.5838 129.804 87.9512 130.763C87.1349 131.243 86.2883 131.673 85.4266 132.037C84.5649 132.385 83.673 132.649 82.766 132.815H82.7509C82.509 132.865 82.3427 133.113 82.3881 133.377C82.4637 133.642 82.6904 133.824 82.9474 133.775Z" fill="url(#paint20_radial_544_1767)"/>
<g opacity="0.8">
<path opacity="0.8" d="M82.7961 131.028C81.6774 131.144 80.846 132.219 80.9367 133.46C81.0274 134.701 82.0251 135.595 83.1589 135.495C84.2926 135.396 85.109 134.304 85.0183 133.063C84.9124 131.839 83.9147 130.929 82.7961 131.028Z" fill="url(#paint21_radial_544_1767)"/>
</g>
</g>
<g opacity="0.9">
<path opacity="0.9" d="M36.417 124.624C40.68 124.509 44.943 123.863 49.0397 122.507C51.0805 121.828 53.0911 121.001 55.0261 120.025C56.9611 119.032 58.8356 117.907 60.6345 116.649C64.2475 114.167 67.5582 111.222 70.7479 108.161C73.9376 105.1 76.9912 101.907 80.1355 98.8127C83.2799 95.7352 86.4998 92.7403 89.9616 90.1095C93.4083 87.4622 97.0818 85.1788 100.952 83.3918C104.822 81.6049 108.888 80.3308 113.03 79.5366C115.101 79.1395 117.188 78.8748 119.289 78.6928L120.861 78.577L122.433 78.5108C122.962 78.4777 123.491 78.4777 124.005 78.4777C124.534 78.4777 125.064 78.4611 125.593 78.4777C127.694 78.4777 129.81 78.577 131.912 78.7424C134.013 78.9079 136.114 79.1726 138.185 79.5201C142.342 80.2316 146.454 81.3401 150.415 82.8789C154.391 84.4177 158.215 86.3701 161.889 88.6369C165.577 90.8872 169.115 93.4187 172.652 95.9337C176.205 98.4487 179.772 100.964 183.551 103.098C187.316 105.233 191.307 106.953 195.449 108.045C199.576 109.154 203.854 109.584 208.087 109.535C212.334 109.485 216.567 108.856 220.694 107.764C224.821 106.689 228.857 105.199 232.788 103.512C236.733 101.824 240.603 99.9378 244.458 98.0351C248.313 96.1323 252.153 94.1798 256.023 92.3432C259.893 90.4901 263.808 88.7362 267.769 87.1478C275.69 83.9544 283.868 81.4725 292.213 79.9834C296.385 79.2388 300.588 78.7259 304.806 78.4446L305.592 78.3949L306.378 78.3619L307.965 78.2791L309.552 78.2295L310.338 78.2129L311.125 78.1964L312.712 78.1798H314.299H317.474L419 78.0475L317.489 77.9317H314.314H312.727L311.14 77.9482H310.338L309.552 77.9648L307.965 78.0144L306.378 78.0806L305.592 78.1137L304.806 78.1633C300.573 78.428 296.37 78.941 292.183 79.6855C283.823 81.1581 275.615 83.6235 267.663 86.8169C263.687 88.4053 259.757 90.1592 255.887 91.9958C252.002 93.8324 248.162 95.7682 244.307 97.671C240.452 99.5738 236.582 101.444 232.652 103.115C228.721 104.786 224.7 106.258 220.603 107.317C216.507 108.376 212.304 108.989 208.087 109.038C203.884 109.071 199.651 108.624 195.57 107.532C191.473 106.457 187.542 104.736 183.808 102.618C180.059 100.5 176.522 97.9854 172.97 95.4539C169.432 92.9223 165.88 90.3743 162.191 88.1074C158.487 85.8406 154.633 83.8386 150.626 82.2833C146.62 80.7279 142.478 79.6028 138.291 78.8582C136.19 78.4942 134.088 78.2295 131.957 78.064C129.841 77.8986 127.724 77.7827 125.593 77.7827C125.064 77.7662 124.534 77.7827 124.005 77.7827C123.476 77.7827 122.947 77.7827 122.418 77.8158L120.831 77.882L119.243 77.9978C117.127 78.1633 115.011 78.4446 112.909 78.8251C108.722 79.6028 104.595 80.8934 100.665 82.6969C96.7341 84.5004 93.0153 86.8003 89.5233 89.4642C86.0312 92.1116 82.7659 95.123 79.6064 98.2005C76.447 101.295 73.3782 104.471 70.2036 107.516C67.0291 110.56 63.7486 113.456 60.181 115.888C58.3972 117.113 56.568 118.221 54.6633 119.181C52.7585 120.141 50.7933 120.951 48.7979 121.613C44.7767 122.92 40.6044 123.549 36.4019 123.648C36.16 123.648 35.9483 123.88 35.9634 124.145C35.9634 124.409 36.16 124.624 36.417 124.624Z" fill="url(#paint22_radial_544_1767)"/>
<g opacity="0.9">
<path opacity="0.9" d="M36.4926 121.878C35.3588 121.878 34.4518 122.887 34.4518 124.128C34.4518 125.369 35.374 126.362 36.5078 126.362C37.6416 126.362 38.5486 125.353 38.5486 124.112C38.5486 122.871 37.6264 121.878 36.4926 121.878Z" fill="url(#paint23_radial_544_1767)"/>
</g>
</g>
<g opacity="0.6">
<path opacity="0.6" d="M16.3718 106.441C18.6998 106.292 21.0127 105.944 23.2652 105.332C25.5327 104.736 27.7247 103.826 29.8109 102.701C31.897 101.593 33.8925 100.269 35.7972 98.8294C37.702 97.3899 39.5311 95.8677 41.3603 94.3124C43.1743 92.7736 44.9733 91.2183 46.8327 89.7457C48.677 88.2731 50.5817 86.8832 52.5621 85.6257L53.3028 85.1624L53.6807 84.9308L54.0587 84.7157C54.5726 84.4344 55.0715 84.1366 55.5855 83.8553L57.1425 83.0776C57.3995 82.9452 57.6717 82.8294 57.9286 82.7136L58.7147 82.3661C58.9868 82.2503 59.2438 82.1345 59.5159 82.0187L60.3171 81.7208L61.1183 81.423L61.5265 81.2741L61.9347 81.1417L63.5824 80.6288C64.1266 80.4633 64.6859 80.3475 65.2453 80.1986L66.0767 79.9835L66.9233 79.818C67.4826 79.7188 68.042 79.6029 68.6013 79.4871L70.2944 79.2555L71.141 79.1397L71.9875 79.0735L73.6958 78.9411C73.8318 78.9246 73.983 78.9246 74.119 78.9246L74.5423 78.908L75.404 78.8915C76.5529 78.8584 77.6866 78.8253 78.8204 78.9246L79.2437 78.9577C79.3798 78.9742 79.5309 78.9907 79.667 79.0073L80.5135 79.1066C81.0729 79.2058 81.6322 79.272 82.1916 79.4044C83.3102 79.6195 84.4137 79.9173 85.5022 80.2813L86.3185 80.5626L87.1197 80.8604C87.3918 80.9597 87.6488 81.0755 87.9209 81.1914C88.1779 81.3072 88.45 81.4065 88.7221 81.5388C89.7803 82.0187 90.8083 82.5481 91.8211 83.1107C95.8725 85.4106 99.5913 88.3723 103.159 91.5161C106.727 94.6764 110.128 98.0518 113.62 101.328C117.097 104.621 120.665 107.847 124.504 110.66C126.424 112.066 128.42 113.357 130.475 114.499C132.547 115.624 134.693 116.583 136.93 117.295C139.153 118.023 141.45 118.486 143.748 118.701C144.897 118.8 146.061 118.85 147.225 118.817C148.389 118.8 149.538 118.701 150.687 118.552L151.549 118.42C151.685 118.403 151.836 118.37 151.972 118.354L152.395 118.271L153.257 118.106L154.103 117.907L154.527 117.808L154.95 117.692L155.797 117.46C156.356 117.278 156.915 117.113 157.459 116.898C158.563 116.517 159.636 116.037 160.71 115.541C161.239 115.276 161.768 115.028 162.282 114.747C162.811 114.482 163.31 114.184 163.824 113.886C167.905 111.487 171.624 108.443 175.131 105.183C178.654 101.924 181.964 98.4323 185.335 95.0073C188.706 91.5823 192.108 88.2069 195.827 85.2782C197.686 83.8222 199.621 82.482 201.662 81.3568C203.703 80.2317 205.849 79.3382 208.056 78.7591C209.16 78.4778 210.294 78.2627 211.427 78.1469C211.715 78.1138 212.002 78.0973 212.274 78.0807C212.41 78.0642 212.561 78.0642 212.697 78.0476L213.121 78.0311L213.544 78.0145C213.68 78.0145 213.831 77.998 213.967 78.0145L214.814 78.0476C217.096 78.1469 219.349 78.6267 221.526 79.3713C223.702 80.1159 225.804 81.1252 227.829 82.2834C229.855 83.4416 231.82 84.7322 233.755 86.089C237.625 88.8025 241.374 91.7146 245.32 94.3289C247.285 95.636 249.311 96.8605 251.397 97.9359C253.483 99.0114 255.66 99.9049 257.897 100.534C260.135 101.162 262.432 101.526 264.745 101.576C267.058 101.609 269.371 101.411 271.639 100.931C273.906 100.451 276.129 99.6898 278.245 98.7136C280.376 97.7374 282.417 96.5792 284.428 95.3382C288.434 92.8398 292.289 90.1097 296.355 87.7601C296.854 87.4623 297.368 87.181 297.882 86.8997L298.653 86.4695L299.424 86.0559C299.938 85.7912 300.452 85.5099 300.981 85.2617L302.553 84.5006C302.81 84.3682 303.082 84.2524 303.354 84.1366L304.156 83.7891L304.957 83.4416C305.229 83.3258 305.501 83.2265 305.758 83.1107L307.376 82.4654L309.008 81.8863C313.377 80.3641 317.897 79.3713 322.462 78.726C327.013 78.0973 331.608 77.8491 336.204 77.8491L363.792 77.816L419 77.7498L363.838 77.6836L336.249 77.6505C331.654 77.6505 327.043 77.8822 322.477 78.5109C317.912 79.1397 313.377 80.1159 308.993 81.6381L307.345 82.2172L305.713 82.846C305.441 82.9618 305.168 83.0445 304.896 83.1769L304.095 83.5244L303.294 83.8718C303.022 83.9876 302.765 84.1035 302.493 84.2358L300.905 84.997C300.376 85.2451 299.862 85.5264 299.348 85.7912L298.562 86.2048L297.791 86.635C297.277 86.9163 296.763 87.1976 296.264 87.4954C292.183 89.8449 288.313 92.575 284.322 95.0404C282.327 96.2813 280.286 97.423 278.169 98.3827C276.053 99.3423 273.861 100.103 271.609 100.567C269.356 101.03 267.073 101.229 264.791 101.196C262.508 101.146 260.225 100.782 258.018 100.153C255.811 99.5244 253.649 98.6309 251.578 97.5719C249.507 96.513 247.497 95.2886 245.547 93.9814C241.631 91.3672 237.882 88.4385 234.012 85.725C232.077 84.3682 230.097 83.0611 228.056 81.8863C226.015 80.7115 223.884 79.6857 221.677 78.9246C219.47 78.1634 217.172 77.6671 214.859 77.5678L213.982 77.5347C213.831 77.5182 213.695 77.5347 213.544 77.5347L213.105 77.5512L212.667 77.5678C212.516 77.5678 212.38 77.5843 212.229 77.6009C211.941 77.6174 211.654 77.634 211.367 77.6671C210.218 77.7829 209.069 77.998 207.935 78.2793C205.683 78.8584 203.491 79.7684 201.435 80.8935C199.364 82.0187 197.399 83.3754 195.524 84.8315C191.76 87.7767 188.344 91.1686 184.957 94.5771C181.586 98.0021 178.261 101.477 174.753 104.703C171.261 107.946 167.558 110.941 163.521 113.307C163.007 113.588 162.509 113.886 161.995 114.151C161.481 114.432 160.967 114.681 160.438 114.929C159.394 115.409 158.321 115.872 157.248 116.252C156.704 116.467 156.159 116.616 155.615 116.798L154.784 117.03L154.376 117.146L153.952 117.245L153.121 117.444L152.274 117.609L151.851 117.692C151.715 117.725 151.564 117.742 151.428 117.758L150.581 117.89C149.447 118.023 148.314 118.122 147.18 118.139C146.046 118.172 144.897 118.122 143.763 118.023C141.496 117.808 139.243 117.344 137.067 116.616C134.875 115.921 132.758 114.962 130.717 113.853C128.677 112.728 126.711 111.454 124.822 110.048C121.027 107.251 117.49 104.041 114.028 100.749C110.551 97.4561 107.15 94.0807 103.567 90.8873C99.9995 87.7105 96.2504 84.6991 92.1234 82.3661C91.0955 81.787 90.0373 81.241 88.964 80.7612C88.6919 80.6288 88.4198 80.5295 88.1476 80.4137C87.8755 80.2979 87.6035 80.1821 87.3314 80.0828L86.515 79.7684L85.6836 79.4871C84.5649 79.1231 83.4463 78.8087 82.2974 78.5936C81.7229 78.4613 81.1485 78.3951 80.574 78.2958L79.7124 78.1965C79.5612 78.18 79.4251 78.1634 79.274 78.1469L78.8356 78.1138C77.6715 78.0145 76.5075 78.0311 75.3586 78.0642L74.497 78.0807L74.0586 78.0973C73.9074 78.0973 73.7713 78.0973 73.6202 78.1138L71.8817 78.2462L71.0201 78.3124L70.1583 78.4282L68.435 78.6598C67.8606 78.7591 67.2861 78.8749 66.7268 78.9907L65.8651 79.1562L65.0185 79.3713C64.4592 79.5202 63.8848 79.6526 63.3254 79.8015L61.6475 80.331L61.2242 80.4633L60.816 80.6123L59.9997 80.9266L59.1833 81.241C58.9113 81.3403 58.6391 81.4727 58.367 81.5885L57.5659 81.9359C57.2937 82.0518 57.0216 82.1676 56.7646 82.2999L55.1773 83.0942C54.6634 83.3754 54.1494 83.6733 53.6354 83.9546L53.2423 84.1697L52.8644 84.4013L52.1086 84.8646C50.098 86.1221 48.1781 87.5285 46.3036 89.0176C44.4291 90.4902 42.615 92.0456 40.801 93.5843C38.9869 95.1231 37.1578 96.6453 35.2682 98.0518C33.3785 99.4582 31.4284 100.749 29.3876 101.841C27.3468 102.916 25.2153 103.793 23.0082 104.389C20.8011 104.985 18.5486 105.315 16.2811 105.464H16.266C16.0241 105.481 15.8276 105.713 15.8427 105.994C15.9183 106.242 16.1299 106.457 16.3718 106.441Z" fill="url(#paint24_radial_544_1767)"/>
<g opacity="0.6">
<path opacity="0.6" d="M16.4019 103.694C15.2682 103.727 14.3914 104.769 14.4216 105.994C14.4518 107.235 15.4042 108.194 16.5229 108.161C17.6415 108.128 18.5334 107.086 18.5032 105.861C18.4729 104.637 17.5206 103.661 16.4019 103.694Z" fill="url(#paint25_radial_544_1767)"/>
</g>
</g>
<g opacity="0.4">
<path opacity="0.4" d="M45.2907 142.263C49.5386 142.081 53.7865 141.435 57.8984 140.178C62.0102 138.954 65.986 137.2 69.735 135.016C73.4841 132.831 77.0366 130.234 80.3775 127.355C83.7183 124.492 86.8627 121.365 89.871 118.106C92.8793 114.846 95.7666 111.454 98.6238 108.046C101.481 104.637 104.308 101.212 107.301 97.9525C108.798 96.3309 110.34 94.7591 111.957 93.3196C113.59 91.8801 115.298 90.5564 117.157 89.5471C118.095 89.0507 119.047 88.6205 120.045 88.3227C121.042 88.0248 122.055 87.8594 123.083 87.8263H123.461C123.582 87.8263 123.718 87.8428 123.854 87.8428L124.64 87.8759C125.169 87.8925 125.683 87.9587 126.197 88.0083C127.24 88.1241 128.268 88.3061 129.296 88.5378C131.337 89.0011 133.317 89.7622 135.222 90.7053C137.127 91.6484 138.926 92.8232 140.695 94.0807C142.448 95.3382 144.156 96.695 145.925 97.9856C146.802 98.6308 147.709 99.2596 148.616 99.8552C149.538 100.434 150.49 100.98 151.458 101.46C153.423 102.403 155.509 103.065 157.641 103.264C159.772 103.495 161.934 103.346 164.035 102.883C166.137 102.42 168.162 101.642 170.097 100.649C172.032 99.6567 173.861 98.4654 175.63 97.1748C179.152 94.5771 182.418 91.6153 185.728 88.7529C187.391 87.3134 189.054 85.907 190.777 84.5833C192.501 83.2596 194.27 82.0186 196.129 80.9432C197.988 79.8677 199.923 78.9742 201.934 78.3289C203.944 77.7001 206.031 77.3361 208.117 77.303C210.203 77.2534 212.289 77.6174 214.315 78.18C216.34 78.7591 218.306 79.5864 220.241 80.4964C222.176 81.423 224.065 82.4323 225.97 83.4416C227.86 84.4674 229.764 85.4768 231.684 86.4364C233.604 87.3961 235.569 88.3061 237.55 89.1003C239.545 89.8945 241.571 90.5895 243.627 91.1355C244.141 91.2679 244.655 91.4168 245.169 91.5326L245.94 91.7146C246.197 91.7808 246.454 91.8304 246.726 91.8801L248.298 92.1779L249.87 92.4095C251.971 92.6743 254.088 92.8232 256.219 92.8397C256.491 92.8397 256.748 92.8232 257.021 92.8232C257.293 92.8066 257.55 92.8066 257.822 92.7901L258.623 92.7239C258.895 92.6908 259.152 92.6743 259.409 92.6412C260.467 92.5088 261.51 92.3268 262.553 92.0952C264.64 91.665 266.695 91.1024 268.736 90.4737C272.818 89.2327 276.824 87.7767 280.83 86.2875C284.836 84.7984 288.827 83.2761 292.833 81.8532C294.843 81.1417 296.854 80.4468 298.88 79.818C300.905 79.1893 302.946 78.6102 305.017 78.1303C307.073 77.667 309.174 77.2865 311.276 77.2037L312.062 77.1707H312.848H314.435H317.61L419 77.0383L317.595 76.9225H314.42H312.833H312.047L311.245 76.9556C309.129 77.0383 307.028 77.4023 304.957 77.8656C302.886 78.3289 300.83 78.908 298.804 79.5367C296.763 80.1655 294.753 80.8439 292.742 81.5553C288.721 82.9783 284.73 84.484 280.724 85.9731C276.718 87.4457 272.712 88.9018 268.646 90.1262C266.62 90.7384 264.564 91.2844 262.493 91.7146C261.465 91.9297 260.422 92.1117 259.379 92.2441C259.122 92.2937 258.85 92.3103 258.593 92.3268L257.807 92.393C257.55 92.4095 257.278 92.4095 257.021 92.4261C256.764 92.4261 256.491 92.4426 256.234 92.4426C254.133 92.4261 252.032 92.2772 249.931 92.0124L248.374 91.7808L246.816 91.483C246.559 91.4333 246.303 91.3837 246.046 91.3175L245.275 91.1355C244.761 91.0197 244.247 90.8873 243.733 90.7384C241.692 90.1758 239.681 89.4974 237.701 88.7032C235.721 87.909 233.786 87.0155 231.866 86.0393C229.946 85.0797 228.056 84.0538 226.167 83.0279C224.277 82.0021 222.372 80.9762 220.437 80.0497C218.502 79.1231 216.507 78.2792 214.451 77.6836C212.395 77.0879 210.263 76.7239 208.132 76.7736C206 76.7901 203.869 77.1541 201.813 77.7994C199.757 78.4447 197.792 79.3547 195.902 80.4302C194.013 81.5223 192.229 82.7632 190.49 84.1034C188.752 85.4271 187.074 86.8501 185.411 88.273C182.085 91.1355 178.835 94.0807 175.328 96.6453C173.574 97.9194 171.76 99.0941 169.871 100.07C167.981 101.047 165.985 101.808 163.945 102.254C161.904 102.701 159.803 102.834 157.732 102.602C155.66 102.403 153.635 101.742 151.73 100.831C150.778 100.368 149.856 99.8387 148.949 99.2596C148.042 98.6805 147.165 98.0683 146.288 97.4064C144.534 96.1159 142.841 94.7591 141.057 93.485C139.289 92.211 137.46 91.0031 135.509 90.0435C133.574 89.0672 131.534 88.2896 129.447 87.8097C128.404 87.5616 127.346 87.3796 126.288 87.2637C125.759 87.2141 125.23 87.1314 124.686 87.1148L123.884 87.0817C123.748 87.0817 123.612 87.0652 123.476 87.0652H123.068C121.98 87.0817 120.906 87.2637 119.848 87.5781C118.805 87.8925 117.807 88.3392 116.84 88.8521C114.905 89.8945 113.151 91.2513 111.488 92.7074C109.841 94.18 108.268 95.7518 106.772 97.3899C103.764 100.649 100.922 104.091 98.0493 107.483C95.1922 110.891 92.3048 114.267 89.3117 117.493C86.3034 120.736 83.1892 123.83 79.8635 126.66C76.5529 129.489 73.0457 132.054 69.3269 134.205C65.6232 136.356 61.7079 138.077 57.6565 139.268C53.6202 140.476 49.4328 141.121 45.2454 141.286C45.0035 141.303 44.807 141.518 44.807 141.799C44.8221 142.064 45.0337 142.279 45.2907 142.263Z" fill="url(#paint26_radial_544_1767)"/>
<g opacity="0.4">
<path opacity="0.4" d="M45.336 139.516C44.2022 139.533 43.3103 140.558 43.3254 141.799C43.3406 143.04 44.2778 144.017 45.4116 144C46.5454 143.983 47.4373 142.958 47.4222 141.717C47.3919 140.492 46.4698 139.5 45.336 139.516Z" fill="url(#paint27_radial_544_1767)"/>
</g>
</g>
<g opacity="0.5">
<path opacity="0.5" d="M48.2688 103.396C52.3655 102.999 56.4018 102.056 60.2869 100.65C61.2544 100.302 62.2218 99.9215 63.1742 99.5244C64.1266 99.1107 65.079 98.6971 66.0162 98.2503C67.8907 97.3569 69.735 96.3806 71.5491 95.3382C75.1772 93.27 78.6692 90.9536 82.1159 88.5875C85.5777 86.2214 88.9791 83.8057 92.456 81.5058C95.9329 79.2224 99.4855 77.0549 103.219 75.3506C105.079 74.5068 106.999 73.7788 108.949 73.2328C109.931 72.968 110.914 72.7364 111.897 72.5709C112.894 72.4055 113.892 72.2731 114.89 72.2234L115.268 72.2069H115.646C115.903 72.2069 116.144 72.1904 116.401 72.1904L117.928 72.2069L119.455 72.2234L120.967 72.2896L122.479 72.3558L123.99 72.4716L125.502 72.604L127.014 72.7695C127.513 72.8356 128.026 72.8687 128.525 72.9515L130.037 73.1831C131.05 73.3155 132.033 73.5306 133.045 73.696C133.544 73.7788 134.043 73.8946 134.542 74.0104L136.039 74.3413L137.52 74.7054C138.019 74.8212 138.503 74.9535 139.001 75.1025L140.468 75.5161C140.952 75.665 141.435 75.8139 141.934 75.9794C142.917 76.2772 143.869 76.6247 144.837 76.9722C146.757 77.6836 148.661 78.4448 150.536 79.2886C152.41 80.1324 154.27 81.0259 156.114 81.9691C157.958 82.9122 159.787 83.8884 161.617 84.8481C163.446 85.8077 165.305 86.7674 167.195 87.6113C168.147 88.0414 169.1 88.422 170.082 88.7695C170.566 88.9349 171.065 89.0839 171.564 89.2493L172.32 89.4479C172.577 89.514 172.818 89.5802 173.075 89.6299L173.831 89.7788C173.952 89.7953 174.088 89.8284 174.209 89.845L174.587 89.8946L175.358 89.9773C175.615 90.0104 175.872 89.9939 176.129 90.0104L176.522 90.027C176.658 90.027 176.779 90.0435 176.915 90.027L177.686 89.9939C178.2 89.9939 178.714 89.9111 179.228 89.8615C179.349 89.845 179.485 89.8284 179.606 89.8119L179.984 89.7457L180.74 89.5968C180.997 89.5471 181.239 89.4644 181.496 89.3982L181.874 89.299C181.994 89.2659 182.131 89.2328 182.251 89.1831L182.992 88.9184C183.113 88.8688 183.234 88.8357 183.355 88.786L183.718 88.6371L184.443 88.3227L185.139 87.9587C187.013 86.999 188.706 85.6919 190.309 84.3186C191.911 82.9287 193.423 81.423 194.95 79.967C196.492 78.5109 198.049 77.088 199.727 75.8636C201.405 74.6557 203.204 73.6133 205.108 72.9184C207.013 72.2234 209.024 71.8594 211.034 71.7932C213.045 71.7436 215.086 71.8429 217.066 72.2069C219.062 72.5544 221.027 73.0673 222.947 73.7788C224.866 74.4737 226.726 75.3672 228.54 76.3434C232.168 78.3289 235.585 80.7447 239.016 83.1438C240.739 84.3351 242.463 85.5099 244.247 86.6185C246.03 87.7105 247.86 88.7198 249.764 89.5471C251.669 90.3744 253.634 91.0197 255.66 91.3837C257.686 91.7643 259.742 91.8636 261.782 91.7312C265.879 91.4665 269.87 90.4241 273.785 89.1831C277.701 87.9256 281.556 86.5027 285.441 85.179C287.391 84.5171 289.326 83.8884 291.291 83.2762C293.256 82.6805 295.221 82.118 297.202 81.6216C305.123 79.5864 313.226 78.3786 321.344 77.9649C325.41 77.7333 329.477 77.7664 333.543 77.7664H345.758H370.172L419 77.7829L370.172 77.6505L345.758 77.5844L333.543 77.5513C329.477 77.5347 325.395 77.5016 321.329 77.7167C313.196 78.1304 305.078 79.3051 297.141 81.3238C295.161 81.8201 293.181 82.3827 291.215 82.9784C289.25 83.574 287.3 84.2028 285.35 84.8646C281.465 86.1718 277.595 87.5947 273.695 88.8357C269.794 90.0601 265.819 91.0859 261.767 91.3341C259.742 91.4665 257.716 91.3507 255.736 90.9701C253.74 90.5895 251.805 89.9608 249.915 89.1335C246.151 87.4789 242.674 85.1459 239.258 82.7467C235.826 80.3475 232.41 77.9153 228.752 75.8967C226.922 74.8874 225.048 73.9939 223.098 73.2824C221.163 72.5709 219.167 72.0249 217.142 71.6774C215.116 71.3134 213.06 71.1976 211.019 71.2472C208.963 71.3134 206.907 71.6774 204.957 72.3889C202.992 73.1004 201.163 74.1428 199.44 75.3837C197.731 76.6247 196.144 78.0642 194.602 79.5037C193.06 80.9597 191.548 82.4489 189.961 83.8222C188.374 85.179 186.711 86.453 184.882 87.3796L184.202 87.7271L183.506 88.0249L183.158 88.1738C183.038 88.2235 182.917 88.2565 182.796 88.3062L182.085 88.5544C181.964 88.604 181.843 88.6371 181.722 88.6702L181.36 88.7695C181.118 88.8357 180.876 88.9184 180.634 88.9515L179.893 89.0839L179.53 89.15C179.409 89.1666 179.288 89.1831 179.152 89.1997C178.654 89.2493 178.155 89.332 177.656 89.332L176.9 89.3651C176.779 89.3817 176.643 89.3651 176.522 89.3651L176.144 89.3486C175.887 89.332 175.645 89.332 175.388 89.3155L174.648 89.2328L174.27 89.1831C174.149 89.1666 174.028 89.1335 173.892 89.1169L173.151 88.968C172.909 88.9349 172.667 88.8522 172.41 88.786L171.669 88.604C171.186 88.4551 170.702 88.3062 170.218 88.1407C169.266 87.7933 168.314 87.4127 167.376 86.999C165.502 86.1552 163.673 85.2121 161.843 84.2359C160.014 83.2762 158.185 82.2834 156.341 81.3403C154.496 80.3972 152.637 79.4872 150.747 78.6268C148.858 77.7664 146.938 77.0052 145.018 76.2772C144.051 75.9298 143.083 75.5823 142.1 75.2679C141.617 75.119 141.118 74.9535 140.634 74.8046L139.153 74.3744C138.654 74.2255 138.155 74.1097 137.671 73.9773L136.175 73.5968L134.678 73.2658C134.179 73.15 133.68 73.0342 133.166 72.9515C132.153 72.7695 131.156 72.5544 130.143 72.422L128.631 72.1904C128.132 72.1076 127.618 72.0745 127.104 72.0084L125.578 71.8263L124.051 71.694L122.524 71.5616L120.997 71.4789L119.47 71.3961L117.943 71.3631L116.417 71.33C116.16 71.33 115.903 71.33 115.646 71.3465H115.253L114.86 71.3631C113.832 71.4127 112.804 71.5451 111.791 71.7105C110.778 71.876 109.765 72.1076 108.767 72.3889C106.772 72.9349 104.822 73.6795 102.932 74.5233C99.1378 76.2441 95.555 78.4117 92.063 80.7116C88.5558 83.0115 85.1393 85.4272 81.6926 87.7767C78.2459 90.1262 74.7539 92.4096 71.156 94.4613C69.3571 95.4872 67.528 96.4468 65.6837 97.3238C64.7615 97.7705 63.8242 98.1842 62.8719 98.5813C61.9195 98.9618 60.9823 99.3424 60.0148 99.6899C56.175 101.08 52.1992 101.99 48.1932 102.37C47.9514 102.387 47.7548 102.635 47.785 102.9C47.8001 103.214 48.0269 103.413 48.2688 103.396Z" fill="url(#paint28_radial_544_1767)"/>
<g opacity="0.5">
<path opacity="0.5" d="M48.1932 100.649C47.0595 100.732 46.2129 101.808 46.3036 103.049C46.3792 104.29 47.3618 105.216 48.4956 105.117C49.6293 105.018 50.4759 103.959 50.3852 102.718C50.2945 101.493 49.3119 100.567 48.1932 100.649Z" fill="url(#paint29_radial_544_1767)"/>
</g>
</g>
<g opacity="0.9">
<path opacity="0.9" d="M1.95004 95.7519C6.47006 95.6691 10.9901 95.3051 15.4648 94.6929C19.9545 94.0807 24.3989 93.2038 28.8131 92.1448C37.6415 90.0269 46.2431 86.999 54.8145 84.0042C56.9611 83.2596 59.1078 82.515 61.2695 81.8201C63.4312 81.1252 65.593 80.4468 67.7698 79.8677C69.9467 79.2886 72.1386 78.7756 74.3609 78.4116C76.568 78.0642 78.8053 77.8491 81.0275 77.8656H81.8589L82.6904 77.9152L84.3683 78.0145C84.9277 78.0642 85.487 78.1303 86.0464 78.18L86.8778 78.2627C87.1499 78.2958 87.4371 78.3454 87.7093 78.3785L89.3721 78.6267L91.0199 78.9576C91.292 79.0238 91.5792 79.0569 91.8513 79.1231L92.6677 79.3216L93.4839 79.5202C93.62 79.5533 93.7561 79.5864 93.8921 79.6195L94.3003 79.7353C98.6389 80.9432 102.811 82.8129 106.772 85.0962C108.752 86.2544 110.687 87.4954 112.592 88.786C114.512 90.0766 116.401 91.4002 118.336 92.6908C120.271 93.9814 122.222 95.2058 124.277 96.2813C126.318 97.3568 128.465 98.2338 130.687 98.8129C132.894 99.392 135.192 99.6733 137.46 99.6236L139.168 99.574C139.727 99.5243 140.302 99.4582 140.861 99.4085L141.284 99.3589L141.707 99.2927L142.554 99.1438C142.841 99.0941 143.113 99.0611 143.401 98.9949L144.232 98.7963C146.454 98.2668 148.616 97.4726 150.687 96.4468C152.758 95.4375 154.738 94.2131 156.643 92.8894C160.468 90.2255 164.035 87.2306 167.815 84.5833C168.752 83.9049 169.719 83.2761 170.687 82.6474L172.153 81.7374L173.65 80.8935C175.645 79.7849 177.716 78.8253 179.833 78.0145L181.435 77.452L181.828 77.3196L182.236 77.2038L183.053 76.9721L183.869 76.7405L184.066 76.6743L184.277 76.6246L184.685 76.5254L186.333 76.1283C186.877 76.0124 187.437 75.9297 187.996 75.8304L188.827 75.6815C189.099 75.6319 189.387 75.6153 189.659 75.5657L191.322 75.3506C191.881 75.2844 192.44 75.2679 193 75.2182L193.846 75.1521L194.27 75.119L194.693 75.1024L196.371 75.0528C196.658 75.0528 196.93 75.0362 197.217 75.0362L198.064 75.0528C198.623 75.0693 199.183 75.0693 199.742 75.0859C201.979 75.1851 204.217 75.4002 206.439 75.7477C210.883 76.4426 215.222 77.7829 219.424 79.5367C223.627 81.2906 227.678 83.4416 231.851 85.3279C233.937 86.271 236.053 87.1479 238.215 87.8594C240.377 88.5874 242.584 89.1665 244.806 89.5636C249.265 90.3744 253.816 90.5399 258.321 90.0766C260.573 89.8449 262.81 89.4313 265.002 88.8356C267.194 88.24 269.341 87.4788 271.472 86.6515C273.589 85.8077 275.69 84.9142 277.807 84.0704C279.923 83.2265 282.054 82.4488 284.216 81.7705C286.378 81.1086 288.57 80.5461 290.792 80.1324L291.624 79.9835C291.896 79.9339 292.183 79.8842 292.455 79.8346L294.118 79.5698L295.796 79.3547C296.355 79.2886 296.914 79.2389 297.474 79.1893C301.948 78.7425 306.468 78.8418 310.973 78.8087C319.983 78.7922 328.993 78.7425 338.003 78.6598L365.032 78.4116C382.976 78.2627 400.98 78.0311 419 77.7498C400.98 77.9814 382.976 78.18 364.956 78.3289L337.927 78.5109C328.917 78.5605 319.908 78.5936 310.898 78.5936C306.393 78.6102 301.888 78.4943 297.383 78.9411C296.824 78.9907 296.264 79.0404 295.705 79.1066L294.027 79.3216L292.349 79.5864C292.062 79.6195 291.79 79.6691 291.518 79.7353L290.686 79.8842C288.464 80.3144 286.257 80.8604 284.08 81.5223C281.903 82.1841 279.757 82.9618 277.64 83.8056C275.524 84.6495 273.423 85.543 271.306 86.3703C269.19 87.1976 267.043 87.9421 264.866 88.5378C262.689 89.1334 260.467 89.5305 258.23 89.7622C253.755 90.2089 249.235 90.0269 244.806 89.2327C242.599 88.8191 240.407 88.24 238.26 87.5285C236.114 86.8005 234.012 85.9401 231.941 84.9804C227.784 83.0941 223.733 80.9266 219.515 79.1562C215.297 77.3858 210.929 76.0124 206.454 75.301C204.217 74.9535 201.964 74.7219 199.712 74.6226C199.152 74.5895 198.578 74.5895 198.019 74.5729L197.172 74.5564C196.885 74.5564 196.613 74.5729 196.325 74.5729L194.632 74.606L194.209 74.6226L193.786 74.6557L192.939 74.7219C192.38 74.7715 191.805 74.788 191.246 74.8542L189.568 75.0693C189.281 75.1024 189.009 75.1355 188.722 75.1851L187.89 75.3341C187.331 75.4333 186.771 75.5326 186.212 75.6319L184.549 76.029L184.141 76.1283L183.929 76.1779L183.718 76.2441L182.901 76.4757L182.085 76.7074L181.677 76.8232L181.269 76.9721L179.651 77.5347C177.52 78.3454 175.419 79.3217 173.393 80.4302L171.881 81.2906L170.4 82.2007C169.417 82.8294 168.45 83.4582 167.512 84.1365C163.703 86.8005 160.12 89.7953 156.326 92.4261C154.436 93.7332 152.471 94.9411 150.43 95.9339C148.389 96.9266 146.258 97.7043 144.081 98.2172L143.264 98.4158C142.992 98.4819 142.72 98.515 142.433 98.5647L141.602 98.697L141.193 98.7632L140.77 98.7963C140.211 98.846 139.652 98.9121 139.107 98.9618L137.429 99.0114C135.207 99.0445 132.97 98.7798 130.808 98.2007C128.646 97.6215 126.545 96.7612 124.534 95.7022C122.524 94.6433 120.574 93.4189 118.654 92.1283C116.734 90.8377 114.844 89.514 112.925 88.2069C111.005 86.8997 109.07 85.6422 107.074 84.4675C103.083 82.1345 98.8656 80.2482 94.4666 79.0073L94.0584 78.8915C93.9224 78.8584 93.7863 78.8253 93.6503 78.7922L92.8188 78.5936L91.9874 78.3951C91.7153 78.3289 91.428 78.2793 91.1559 78.2131L89.4779 77.8821L87.8 77.634C87.5127 77.6009 87.2406 77.5512 86.9534 77.5181L86.1068 77.4354C85.5475 77.3858 84.9731 77.3196 84.4137 77.2699L82.7206 77.1707L81.8741 77.121H81.0275C78.7448 77.1045 76.4772 77.303 74.2399 77.667C72.0026 78.0311 69.7804 78.544 67.5884 79.1231C65.3964 79.7022 63.2196 80.3806 61.0578 81.059C58.8961 81.7539 56.7495 82.4985 54.5877 83.2265C46.0012 86.2048 37.4147 89.1996 28.6317 91.2844C24.2477 92.3434 19.8185 93.1872 15.3589 93.7994C10.8994 94.3951 6.42474 94.7425 1.93497 94.8253C1.69308 94.8253 1.48141 95.0569 1.49655 95.3216C1.49655 95.5367 1.69305 95.7519 1.95004 95.7519Z" fill="url(#paint30_radial_544_1767)"/>
<g opacity="0.9">
<path opacity="0.9" d="M2.0105 93.0051C0.87668 93.0216 -0.015264 94.0475 -0.000146389 95.2719C0.0149713 96.5129 0.952253 97.4891 2.07095 97.4725C3.20477 97.456 4.09672 96.4301 4.0816 95.2057C4.06648 93.9813 3.14432 92.9885 2.0105 93.0051Z" fill="url(#paint31_radial_544_1767)"/>
</g>
</g>
</g>
<defs>
<radialGradient id="paint0_radial_544_1767" cx="0" cy="0" r="1" gradientUnits="userSpaceOnUse" gradientTransform="translate(441.073 80.998) rotate(180) scale(393.424 224.248)">
<stop stop-color="#FF9D2D"/>
<stop offset="1" stop-color="#8F3F88"/>
</radialGradient>
<radialGradient id="paint1_radial_544_1767" cx="0" cy="0" r="1" gradientUnits="userSpaceOnUse" gradientTransform="translate(27.0778 65.6203) rotate(180) scale(4.08472 51.0097)">
<stop stop-color="#FF9D2D"/>
<stop offset="1" stop-color="#8F3F88"/>
</radialGradient>
<radialGradient id="paint2_radial_544_1767" cx="0" cy="0" r="1" gradientUnits="userSpaceOnUse" gradientTransform="translate(439.979 69.6126) rotate(180) scale(373.912 868.363)">
<stop stop-color="#FF9D2D"/>
<stop offset="1" stop-color="#8F3F88"/>
</radialGradient>
<radialGradient id="paint3_radial_544_1767" cx="0" cy="0" r="1" gradientUnits="userSpaceOnUse" gradientTransform="translate(46.745 3.98593) rotate(180) scale(4.08476 51.0027)">
<stop stop-color="#FF9D2D"/>
<stop offset="1" stop-color="#8F3F88"/>
</radialGradient>
<radialGradient id="paint4_radial_544_1767" cx="0" cy="0" r="1" gradientUnits="userSpaceOnUse" gradientTransform="translate(440.421 75.5829) rotate(180) scale(381.792 364.097)">
<stop stop-color="#FF9D2D"/>
<stop offset="1" stop-color="#8F3F88"/>
</radialGradient>
<radialGradient id="paint5_radial_544_1767" cx="0" cy="0" r="1" gradientUnits="userSpaceOnUse" gradientTransform="translate(38.7776 80.2984) rotate(180) scale(4.06964 50.8213)">
<stop stop-color="#FF9D2D"/>
<stop offset="1" stop-color="#8F3F88"/>
</radialGradient>
<radialGradient id="paint6_radial_544_1767" cx="0" cy="0" r="1" gradientUnits="userSpaceOnUse" gradientTransform="translate(441.078 72.7177) rotate(180) scale(393.5 689.424)">
<stop stop-color="#FF9D2D"/>
<stop offset="1" stop-color="#8F3F88"/>
</radialGradient>
<radialGradient id="paint7_radial_544_1767" cx="0" cy="0" r="1" gradientUnits="userSpaceOnUse" gradientTransform="translate(27.078 21.0635) rotate(180) scale(4.07149 50.8333)">
<stop stop-color="#FF9D2D"/>
<stop offset="1" stop-color="#8F3F88"/>
</radialGradient>
<radialGradient id="paint8_radial_544_1767" cx="0" cy="0" r="1" gradientUnits="userSpaceOnUse" gradientTransform="translate(441.985 75.8186) rotate(180) scale(409.682 368.604)">
<stop stop-color="#FF9D2D"/>
<stop offset="1" stop-color="#8F3F88"/>
</radialGradient>
<radialGradient id="paint9_radial_544_1767" cx="0" cy="0" r="1" gradientUnits="userSpaceOnUse" gradientTransform="translate(10.7819 49.2415) rotate(180) scale(4.07149 50.8329)">
<stop stop-color="#FF9D2D"/>
<stop offset="1" stop-color="#8F3F88"/>
</radialGradient>
<radialGradient id="paint10_radial_544_1767" cx="0" cy="0" r="1" gradientUnits="userSpaceOnUse" gradientTransform="translate(439.563 70.8161) rotate(180) scale(366.499 774.108)">
<stop stop-color="#FF9D2D"/>
<stop offset="1" stop-color="#8F3F88"/>
</radialGradient>
<radialGradient id="paint11_radial_544_1767" cx="0" cy="0" r="1" gradientUnits="userSpaceOnUse" gradientTransform="translate(54.1087 12.6106) rotate(180) scale(4.07414 50.8769)">
<stop stop-color="#FF9D2D"/>
<stop offset="1" stop-color="#8F3F88"/>
</radialGradient>
<radialGradient id="paint12_radial_544_1767" cx="0" cy="0" r="1" gradientUnits="userSpaceOnUse" gradientTransform="translate(439.562 72.988) rotate(180) scale(366.483 612.643)">
<stop stop-color="#FF9D2D"/>
<stop offset="1" stop-color="#8F3F88"/>
</radialGradient>
<radialGradient id="paint13_radial_544_1767" cx="0" cy="0" r="1" gradientUnits="userSpaceOnUse" gradientTransform="translate(54.1063 42.3087) rotate(180) scale(4.06961 50.8216)">
<stop stop-color="#FF9D2D"/>
<stop offset="1" stop-color="#8F3F88"/>
</radialGradient>
<radialGradient id="paint14_radial_544_1767" cx="0" cy="0" r="1" gradientUnits="userSpaceOnUse" gradientTransform="translate(440.525 79.9849) rotate(180) scale(383.646 481.6)">
<stop stop-color="#FF9D2D"/>
<stop offset="1" stop-color="#8F3F88"/>
</radialGradient>
<radialGradient id="paint15_radial_544_1767" cx="0" cy="0" r="1" gradientUnits="userSpaceOnUse" gradientTransform="translate(36.9494 44.5075) rotate(180) scale(4.08472 51.0097)">
<stop stop-color="#FF9D2D"/>
<stop offset="1" stop-color="#8F3F88"/>
</radialGradient>
<radialGradient id="paint16_radial_544_1767" cx="0" cy="0" r="1" gradientUnits="userSpaceOnUse" gradientTransform="translate(439.003 86.2134) rotate(180) scale(356.253 207.748)">
<stop stop-color="#FF9D2D"/>
<stop offset="1" stop-color="#8F3F88"/>
</radialGradient>
<radialGradient id="paint17_radial_544_1767" cx="0" cy="0" r="1" gradientUnits="userSpaceOnUse" gradientTransform="translate(64.4188 89.467) rotate(180) scale(4.07408 50.8606)">
<stop stop-color="#FF9D2D"/>
<stop offset="1" stop-color="#8F3F88"/>
</radialGradient>
<radialGradient id="paint18_radial_544_1767" cx="0" cy="0" r="1" gradientUnits="userSpaceOnUse" gradientTransform="translate(441.075 126.621) rotate(180) scale(393.469 749.061)">
<stop stop-color="#FF9D2D"/>
<stop offset="1" stop-color="#8F3F88"/>
</radialGradient>
<radialGradient id="paint19_radial_544_1767" cx="0" cy="0" r="1" gradientUnits="userSpaceOnUse" gradientTransform="translate(27.0773 135.179) rotate(180) scale(4.08363 50.9953)">
<stop stop-color="#FF9D2D"/>
<stop offset="1" stop-color="#8F3F88"/>
</radialGradient>
<radialGradient id="paint20_radial_544_1767" cx="0" cy="0" r="1" gradientUnits="userSpaceOnUse" gradientTransform="translate(437.824 127.436) rotate(180) scale(335.512 649.617)">
<stop stop-color="#FF9D2D"/>
<stop offset="1" stop-color="#8F3F88"/>
</radialGradient>
<radialGradient id="paint21_radial_544_1767" cx="0" cy="0" r="1" gradientUnits="userSpaceOnUse" gradientTransform="translate(85.2542 135.005) rotate(180) scale(4.08174 50.9729)">
<stop stop-color="#FF9D2D"/>
<stop offset="1" stop-color="#8F3F88"/>
</radialGradient>
<radialGradient id="paint22_radial_544_1767" cx="0" cy="0" r="1" gradientUnits="userSpaceOnUse" gradientTransform="translate(440.42 119.419) rotate(180) scale(381.777 532.761)">
<stop stop-color="#FF9D2D"/>
<stop offset="1" stop-color="#8F3F88"/>
</radialGradient>
<radialGradient id="paint23_radial_544_1767" cx="0" cy="0" r="1" gradientUnits="userSpaceOnUse" gradientTransform="translate(38.7777 125.864) rotate(180) scale(4.0833 50.9912)">
<stop stop-color="#FF9D2D"/>
<stop offset="1" stop-color="#8F3F88"/>
</radialGradient>
<radialGradient id="paint24_radial_544_1767" cx="0" cy="0" r="1" gradientUnits="userSpaceOnUse" gradientTransform="translate(441.545 114.238) rotate(180) scale(401.832 469.656)">
<stop stop-color="#FF9D2D"/>
<stop offset="1" stop-color="#8F3F88"/>
</radialGradient>
<radialGradient id="paint25_radial_544_1767" cx="0" cy="0" r="1" gradientUnits="userSpaceOnUse" gradientTransform="translate(18.7322 107.666) rotate(180) scale(4.06964 50.822)">
<stop stop-color="#FF9D2D"/>
<stop offset="1" stop-color="#8F3F88"/>
</radialGradient>
<radialGradient id="paint26_radial_544_1767" cx="0" cy="0" r="1" gradientUnits="userSpaceOnUse" gradientTransform="translate(439.925 134.986) rotate(180) scale(372.962 744.794)">
<stop stop-color="#FF9D2D"/>
<stop offset="1" stop-color="#8F3F88"/>
</radialGradient>
<radialGradient id="paint27_radial_544_1767" cx="0" cy="0" r="1" gradientUnits="userSpaceOnUse" gradientTransform="translate(47.6515 143.502) rotate(180) scale(4.08363 50.9955)">
<stop stop-color="#FF9D2D"/>
<stop offset="1" stop-color="#8F3F88"/>
</radialGradient>
<radialGradient id="paint28_radial_544_1767" cx="0" cy="0" r="1" gradientUnits="userSpaceOnUse" gradientTransform="translate(439.759 99.8237) rotate(180) scale(369.997 365.728)">
<stop stop-color="#FF9D2D"/>
<stop offset="1" stop-color="#8F3F88"/>
</radialGradient>
<radialGradient id="paint29_radial_544_1767" cx="0" cy="0" r="1" gradientUnits="userSpaceOnUse" gradientTransform="translate(50.6208 104.626) rotate(180) scale(4.08141 50.9444)">
<stop stop-color="#FF9D2D"/>
<stop offset="1" stop-color="#8F3F88"/>
</radialGradient>
<radialGradient id="paint30_radial_544_1767" cx="0" cy="0" r="1" gradientUnits="userSpaceOnUse" gradientTransform="translate(442.347 96.8433) rotate(180) scale(416.131 285.124)">
<stop stop-color="#FF9D2D"/>
<stop offset="1" stop-color="#8F3F88"/>
</radialGradient>
<radialGradient id="paint31_radial_544_1767" cx="0" cy="0" r="1" gradientUnits="userSpaceOnUse" gradientTransform="translate(4.31006 96.9763) rotate(180) scale(4.06869 50.8077)">
<stop stop-color="#FF9D2D"/>
<stop offset="1" stop-color="#8F3F88"/>
</radialGradient>
<clipPath id="clip0_544_1767">
<rect width="419" height="144" fill="white" transform="matrix(-1 0 0 1 419 0)"/>
</clipPath>
</defs>
</svg>
