<svg width="70" height="70" viewBox="0 0 70 70" fill="none" xmlns="http://www.w3.org/2000/svg">
<g clip-path="url(#clip0_544_1848)">
<path d="M35 69.9999C41.9222 69.9999 48.6891 67.9474 54.4449 64.1011C60.2006 60.2555 64.6868 54.7892 67.3355 48.3939C69.9849 41.9985 70.678 34.9611 69.3274 28.1717C67.9767 21.3825 64.6436 15.1461 59.7486 10.2513C54.8538 5.35643 48.6174 2.02301 41.8281 0.672529C35.0388 -0.67795 28.0015 0.0151643 21.606 2.66423C15.2106 5.31329 9.74442 9.79931 5.89855 15.555C2.05271 21.3108 0 28.0776 0 35C0 44.2825 3.68749 53.1849 10.2512 59.7486C16.815 66.3124 25.7174 69.9999 35 69.9999Z" fill="#23292F" fill-opacity="0.2"/>
<path d="M47.8063 20.0938H53.0686L42.125 31.0124C40.223 32.9123 37.6446 33.9795 34.9563 33.9795C32.2679 33.9795 29.6895 32.9123 27.7875 31.0124L16.875 20.0938H22.1313L30.4438 28.3874C31.6484 29.5907 33.2816 30.2668 34.9844 30.2668C36.6871 30.2668 38.3203 29.5907 39.525 28.3874L47.8063 20.0938Z" fill="white"/>
<path d="M22.1062 50.4623H16.875L27.8563 39.4748C29.7583 37.5749 32.3366 36.5078 35.025 36.5078C37.7134 36.5078 40.2918 37.5749 42.1938 39.4748L53.1999 50.4623H47.9438L39.5688 42.0998C38.364 40.8964 36.7309 40.2206 35.0281 40.2206C33.3254 40.2206 31.6921 40.8964 30.4875 42.0998L22.1062 50.4623Z" fill="white"/>
</g>
<defs>
<clipPath id="clip0_544_1848">
<rect width="70" height="70" fill="white"/>
</clipPath>
</defs>
</svg>
