<svg width="273" height="97" viewBox="0 0 273 97" fill="none" xmlns="http://www.w3.org/2000/svg">
<path d="M125.712 40.6515H129.712V66.8133H125.712V40.6515ZM115 29.5802H147.662V33.5808H115V29.5802ZM132.956 40.6515H136.957V66.8133H132.956V40.6515ZM247.663 66.8505H251.707V51.0902L247.663 46.5934V66.8505Z" fill="white"/>
<path d="M268.95 29.5802V58.7873L240.345 27V66.8505H244.389V37.6185L273.001 69.4182V29.5802H268.95ZM214.171 29.5554C203.893 29.5554 195.532 37.9162 195.532 48.1936C195.532 58.471 203.893 66.8318 214.171 66.8318C224.448 66.8318 232.809 58.471 232.809 48.1936C232.809 37.9162 224.448 29.5554 214.171 29.5554ZM214.171 62.8127C206.108 62.8127 199.545 56.2568 199.545 48.1874C199.545 40.1181 206.101 33.5621 214.171 33.5621C222.24 33.5621 228.796 40.1181 228.796 48.1874C228.796 56.2568 222.234 62.8127 214.171 62.8127Z" fill="white"/>
<path d="M214.17 45.508C212.694 45.508 211.484 46.7175 211.484 48.1936C211.484 49.6698 212.694 50.8793 214.17 50.8793C215.646 50.8793 216.855 49.6698 216.855 48.1936C216.855 46.7175 215.658 45.508 214.17 45.508ZM188.517 41.0051C188.517 34.7034 183.424 29.5802 177.166 29.5802H155.842V66.8505H159.824V33.6242H177.166C181.179 33.6242 184.448 36.9363 184.448 40.9988C184.448 45.0428 181.223 48.3425 177.247 48.3859L163.099 48.3797V66.8443H167.081V52.4237H176.409L184.026 66.8443H188.647L180.695 51.8593C185.316 50.3397 188.517 45.9112 188.517 41.0051Z" fill="white"/>
<path d="M73.045 13.4805L0 0L38.4357 97L92 31.5604L73.045 13.4805ZM71.8667 19.4267L83.042 30.0739L52.4746 35.6262L71.8667 19.4267ZM45.8416 34.5081L13.627 7.71858L66.279 17.4319L45.8416 34.5081ZM43.5483 39.2536L38.2964 82.7953L9.97163 11.3269L43.5483 39.2536ZM48.4074 41.5596L82.2501 35.4165L43.4342 82.8461L48.4074 41.5596Z" fill="#EB0029"/>
</svg>
