<svg width="26" height="26" viewBox="0 0 26 26" fill="none" xmlns="http://www.w3.org/2000/svg">
<path opacity="0.3" d="M7.6908 26H18.3092C22.9099 26 26 23.0412 26 18.6355V7.3645C26 2.9588 22.9099 0 18.3092 0H7.6908C3.0914 0 0 2.9601 0 7.3658L0 18.6355C0 23.0412 3.0914 26 7.6908 26Z" fill="url(#paint0_radial_544_1899)"/>
<path d="M14.1121 18.5633L19.0066 13.6909C19.3745 13.3243 19.3745 12.6756 19.0066 12.3077L14.1121 7.43528C13.7299 7.05568 13.1124 7.05698 12.7328 7.43918C12.3532 7.82138 12.3532 8.43758 12.7354 8.81848L15.9555 12.0256H7.69399C7.15449 12.0256 6.71899 12.4624 6.71899 13.0006C6.71899 13.5388 7.15449 13.9756 7.69399 13.9756H15.9555L12.7354 17.1814C12.5443 17.3725 12.4494 17.6221 12.4494 17.873C12.4494 18.1213 12.5443 18.3709 12.7328 18.5607C13.1124 18.9416 13.7299 18.9429 14.1121 18.5633Z" fill="url(#paint1_radial_544_1899)"/>
<defs>
<radialGradient id="paint0_radial_544_1899" cx="0" cy="0" r="1" gradientUnits="userSpaceOnUse" gradientTransform="translate(23.1111 27.4539) rotate(-90) scale(25.9145 295.668)">
<stop stop-color="#FF9D2D"/>
<stop offset="1" stop-color="#8F3F88"/>
</radialGradient>
<radialGradient id="paint1_radial_544_1899" cx="0" cy="0" r="1" gradientUnits="userSpaceOnUse" gradientTransform="translate(17.8866 19.5012) rotate(-90) scale(11.6571 142.871)">
<stop stop-color="#FF9D2D"/>
<stop offset="1" stop-color="#8F3F88"/>
</radialGradient>
</defs>
</svg>
